<svg width="107" height="33" viewBox="0 0 107 33" fill="none" xmlns="http://www.w3.org/2000/svg">
<path d="M1 24.7955C0.447715 24.7955 0 24.3477 0 23.7955V2.52273C0 1.97044 0.447715 1.52273 1 1.52273H14.8864C15.4386 1.52273 15.8864 1.97044 15.8864 2.52273V5.09091C15.8864 5.64319 15.4386 6.09091 14.8864 6.09091H6.625C6.07272 6.09091 5.625 6.53863 5.625 7.09091V9.86364C5.625 10.4159 6.07272 10.8636 6.625 10.8636H13.875C14.4273 10.8636 14.875 11.3114 14.875 11.8636V14.4432C14.875 14.9955 14.4273 15.4432 13.875 15.4432H6.625C6.07272 15.4432 5.625 15.8909 5.625 16.4432V23.7955C5.625 24.3477 5.17728 24.7955 4.625 24.7955H1Z" fill="#222121"/>
<path d="M25.5966 25.125C23.7708 25.125 22.1951 24.7652 20.8693 24.0455C19.5511 23.3182 18.536 22.2841 17.8239 20.9432C17.1193 19.5947 16.767 17.9924 16.767 16.1364C16.767 14.3333 17.1231 12.7576 17.8352 11.4091C18.5473 10.053 19.5511 9 20.8466 8.25C22.142 7.49243 23.6686 7.11364 25.4261 7.11364C26.6686 7.11364 27.8049 7.30682 28.8352 7.69318C29.8655 8.07955 30.7557 8.65152 31.5057 9.40909C32.2557 10.1667 32.839 11.1023 33.2557 12.2159C33.6724 13.322 33.8807 14.5909 33.8807 16.0227V16.4091C33.8807 16.9614 33.433 17.4091 32.8807 17.4091H19.7102C19.1579 17.4091 18.7102 16.9614 18.7102 16.4091V15.1818C18.7102 14.6295 19.1579 14.1818 19.7102 14.1818H27.6973C28.2546 14.1818 28.7251 13.7151 28.5526 13.1852C28.486 12.9806 28.3984 12.7863 28.2898 12.6023C28.017 12.1402 27.642 11.7803 27.1648 11.5227C26.6951 11.2576 26.1534 11.125 25.5398 11.125C24.9186 11.125 24.3617 11.2652 23.8693 11.5455C23.3769 11.8182 22.9867 12.1932 22.6989 12.6705C22.411 13.1402 22.2595 13.6742 22.2443 14.2727V17.5568C22.2443 18.2689 22.3845 18.8939 22.6648 19.4318C22.9451 19.9621 23.3428 20.375 23.858 20.6705C24.3731 20.9659 24.9867 21.1136 25.6989 21.1136C26.1913 21.1136 26.6383 21.0455 27.0398 20.9091C27.4413 20.7727 27.786 20.572 28.0739 20.3068C28.1891 20.2007 28.2928 20.0848 28.385 19.9592C28.6384 19.614 29.0095 19.3379 29.4376 19.3503L32.6567 19.4435C33.27 19.4612 33.7292 20.0268 33.516 20.6022C33.2623 21.2872 32.899 21.9084 32.4261 22.4659C31.714 23.3068 30.7784 23.9621 29.6193 24.4318C28.4602 24.8939 27.1193 25.125 25.5966 25.125Z" fill="#222121"/>
<path d="M51.7851 11.6276C51.9272 12.1842 51.4739 12.6834 50.8997 12.6987L47.7432 12.7831C47.2366 12.7966 46.8234 12.4033 46.5347 11.9868C46.5002 11.937 46.463 11.8884 46.4233 11.8409C46.1884 11.553 45.8816 11.3295 45.5028 11.1705C45.1316 11.0038 44.6998 10.9205 44.2074 10.9205C43.5634 10.9205 43.0142 11.0492 42.5597 11.3068C42.1127 11.5644 41.893 11.9129 41.9006 12.3523C41.893 12.6932 42.0294 12.9886 42.3097 13.2386C42.5975 13.4886 43.1089 13.6894 43.8438 13.8409L47.2074 14.4773C48.9498 14.8106 50.2453 15.3636 51.0938 16.1364C51.9498 16.9091 52.3816 17.9318 52.3892 19.2045C52.3816 20.4015 52.0256 21.4432 51.321 22.3295C50.6241 23.2159 49.6695 23.9053 48.4574 24.3977C47.2453 24.8826 45.8589 25.125 44.2983 25.125C41.8059 25.125 39.84 24.6136 38.4006 23.5909C37.2791 22.7839 36.5341 21.7632 36.1655 20.5287C35.9971 19.9643 36.4545 19.4419 37.0433 19.4273L40.5863 19.3393C41.0756 19.3271 41.4755 19.6908 41.7299 20.109C41.8908 20.3734 42.1067 20.5947 42.3778 20.7727C42.8854 21.1061 43.5331 21.2727 44.321 21.2727C45.0331 21.2727 45.6127 21.1402 46.0597 20.875C46.5066 20.6099 46.7339 20.2576 46.7415 19.8182C46.7339 19.4242 46.5597 19.1099 46.2188 18.875C45.8778 18.6326 45.3438 18.4432 44.6165 18.3068L41.571 17.7273C39.821 17.4091 38.518 16.822 37.6619 15.9659C36.8059 15.1023 36.3816 14.0038 36.3892 12.6705C36.3816 11.5038 36.6922 10.5076 37.321 9.68182C37.9498 8.84849 38.8438 8.21212 40.0028 7.77273C41.1619 7.33333 42.5294 7.11364 44.1051 7.11364C46.4688 7.11364 48.3324 7.60985 49.696 8.60227C50.7722 9.37951 51.4685 10.388 51.7851 11.6276Z" fill="#222121"/>
<path d="M63.9773 7.34091C64.5296 7.34091 64.9773 7.78863 64.9773 8.34091V10.4318C64.9773 10.9841 64.5296 11.4318 63.9773 11.4318H54.9659C54.4136 11.4318 53.9659 10.9841 53.9659 10.4318V8.34091C53.9659 7.78862 54.4136 7.34091 54.9659 7.34091H63.9773ZM56.2727 4.15909C56.2727 3.60681 56.7204 3.15909 57.2727 3.15909H60.8295C61.3818 3.15909 61.8295 3.60681 61.8295 4.15909V19.3068C61.8295 19.6477 61.8826 19.9242 61.9886 20.1364C62.1023 20.3409 62.2652 20.4886 62.4773 20.5795C62.6894 20.6629 62.9432 20.7045 63.2386 20.7045C63.4508 20.7045 63.6742 20.6856 63.9091 20.6477V20.6477C64.2081 20.5917 64.5065 20.7817 64.5689 21.0795L65.1045 23.6345C65.2121 24.1478 64.904 24.6546 64.3939 24.7766C64.3222 24.7938 64.2477 24.8114 64.1705 24.8295C63.6932 24.9432 63.1212 25.0152 62.4545 25.0455C61.1515 25.1061 60.0341 24.9545 59.1023 24.5909C58.178 24.2197 57.4697 23.6439 56.9773 22.8636C56.4924 22.0833 56.2576 21.1023 56.2727 19.9205V4.15909Z" fill="#222121"/>
<path d="M68.8125 24.7955C68.2602 24.7955 67.8125 24.3477 67.8125 23.7955V8.34091C67.8125 7.78863 68.2602 7.34091 68.8125 7.34091H72.3693C72.9216 7.34091 73.3693 7.78863 73.3693 8.34091V23.7955C73.3693 24.3477 72.9216 24.7955 72.3693 24.7955H68.8125ZM70.5966 5.30682C69.8163 5.30682 69.1458 5.04924 68.5852 4.53409C68.0246 4.01136 67.7443 3.38258 67.7443 2.64773C67.7443 1.92045 68.0246 1.29924 68.5852 0.784092C69.1458 0.261364 69.8163 0 70.5966 0C71.3845 0 72.0549 0.261364 72.608 0.784092C73.1686 1.29924 73.4489 1.92045 73.4489 2.64773C73.4489 3.38258 73.1686 4.01136 72.608 4.53409C72.0549 5.04924 71.3845 5.30682 70.5966 5.30682Z" fill="#222121"/>
<path d="M85.8267 7.34091C86.379 7.34091 86.8267 7.78863 86.8267 8.34091V10.4318C86.8267 10.9841 86.379 11.4318 85.8267 11.4318H76.5994C76.0471 11.4318 75.5994 10.9841 75.5994 10.4318V8.34091C75.5994 7.78862 76.0471 7.34091 76.5994 7.34091H85.8267ZM78.9403 24.7955C78.3881 24.7955 77.9403 24.3477 77.9403 23.7955V6.45455C77.9403 5.10606 78.1941 3.98864 78.7017 3.10227C79.2093 2.20833 79.9138 1.54167 80.8153 1.10227C81.7169 0.655303 82.7585 0.431818 83.9403 0.431818C84.7131 0.431818 85.4403 0.492425 86.1222 0.613638C86.3425 0.649958 86.5447 0.685117 86.7286 0.719115C87.252 0.815829 87.5674 1.32826 87.4541 1.84825L86.9338 4.23628C86.8463 4.63809 86.4263 4.88071 86.0199 4.81818V4.81818C85.732 4.77273 85.4593 4.75 85.2017 4.75C84.5502 4.75 84.1032 4.89394 83.8608 5.18182C83.6184 5.4697 83.4972 5.86364 83.4972 6.36364V23.7955C83.4972 24.3477 83.0494 24.7955 82.4972 24.7955H78.9403Z" fill="#222121"/>
<path d="M92.8977 31.3409C92.2311 31.3409 91.8295 31.4015 91.2386 31.2955C90.6928 31.2045 49.4266 32.2769 42.7931 32.3098C42.2722 32.3124 42.0166 31.9114 42.1673 31.4127L42.1785 31.3756C42.2985 30.9784 42.6513 30.6966 43.0652 30.6673L90.7386 27.2955C91.2386 27.2955 91.7992 27.2652 92.2386 27.2955C92.7386 27.2955 93.0227 27.0265 93.3409 26.8523C93.6667 26.6856 93.9167 26.3864 94.0909 25.9545L94.1627 25.7808C94.2556 25.5559 94.2633 25.3048 94.1843 25.0746L88.5565 8.66533C88.3339 8.01624 88.8162 7.34091 89.5024 7.34091H93.1459C93.6019 7.34091 94.0001 7.64939 94.1141 8.0909L97.1136 19.7073C97.127 19.7592 97.1738 19.7955 97.2274 19.7955V19.7955C97.2809 19.7955 97.3276 19.7594 97.3412 19.7077L100.384 8.08759C100.499 7.6477 100.897 7.34091 101.351 7.34091H105.03C105.717 7.34091 106.199 8.01697 105.976 8.66623L99.8523 26.4659C99.5341 27.4205 99.0833 28.2614 98.5 28.9886C97.9242 29.7235 97.178 30.2992 96.2614 30.7159C95.3523 31.1326 94.2311 31.3409 92.8977 31.3409Z" fill="#222121"/>
</svg>
