<svg width="107" height="33" viewBox="0 0 107 33" fill="none" xmlns="http://www.w3.org/2000/svg">
<path d="M1.76136 25C1.20908 25 0.761364 24.5523 0.761364 24V2.72726C0.761364 2.17497 1.20908 1.72726 1.76136 1.72726H15.6477C16.2 1.72726 16.6477 2.17497 16.6477 2.72726V5.29544C16.6477 5.84772 16.2 6.29544 15.6477 6.29544H7.38637C6.83408 6.29544 6.38636 6.74315 6.38636 7.29544V10.0682C6.38636 10.6204 6.83408 11.0682 7.38636 11.0682H14.6364C15.1886 11.0682 15.6364 11.5159 15.6364 12.0682V14.6477C15.6364 15.2 15.1886 15.6477 14.6364 15.6477H7.38636C6.83408 15.6477 6.38636 16.0954 6.38636 16.6477V24C6.38636 24.5523 5.93865 25 5.38636 25H1.76136Z" fill="white"/>
<path d="M26.358 25.3295C24.5322 25.3295 22.9564 24.9697 21.6307 24.25C20.3125 23.5227 19.2973 22.4886 18.5852 21.1477C17.8807 19.7992 17.5284 18.197 17.5284 16.3409C17.5284 14.5379 17.8845 12.9621 18.5966 11.6136C19.3087 10.2576 20.3125 9.20453 21.608 8.45453C22.9034 7.69695 24.4299 7.31817 26.1875 7.31817C27.4299 7.31817 28.5663 7.51135 29.5966 7.89771C30.6269 8.28407 31.517 8.85604 32.267 9.61362C33.017 10.3712 33.6004 11.3068 34.017 12.4204C34.4337 13.5265 34.642 14.7954 34.642 16.2273V16.6136C34.642 17.1659 34.1943 17.6136 33.642 17.6136H20.4716C19.9193 17.6136 19.4716 17.1659 19.4716 16.6136V15.3863C19.4716 14.8341 19.9193 14.3863 20.4716 14.3863H28.4587C29.016 14.3863 29.4864 13.9196 29.3139 13.3897C29.2474 13.1852 29.1598 12.9909 29.0511 12.8068C28.7784 12.3447 28.4034 11.9848 27.9261 11.7273C27.4564 11.4621 26.9148 11.3295 26.3011 11.3295C25.6799 11.3295 25.1231 11.4697 24.6307 11.75C24.1383 12.0227 23.7481 12.3977 23.4602 12.875C23.1723 13.3447 23.0208 13.8788 23.0057 14.4773V17.7613C23.0057 18.4735 23.1458 19.0985 23.4261 19.6363C23.7064 20.1667 24.1042 20.5795 24.6193 20.875C25.1345 21.1704 25.7481 21.3182 26.4602 21.3182C26.9527 21.3182 27.3996 21.25 27.8011 21.1136C28.2027 20.9773 28.5473 20.7765 28.8352 20.5113C28.9505 20.4052 29.0542 20.2893 29.1464 20.1637C29.3998 19.8185 29.7709 19.5424 30.1989 19.5548L33.418 19.648C34.0314 19.6658 34.4905 20.2313 34.2774 20.8067C34.0237 21.4917 33.6604 22.113 33.1875 22.6704C32.4754 23.5113 31.5398 24.1667 30.3807 24.6363C29.2216 25.0985 27.8807 25.3295 26.358 25.3295Z" fill="white"/>
<path d="M52.5464 11.8321C52.6885 12.3887 52.2353 12.8879 51.6611 12.9033L48.5045 12.9876C47.998 13.0012 47.5848 12.6078 47.2961 12.1914C47.2616 12.1415 47.2244 12.0929 47.1847 12.0454C46.9498 11.7576 46.643 11.5341 46.2642 11.375C45.893 11.2083 45.4612 11.125 44.9688 11.125C44.3248 11.125 43.7756 11.2538 43.321 11.5113C42.8741 11.7689 42.6544 12.1174 42.6619 12.5568C42.6544 12.8977 42.7907 13.1932 43.071 13.4432C43.3589 13.6932 43.8703 13.8939 44.6051 14.0454L47.9688 14.6818C49.7112 15.0151 51.0066 15.5682 51.8551 16.3409C52.7112 17.1136 53.143 18.1363 53.1506 19.4091C53.143 20.606 52.7869 21.6477 52.0824 22.5341C51.3854 23.4204 50.4309 24.1098 49.2188 24.6023C48.0066 25.0871 46.6203 25.3295 45.0597 25.3295C42.5672 25.3295 40.6013 24.8182 39.1619 23.7954C38.0405 22.9885 37.2955 21.9677 36.9269 20.7332C36.7584 20.1689 37.2159 19.6464 37.8047 19.6318L41.3476 19.5438C41.837 19.5316 42.2368 19.8953 42.4912 20.3135C42.6521 20.578 42.8681 20.7992 43.1392 20.9773C43.6468 21.3106 44.2945 21.4773 45.0824 21.4773C45.7945 21.4773 46.3741 21.3447 46.821 21.0795C47.268 20.8144 47.4953 20.4621 47.5028 20.0227C47.4953 19.6288 47.321 19.3144 46.9801 19.0795C46.6392 18.8371 46.1051 18.6477 45.3778 18.5113L42.3324 17.9318C40.5824 17.6136 39.2794 17.0265 38.4233 16.1704C37.5672 15.3068 37.143 14.2083 37.1506 12.875C37.143 11.7083 37.4536 10.7121 38.0824 9.88635C38.7112 9.05302 39.6051 8.41665 40.7642 7.97726C41.9233 7.53786 43.2907 7.31817 44.8665 7.31817C47.2301 7.31817 49.0937 7.81438 50.4574 8.8068C51.5336 9.58404 52.2299 10.5925 52.5464 11.8321Z" fill="white"/>
<path d="M64.7386 7.54544C65.2909 7.54544 65.7386 7.99315 65.7386 8.54544V10.6363C65.7386 11.1886 65.2909 11.6363 64.7386 11.6363H55.7273C55.175 11.6363 54.7273 11.1886 54.7273 10.6363V8.54544C54.7273 7.99315 55.175 7.54544 55.7273 7.54544H64.7386ZM57.0341 4.36362C57.0341 3.81134 57.4818 3.36362 58.0341 3.36362H61.5909C62.1432 3.36362 62.5909 3.81134 62.5909 4.36362V19.5113C62.5909 19.8523 62.6439 20.1288 62.75 20.3409C62.8636 20.5454 63.0265 20.6932 63.2386 20.7841C63.4508 20.8674 63.7045 20.9091 64 20.9091C64.2121 20.9091 64.4356 20.8901 64.6705 20.8523V20.8523C64.9695 20.7962 65.2678 20.9862 65.3302 21.284L65.8658 23.839C65.9735 24.3523 65.6654 24.8592 65.1553 24.9812C65.0836 24.9983 65.0091 25.016 64.9318 25.0341C64.4545 25.1477 63.8826 25.2197 63.2159 25.25C61.9129 25.3106 60.7955 25.1591 59.8636 24.7954C58.9394 24.4242 58.2311 23.8485 57.7386 23.0682C57.2538 22.2879 57.0189 21.3068 57.0341 20.125V4.36362Z" fill="white"/>
<path d="M69.5739 25C69.0216 25 68.5739 24.5523 68.5739 24V8.54544C68.5739 7.99316 69.0216 7.54544 69.5739 7.54544H73.1307C73.683 7.54544 74.1307 7.99315 74.1307 8.54544V24C74.1307 24.5523 73.683 25 73.1307 25H69.5739ZM71.358 5.51135C70.5776 5.51135 69.9072 5.25377 69.3466 4.73862C68.786 4.21589 68.5057 3.5871 68.5057 2.85226C68.5057 2.12498 68.786 1.50377 69.3466 0.988621C69.9072 0.465893 70.5776 0.204529 71.358 0.204529C72.1458 0.204529 72.8163 0.465893 73.3693 0.988621C73.9299 1.50377 74.2102 2.12498 74.2102 2.85226C74.2102 3.5871 73.9299 4.21589 73.3693 4.73862C72.8163 5.25377 72.1458 5.51135 71.358 5.51135Z" fill="white"/>
<path d="M86.5881 7.54544C87.1404 7.54544 87.5881 7.99315 87.5881 8.54544V10.6363C87.5881 11.1886 87.1404 11.6363 86.5881 11.6363H77.3608C76.8085 11.6363 76.3608 11.1886 76.3608 10.6363V8.54544C76.3608 7.99315 76.8085 7.54544 77.3608 7.54544H86.5881ZM79.7017 25C79.1494 25 78.7017 24.5523 78.7017 24V6.65907C78.7017 5.31059 78.9555 4.19317 79.4631 3.3068C79.9706 2.41286 80.6752 1.7462 81.5767 1.3068C82.4782 0.859832 83.5199 0.636347 84.7017 0.636347C85.4744 0.636347 86.2017 0.696953 86.8835 0.818167C87.1039 0.854487 87.306 0.889646 87.49 0.923644C88.0133 1.02036 88.3288 1.53279 88.2155 2.05278L87.6952 4.44081C87.6076 4.84262 87.1877 5.08524 86.7813 5.02271V5.02271C86.4934 4.97726 86.2206 4.95453 85.9631 4.95453C85.3116 4.95453 84.8646 5.09847 84.6222 5.38635C84.3797 5.67423 84.2585 6.06817 84.2585 6.56817V24C84.2585 24.5523 83.8108 25 83.2585 25H79.7017Z" fill="white"/>
<path d="M93.6591 31.5454C92.9924 31.5454 92.5909 31.6061 92 31.5C91.4542 31.409 50.188 32.4814 43.5545 32.5144C43.0335 32.517 42.778 32.1159 42.9287 31.6172L42.9399 31.5801C43.0599 31.1829 43.4127 30.9011 43.8266 30.8718L91.5 27.5C92 27.5 92.5606 27.4697 93 27.5C93.5 27.5 93.7841 27.231 94.1023 27.0568C94.428 26.8901 94.678 26.5909 94.8523 26.1591L94.924 25.9853C95.0169 25.7604 95.0246 25.5094 94.9457 25.2792L89.3179 8.86985C89.0953 8.22077 89.5776 7.54544 90.2638 7.54544H93.9072C94.3632 7.54544 94.7615 7.85391 94.8755 8.29543L97.875 19.9118C97.8884 19.9637 97.9352 20 97.9888 20V20C98.0423 20 98.089 19.9639 98.1025 19.9122L101.145 8.29212C101.261 7.85223 101.658 7.54544 102.113 7.54544H105.792C106.478 7.54544 106.961 8.2215 106.737 8.87075L100.614 26.6704C100.295 27.625 99.8447 28.4659 99.2614 29.1932C98.6856 29.928 97.9394 30.5038 97.0227 30.9204C96.1136 31.3371 94.9924 31.5454 93.6591 31.5454Z" fill="white"/>
</svg>
