<svg width="186" height="60" viewBox="0 0 186 60" fill="none" xmlns="http://www.w3.org/2000/svg">
<rect x="147" width="39" height="16" rx="8" fill="#ECFCCA"/>
<path d="M155.717 12V4.72727H158.501C159.027 4.72727 159.464 4.81013 159.812 4.97585C160.162 5.1392 160.424 5.36293 160.597 5.64702C160.772 5.93111 160.859 6.25308 160.859 6.61293C160.859 6.90885 160.803 7.16217 160.689 7.37287C160.575 7.5812 160.423 7.75047 160.231 7.88068C160.039 8.01089 159.825 8.1044 159.588 8.16122V8.23224C159.846 8.24645 160.094 8.32576 160.33 8.47017C160.569 8.61222 160.765 8.81345 160.916 9.07386C161.068 9.33428 161.143 9.64915 161.143 10.0185C161.143 10.3949 161.052 10.7334 160.87 11.0341C160.688 11.3324 160.413 11.5679 160.046 11.7408C159.679 11.9136 159.218 12 158.661 12H155.717ZM157.035 10.8991H158.452C158.93 10.8991 159.274 10.808 159.485 10.6257C159.698 10.4411 159.805 10.2043 159.805 9.91548C159.805 9.70005 159.751 9.50592 159.645 9.3331C159.538 9.15791 159.387 9.0206 159.19 8.92116C158.994 8.81937 158.759 8.76847 158.487 8.76847H157.035V10.8991ZM157.035 7.82031H158.338C158.565 7.82031 158.77 7.77888 158.952 7.69602C159.135 7.6108 159.278 7.49124 159.382 7.33736C159.489 7.18111 159.542 6.99645 159.542 6.78338C159.542 6.50166 159.442 6.26965 159.244 6.08736C159.047 5.90507 158.755 5.81392 158.366 5.81392H157.035V7.82031ZM164.648 12.1065C164.101 12.1065 163.628 11.9929 163.231 11.7656C162.835 11.536 162.531 11.2116 162.318 10.7926C162.105 10.3712 161.998 9.87524 161.998 9.30469C161.998 8.74361 162.105 8.25118 162.318 7.82741C162.533 7.40128 162.834 7.06984 163.22 6.8331C163.606 6.59399 164.059 6.47443 164.58 6.47443C164.916 6.47443 165.233 6.52888 165.532 6.63778C165.832 6.74432 166.098 6.91004 166.327 7.13494C166.559 7.35985 166.742 7.64631 166.874 7.99432C167.007 8.33996 167.073 8.75189 167.073 9.23011V9.62429H162.602V8.75781H165.841C165.838 8.5116 165.785 8.29261 165.681 8.10085C165.577 7.90672 165.431 7.75402 165.244 7.64276C165.059 7.53149 164.844 7.47585 164.598 7.47585C164.335 7.47585 164.104 7.53977 163.905 7.66761C163.706 7.79309 163.551 7.95881 163.44 8.16477C163.331 8.36837 163.276 8.59209 163.273 8.83594V9.59233C163.273 9.90956 163.331 10.1818 163.447 10.4091C163.563 10.634 163.725 10.8068 163.934 10.9276C164.142 11.0459 164.386 11.1051 164.665 11.1051C164.852 11.1051 165.022 11.0791 165.173 11.027C165.325 10.9725 165.456 10.8932 165.567 10.7891C165.679 10.6849 165.763 10.5559 165.819 10.402L167.02 10.5369C166.944 10.8542 166.8 11.1312 166.586 11.3679C166.376 11.6023 166.106 11.7846 165.777 11.9148C165.448 12.0426 165.071 12.1065 164.648 12.1065ZM170.884 6.54545V7.53977H167.749V6.54545H170.884ZM168.523 5.23864H169.808V10.3594C169.808 10.5322 169.834 10.6648 169.886 10.7571C169.941 10.8471 170.012 10.9086 170.099 10.9418C170.187 10.9749 170.284 10.9915 170.391 10.9915C170.471 10.9915 170.545 10.9856 170.611 10.9737C170.679 10.9619 170.732 10.9512 170.767 10.9418L170.984 11.9467C170.915 11.9704 170.817 11.9964 170.689 12.0249C170.563 12.0533 170.41 12.0698 170.227 12.0746C169.905 12.084 169.615 12.0355 169.357 11.929C169.099 11.8201 168.894 11.652 168.743 11.4247C168.594 11.1974 168.52 10.9134 168.523 10.5724V5.23864ZM173.529 12.1101C173.183 12.1101 172.872 12.0485 172.595 11.9254C172.32 11.8 172.103 11.6153 171.942 11.3714C171.783 11.1276 171.704 10.8269 171.704 10.4695C171.704 10.1617 171.76 9.9072 171.874 9.70597C171.988 9.50473 172.143 9.34375 172.339 9.22301C172.536 9.10227 172.757 9.01113 173.003 8.94957C173.252 8.88565 173.509 8.83949 173.774 8.81108C174.094 8.77794 174.353 8.74834 174.552 8.7223C174.751 8.69389 174.895 8.65128 174.985 8.59446C175.077 8.53527 175.123 8.44413 175.123 8.32102V8.29972C175.123 8.0322 175.044 7.82505 174.885 7.67827C174.727 7.53149 174.498 7.4581 174.2 7.4581C173.885 7.4581 173.635 7.52675 173.451 7.66406C173.269 7.80137 173.145 7.96354 173.081 8.15057L171.881 7.98011C171.976 7.64867 172.132 7.37169 172.35 7.14915C172.568 6.92424 172.834 6.75616 173.149 6.64489C173.464 6.53125 173.812 6.47443 174.193 6.47443C174.456 6.47443 174.717 6.50521 174.978 6.56676C175.238 6.62831 175.476 6.73011 175.692 6.87216C175.907 7.01184 176.08 7.20241 176.21 7.44389C176.343 7.68537 176.409 7.98722 176.409 8.34943V12H175.173V11.2507H175.131C175.052 11.4022 174.942 11.5443 174.8 11.6768C174.661 11.8071 174.484 11.9124 174.271 11.9929C174.06 12.071 173.813 12.1101 173.529 12.1101ZM173.863 11.1655C174.121 11.1655 174.345 11.1146 174.534 11.0128C174.723 10.9086 174.869 10.7713 174.971 10.6009C175.075 10.4304 175.127 10.2446 175.127 10.0433V9.40057C175.087 9.43371 175.018 9.46449 174.921 9.4929C174.826 9.52131 174.72 9.54616 174.601 9.56747C174.483 9.58878 174.366 9.60772 174.25 9.62429C174.134 9.64086 174.033 9.65507 173.948 9.6669C173.756 9.69294 173.585 9.73556 173.433 9.79474C173.282 9.85393 173.162 9.93679 173.074 10.0433C172.987 10.1475 172.943 10.2824 172.943 10.4482C172.943 10.6849 173.029 10.8636 173.202 10.9844C173.375 11.1051 173.595 11.1655 173.863 11.1655Z" fill="#497D00"/>
<path d="M170.352 59.3524C168.682 59.3524 167.199 59.074 165.903 58.5172C164.619 57.949 163.602 57.0967 162.852 55.9603C162.114 54.8126 161.744 53.3751 161.744 51.6478C161.744 50.1933 162 48.966 162.511 47.966C163.023 46.966 163.727 46.1535 164.625 45.5285C165.523 44.9035 166.557 44.4319 167.727 44.1137C168.898 43.7842 170.148 43.5626 171.477 43.449C172.966 43.3126 174.165 43.1706 175.074 43.0228C175.983 42.8637 176.642 42.6422 177.051 42.3581C177.472 42.0626 177.682 41.6478 177.682 41.1137V41.0285C177.682 40.1535 177.381 39.4774 176.778 39.0001C176.176 38.5228 175.364 38.2842 174.341 38.2842C173.239 38.2842 172.352 38.5228 171.682 39.0001C171.476 39.1469 171.293 39.3109 171.133 39.492C170.492 40.2179 169.699 40.9524 168.731 40.9181L164.94 40.7835C163.752 40.7414 162.842 39.6627 163.28 38.5576C163.578 37.8057 163.975 37.1009 164.472 36.4433C165.426 35.1819 166.733 34.1933 168.392 33.4774C170.062 32.7501 172.068 32.3865 174.409 32.3865C176.08 32.3865 177.619 32.5853 179.028 32.9831C180.438 33.3694 181.665 33.9376 182.71 34.6876C183.756 35.4262 184.562 36.3353 185.131 37.4149C185.71 38.4944 186 39.7274 186 41.1137V56.9092C186 58.0138 185.105 58.9092 184 58.9092H179.983C178.976 58.9092 178.159 58.0926 178.159 57.0853V55.389C178.159 55.3186 178.102 55.2615 178.032 55.2615V55.2615C177.984 55.2615 177.941 55.2878 177.918 55.3295C177.458 56.1863 176.873 56.9136 176.165 57.5115C175.449 58.1251 174.602 58.5853 173.625 58.8922C172.659 59.199 171.568 59.3524 170.352 59.3524ZM172.926 53.8978C173.824 53.8978 174.631 53.716 175.347 53.3524C176.074 52.9887 176.653 52.4887 177.085 51.8524C177.517 51.2047 177.733 50.4547 177.733 49.6024V48.0489C177.733 47.6236 177.271 47.3324 176.864 47.4547V47.4547C176.534 47.5569 176.17 47.6535 175.773 47.7444C175.375 47.8353 174.966 47.9149 174.545 47.9831C174.125 48.0512 173.722 48.1137 173.335 48.1706C172.551 48.2956 171.881 48.4887 171.324 48.7501C170.778 49.0115 170.358 49.3524 170.062 49.7728C169.778 50.1819 169.636 50.6706 169.636 51.2387C169.636 52.1024 169.943 52.7615 170.557 53.216C171.182 53.6706 171.972 53.8978 172.926 53.8978Z" fill="#0D1117"/>
<path d="M132.766 26.9627C132.034 25.6298 132.999 24 134.519 24H139.335C140.09 24 140.78 24.4246 141.12 25.0981L147.877 38.471C147.919 38.555 148.005 38.608 148.099 38.608V38.608C148.194 38.608 148.28 38.555 148.322 38.471L155.079 25.0981C155.419 24.4246 156.109 24 156.864 24H161.68C163.2 24 164.165 25.6298 163.433 26.9627L152.54 46.8003C152.378 47.0953 152.293 47.4264 152.293 47.763V56.9091C152.293 58.0137 151.397 58.9091 150.293 58.9091H145.906C144.802 58.9091 143.906 58.0137 143.906 56.9091V47.763C143.906 47.4264 143.821 47.0953 143.659 46.8003L132.766 26.9627Z" fill="#0D1117"/>
<path d="M121.474 59.4035C118.724 59.4035 116.361 58.841 114.384 57.716C112.418 56.5797 110.901 55.0001 109.832 52.9774C108.776 50.9433 108.247 48.5853 108.247 45.9035C108.247 43.2103 108.776 40.8524 109.832 38.8297C110.901 36.7956 112.418 35.216 114.384 34.091C116.361 32.9547 118.724 32.3865 121.474 32.3865C124.224 32.3865 126.582 32.9547 128.548 34.091C130.526 35.216 132.043 36.7956 133.099 38.8297C134.168 40.8524 134.702 43.2103 134.702 45.9035C134.702 48.5853 134.168 50.9433 133.099 52.9774C132.043 55.0001 130.526 56.5797 128.548 57.716C126.582 58.841 124.224 59.4035 121.474 59.4035ZM121.526 53.1137C122.526 53.1137 123.372 52.8069 124.065 52.1933C124.759 51.5797 125.287 50.7274 125.651 49.6365C126.026 48.5456 126.213 47.2842 126.213 45.8524C126.213 44.3978 126.026 43.1251 125.651 42.0342C125.287 40.9433 124.759 40.091 124.065 39.4774C123.372 38.8637 122.526 38.5569 121.526 38.5569C120.491 38.5569 119.616 38.8637 118.901 39.4774C118.196 40.091 117.656 40.9433 117.281 42.0342C116.918 43.1251 116.736 44.3978 116.736 45.8524C116.736 47.2842 116.918 48.5456 117.281 49.6365C117.656 50.7274 118.196 51.5797 118.901 52.1933C119.616 52.8069 120.491 53.1137 121.526 53.1137Z" fill="#0D1117"/>
<path d="M66.8153 58.9092C65.7108 58.9092 64.8153 58.0138 64.8153 56.9092V34.7274C64.8153 33.6228 65.7108 32.7274 66.8153 32.7274H70.7415C71.846 32.7274 72.7415 33.6228 72.7415 34.7274V37.3652C72.7415 37.4585 72.8172 37.5342 72.9105 37.5342V37.5342C72.9827 37.5342 73.0469 37.4882 73.0712 37.4202C73.6211 35.8832 74.5283 34.6655 75.7926 33.7672C77.0881 32.8467 78.6335 32.3865 80.429 32.3865C82.2472 32.3865 83.804 32.8524 85.0994 33.7842C86.3565 34.6884 87.1695 35.8923 87.5385 37.3957C87.5583 37.4765 87.6301 37.5342 87.7133 37.5342V37.5342C87.7909 37.5342 87.8594 37.4837 87.8839 37.41C88.3838 35.9111 89.3249 34.7082 90.7074 33.8012C92.1278 32.8581 93.804 32.3865 95.7358 32.3865C98.2131 32.3865 100.224 33.1819 101.77 34.7728C103.315 36.3524 104.088 38.5228 104.088 41.2842V56.9092C104.088 58.0138 103.193 58.9092 102.088 58.9092H97.7528C96.6483 58.9092 95.7528 58.0138 95.7528 56.9092V43.1933C95.7528 41.8865 95.4176 40.8922 94.7472 40.2103C94.0767 39.5172 93.2074 39.1706 92.1392 39.1706C90.9915 39.1706 90.0881 39.5456 89.429 40.2956C88.7812 41.0342 88.4574 42.0285 88.4574 43.2785V56.9092C88.4574 58.0138 87.562 58.9092 86.4574 58.9092H82.446C81.3415 58.9092 80.446 58.0138 80.446 56.9092V43.1081C80.446 41.8922 80.1165 40.9319 79.4574 40.2274C78.7983 39.5228 77.929 39.1706 76.8494 39.1706C76.1222 39.1706 75.4801 39.3467 74.9233 39.699C74.3665 40.0399 73.929 40.5285 73.6108 41.1649C73.304 41.8012 73.1506 42.5512 73.1506 43.4149V56.9092C73.1506 58.0138 72.2551 58.9092 71.1506 58.9092H66.8153Z" fill="#0D1117"/>
<path d="M44.071 59.3524C42.4006 59.3524 40.9176 59.074 39.6222 58.5172C38.3381 57.949 37.321 57.0967 36.571 55.9603C35.8324 54.8126 35.4631 53.3751 35.4631 51.6478C35.4631 50.1933 35.7187 48.966 36.2301 47.966C36.7415 46.966 37.446 46.1535 38.3437 45.5285C39.2415 44.9035 40.2756 44.4319 41.446 44.1137C42.6165 43.7842 43.8665 43.5626 45.196 43.449C46.6847 43.3126 47.8835 43.1706 48.7926 43.0228C49.7017 42.8637 50.3608 42.6422 50.7699 42.3581C51.1903 42.0626 51.4006 41.6478 51.4006 41.1137V41.0285C51.4006 40.1535 51.0994 39.4774 50.4972 39.0001C49.8949 38.5228 49.0824 38.2842 48.0597 38.2842C46.9574 38.2842 46.071 38.5228 45.4006 39.0001C45.1944 39.1469 45.0113 39.3109 44.8513 39.492C44.2104 40.2179 43.4178 40.9524 42.45 40.9181L38.6583 40.7835C37.4704 40.7414 36.561 39.6627 36.999 38.5576C37.297 37.8057 37.6941 37.1009 38.1903 36.4433C39.1449 35.1819 40.4517 34.1933 42.1108 33.4774C43.7812 32.7501 45.7869 32.3865 48.1278 32.3865C49.7983 32.3865 51.3381 32.5853 52.7472 32.9831C54.1562 33.3694 55.3835 33.9376 56.429 34.6876C57.4744 35.4262 58.2812 36.3353 58.8494 37.4149C59.429 38.4944 59.7187 39.7274 59.7187 41.1137V56.9092C59.7187 58.0138 58.8233 58.9092 57.7187 58.9092H53.7017C52.6944 58.9092 51.8778 58.0926 51.8778 57.0853V55.389C51.8778 55.3186 51.8207 55.2615 51.7503 55.2615V55.2615C51.7029 55.2615 51.6595 55.2878 51.6371 55.3295C51.1766 56.1863 50.5921 56.9136 49.8835 57.5115C49.1676 58.1251 48.321 58.5853 47.3437 58.8922C46.3778 59.199 45.2869 59.3524 44.071 59.3524ZM46.6449 53.8978C47.5426 53.8978 48.3494 53.716 49.0653 53.3524C49.7926 52.9887 50.3722 52.4887 50.804 51.8524C51.2358 51.2047 51.4517 50.4547 51.4517 49.6024V48.0489C51.4517 47.6236 50.9898 47.3324 50.5824 47.4547V47.4547C50.2528 47.5569 49.8892 47.6535 49.4915 47.7444C49.0937 47.8353 48.6846 47.9149 48.2642 47.9831C47.8437 48.0512 47.4403 48.1137 47.054 48.1706C46.2699 48.2956 45.5994 48.4887 45.0426 48.7501C44.4972 49.0115 44.0767 49.3524 43.7812 49.7728C43.4972 50.1819 43.3551 50.6706 43.3551 51.2387C43.3551 52.1024 43.6619 52.7615 44.2756 53.216C44.9006 53.6706 45.6903 53.8978 46.6449 53.8978Z" fill="#0D1117"/>
<path d="M9.15162 24C10.0312 24 10.8076 24.5747 11.0644 25.416L18.3966 49.4296C18.4217 49.5119 18.4977 49.5682 18.5838 49.5682V49.5682C18.6699 49.5682 18.7459 49.5119 18.771 49.4296L26.1032 25.416C26.36 24.5747 27.1364 24 28.016 24H33.1931C34.5613 24 35.5256 25.343 35.0882 26.6394L24.6594 57.5485C24.385 58.3616 23.6225 58.9091 22.7643 58.9091H14.4033C13.5451 58.9091 12.7826 58.3616 12.5083 57.5485L2.07946 26.6394C1.64205 25.343 2.6063 24 3.9745 24H9.15162Z" fill="#0D1117"/>
</svg>
