<svg width="154" height="154" viewBox="0 0 154 154" fill="none" xmlns="http://www.w3.org/2000/svg">
<path d="M27.3846 103.29C28.2658 100.455 28.6822 97.4967 28.6175 94.5291C28.5256 92.6529 28.5333 90.7767 28.3878 88.9005C28.2089 86.6249 28.3533 84.3354 28.8166 82.1003C29.0722 80.7418 29.0514 79.3458 28.7554 77.9956C28.5409 76.9312 28.8549 75.6064 28.0891 74.7793C27.8805 74.547 27.7429 74.2598 27.6927 73.9517C27.6424 73.6435 27.6817 73.3274 27.8058 73.041C28.546 70.0595 29.2506 67.0729 29.9194 64.0812C30.0725 63.3767 30.6009 62.8253 30.6009 62.0672C30.6009 61.7379 30.9532 61.8298 31.1753 61.8144C31.3606 61.7897 31.5487 61.8337 31.7038 61.9381C31.859 62.0425 31.9706 62.2001 32.0176 62.3811C33.5492 66.8687 34.3839 68.6606 34.8204 71.2413C34.9232 71.7216 34.9115 72.2192 34.7865 72.6941C34.6615 73.169 34.4265 73.6079 34.1006 73.9752C33.7701 74.3585 33.5363 74.8154 33.419 75.3077C33.0055 76.9388 32.2474 78.501 32.4771 80.27C32.5307 80.6836 32.2091 80.9899 31.9181 81.2809C31.5742 81.6537 31.3923 82.1478 31.4124 82.6547C31.4325 83.1615 31.653 83.6397 32.0253 83.9841C32.2167 84.1526 32.278 83.9841 32.4082 83.9075C33.0361 83.5553 33.442 83.6855 33.5875 84.3747C34.047 86.5265 34.4682 88.6784 34.8893 90.8303C35.3795 93.3268 35.1803 95.8539 35.2033 98.3733C35.2033 99.2464 35.6092 99.5297 36.4516 99.2999C37.0503 99.0809 37.6251 98.8012 38.1669 98.4652C39.0485 97.9998 40.0303 97.7566 41.0272 97.7566C42.024 97.7566 43.0058 97.9998 43.8874 98.4652C44.3239 98.6995 44.6935 99.0411 44.9615 99.4578C45.2294 99.8745 45.3869 100.353 45.419 100.847C45.6236 102.803 45.3285 104.779 44.5613 106.59C44.1095 107.793 43.382 108.926 43.4968 110.297C43.6017 111.995 44.1596 113.635 45.1127 115.045C46.4614 116.922 47.6257 118.925 48.5894 121.025C49.2118 122.445 49.4035 124.016 49.1407 125.544C49.0488 126.064 49.0795 126.6 49.0182 127.129C48.6659 130.031 46.7208 131.54 44.2014 132.489C41.7891 133.29 39.2993 133.834 36.7732 134.113C35.1038 134.343 31.7113 135.07 29.077 134.197C24.6124 132.666 23.1038 132.727 20.6533 129.411C18.8827 127.022 18.0367 124.074 18.2717 121.11C18.3598 120.179 18.6985 119.29 19.2519 118.537C20.9957 115.991 21.7725 112.905 21.442 109.837C21.2506 107.624 20.2857 104.4 20.5231 101.337C20.6763 99.3765 23.0885 97.2553 25.1944 97.2553C25.7178 97.2946 26.243 97.208 26.726 97.0026C27.3004 96.7039 27.8287 97.3089 27.6679 98.113C27.4535 99.1544 27.331 100.204 27.1625 101.245C26.7949 103.542 26.7949 105.342 28.9009 105.22C30.509 105.128 32.1172 104.959 33.7024 104.714C34.065 104.72 34.418 104.597 34.6985 104.367C34.979 104.137 35.1687 103.815 35.2339 103.458C33.3424 104.553 31.405 104.538 29.4369 104.415C28.6711 104.369 27.8594 104.415 27.3846 103.65C27.3922 103.496 27.3846 103.382 27.3846 103.29ZM29.904 106.483C29.2864 106.477 28.6781 106.634 28.1403 106.938C27.6026 107.241 27.1544 107.682 26.8409 108.214C26.1746 109.309 26.5728 110.381 27.2161 111.407C28.9774 114.218 30.4554 114.011 33.4956 113.054C33.7065 112.967 33.8876 112.821 34.0169 112.634C34.1461 112.446 34.2177 112.225 34.2231 111.997C34.4452 110.626 34.4835 109.401 33.4573 108.168C32.0712 106.552 31.3514 106.445 29.904 106.483ZM29.6437 122.771C28.8779 122.618 28.1121 123.108 27.3463 123.384C26.5805 123.66 26.5805 124.441 27.2391 124.916C27.5444 125.076 27.8723 125.19 28.2116 125.253C28.449 125.337 28.74 125.345 28.8396 125.666C29.2991 127.198 32.1095 127.55 33.0285 126.516C33.1471 126.333 33.3303 126.202 33.5416 126.149C34.5327 125.943 35.4226 125.402 36.061 124.617C36.1937 124.508 36.3035 124.374 36.3842 124.223C36.4649 124.071 36.5149 123.906 36.5312 123.735C36.5476 123.564 36.5301 123.392 36.4796 123.228C36.4291 123.064 36.3467 122.911 36.2371 122.779C35.9665 122.503 35.6077 122.33 35.223 122.291C34.8382 122.252 34.4519 122.349 34.1312 122.565C32.9289 123.629 31.65 122.733 29.6437 122.771Z" fill="#FADF8F"/>
<path d="M97.952 54.9453C97.9119 58.9507 96.6391 62.8465 94.3068 66.1029C93.8473 66.7768 93.4491 67.5043 93.0279 68.2088C92.5519 68.9942 92.2629 69.8785 92.1832 70.7934C92.1035 71.7084 92.2353 72.6293 92.5684 73.4852C93.6619 77.1085 94.4307 80.8219 94.8658 84.5815C95.4478 88.4794 95.6929 89.337 96.2825 94.5368C96.302 94.9894 96.1671 95.4353 95.9 95.8012C95.6328 96.1671 95.2493 96.4314 94.8122 96.5508C93.592 96.8098 92.333 96.828 91.1058 96.6044C86.2813 95.6242 84.1218 97.4238 83.9916 94.3836C83.915 92.607 84.6502 90.6772 84.206 84.8955C84.1141 83.6625 84.0988 82.4066 83.9686 81.1814C83.5244 76.9006 83.5474 72.5739 82.6285 68.3467C82.3155 67.123 82.0852 65.8796 81.9393 64.6249C81.9393 64.2497 81.1735 64.0812 81.6636 63.6218C81.9699 63.3384 82.4294 63.3997 82.7816 63.2389C86.3502 61.7073 89.13 59.4099 90.4932 55.6805C90.8736 54.4903 90.9474 53.2233 90.7076 51.997C90.3706 49.6997 90.2481 47.3104 89.4517 45.1049C88.0886 41.2224 87.3075 41.3296 86.7408 37.9984C86.6742 37.7797 86.6744 37.5461 86.7413 37.3275C86.8083 37.1089 86.9389 36.9152 87.1166 36.7713C87.2942 36.6274 87.5107 36.5397 87.7385 36.5196C87.9662 36.4995 88.1947 36.5477 88.3949 36.6582C89.7554 37.2691 90.9327 38.2247 91.8103 39.4304C94.5978 43.4278 97.7299 45.2964 97.952 54.9453Z" fill="#FADF8F"/>
<path d="M67.7188 76.1731C67.7188 73.5388 66.593 71.295 65.4214 69.0666C64.4105 67.1061 64.4412 66.0034 66.0034 64.288C66.4686 63.8509 66.7436 63.2487 66.7692 62.6109C66.7692 60.8726 66.4399 60.4054 64.7781 59.8388C63.8976 59.5414 62.9735 59.3938 62.0442 59.4023C61.6459 59.3827 61.2482 59.4507 60.879 59.6015C60.5099 59.7523 60.1783 59.9823 59.9077 60.2753C59.4023 60.8343 59.004 60.7424 58.7667 60.0302C57.6727 57.1492 57.1524 54.0821 57.2351 51.0015C57.4801 47.05 59.7315 42.2868 61.8298 39.0092C62.3527 38.2646 62.9313 37.5606 63.5605 36.9033C64.0612 36.4472 64.4358 35.8695 64.6479 35.2262C64.7475 34.7974 65.1457 34.514 65.5363 34.9659C66.7156 36.3366 68.5994 37.1024 67.9408 38.7948C67.2823 40.4872 63.7673 45.2351 62.7947 51.1087C62.7052 51.6491 62.7601 52.2035 62.9537 52.7159C63.1474 53.2282 63.4729 53.6803 63.8975 54.0264C65.7124 55.6958 65.7354 54.417 69.6868 58.3072C70.5292 59.1342 71.6013 59.655 72.4131 60.505C73.4911 61.5913 74.1013 63.0563 74.1131 64.5867V90.6236C74.1131 92.7678 73.8604 94.912 73.8298 97.0562C73.8298 97.6918 73.4622 97.9063 72.7883 97.6765C66.3403 95.5476 64.8241 96.9107 64.7092 94.7359C64.6173 92.9363 65.1534 91.2286 65.429 89.4749C66.0493 85.554 67.1521 81.7251 67.7264 77.7966C67.7598 77.2558 67.7572 76.7135 67.7188 76.1731Z" fill="#FADF8F"/>
<path d="M19.9945 46.4832C19.2977 46.5904 18.9837 46.2611 18.8382 45.6484C18.0872 42.7855 17.4916 39.884 17.0539 36.9567C16.8344 35.0933 16.5612 33.2401 16.2345 31.3971C16.0737 30.4551 16.2345 30.2637 17.1994 30.0493C17.4599 30.0055 17.708 29.9062 17.9269 29.7583C18.8459 29.0537 19.9409 29.6357 20.3698 30.7002C21.3883 33.2043 22.4834 35.6778 23.5325 38.1667C24.255 39.9078 25.2531 41.5213 26.4885 42.9452C26.6397 43.0701 26.7504 43.2371 26.8063 43.4251C26.8623 43.6131 26.8611 43.8135 26.8027 44.0007C26.7444 44.188 26.6317 44.3537 26.4789 44.4766C26.3261 44.5996 26.1401 44.6743 25.9447 44.6912C24.2075 45.0598 22.5135 45.609 20.8905 46.33C20.6127 46.4657 20.3017 46.5189 19.9945 46.4832Z" fill="#FADF8F"/>
<path d="M140.66 115.573C140.721 116.951 139.443 116.431 138.003 116.997C137.643 117.135 137.505 116.844 137.344 116.576C134.327 111.484 132.168 106.177 130.667 103.749C130.429 103.366 130.429 103.205 130.866 102.983C132.394 102.137 133.987 101.412 135.629 100.816C135.794 100.738 135.976 100.699 136.159 100.703C136.342 100.707 136.522 100.753 136.684 100.839C136.846 100.924 136.986 101.046 137.092 101.195C137.199 101.344 137.27 101.516 137.298 101.697C137.926 104.645 138.416 107.624 139.251 110.519C139.594 112.071 140.016 113.604 140.515 115.113C140.591 115.282 140.63 115.489 140.66 115.573Z" fill="#FADF8F"/>
<path d="M59.9614 13.4777C59.1956 13.4777 58.537 13.1024 57.7712 13.1254C57.0054 13.1484 56.5306 13.3015 56.2932 14.1133C56.0295 14.9767 55.6563 15.8028 55.1828 16.5715C54.9531 16.962 54.6621 17.2836 54.1873 17.2377C53.7125 17.1918 53.4904 16.7093 53.4215 16.2575C53.2913 15.4228 53.1688 14.5881 53.0846 13.7457C53.0309 13.1943 52.8012 13.0795 52.3188 13.2096C51.5197 13.4294 50.6673 13.342 49.9295 12.9646C49.7642 12.9095 49.6167 12.811 49.5025 12.6795C49.3883 12.5479 49.3115 12.388 49.2802 12.2167C49.2489 12.0453 49.2642 11.8686 49.3246 11.7052C49.3849 11.5417 49.488 11.3975 49.6232 11.2875C49.6652 11.2531 49.7037 11.2147 49.738 11.1726C50.2281 10.4834 51.5606 10.0929 51.3922 9.41897C51.1777 8.55362 51.3079 7.70359 51.1165 6.86122C51.0138 6.17961 50.9881 5.4886 51.0399 4.80124C51.0399 4.41835 51.1394 4.03545 51.5759 3.92824C51.7845 3.87121 52.0066 3.89085 52.2019 3.98359C52.3972 4.07632 52.5528 4.23601 52.6404 4.43366C52.9454 5.02109 53.3646 5.54177 53.8733 5.96525C54.1477 6.20488 54.4871 6.35756 54.8484 6.40392C55.2097 6.45028 55.5767 6.38822 55.9027 6.22562C56.8532 5.8165 57.8404 5.49855 58.851 5.27603C59.0393 5.21467 59.2419 5.21182 59.4319 5.26787C59.6219 5.32392 59.7905 5.43624 59.9154 5.59001C60.2217 5.94993 60.0226 6.3022 59.8159 6.61617C59.4866 7.12159 59.119 7.6117 58.7591 8.10181C58.6791 8.18905 58.6173 8.29127 58.5771 8.40256C58.5369 8.51384 58.5191 8.63199 58.5248 8.75018C58.5305 8.86837 58.5595 8.98426 58.6103 9.09116C58.661 9.19807 58.7324 9.29386 58.8203 9.37302C59.5477 10.2155 60.2107 11.1114 60.8037 12.0533C61.3015 13.0182 60.9875 13.493 59.9614 13.4777Z" fill="#FADF8F"/>
<path d="M88.3186 47.3793C88.3528 47.8911 88.3271 48.4051 88.242 48.9109C88.1068 49.5348 87.7496 50.0883 87.2369 50.4686C86.7242 50.849 86.0908 51.0302 85.4546 50.9785C84.9185 50.9785 84.6888 50.5957 84.6888 50.0673V48.4744C84.6888 47.946 84.3595 47.632 83.7851 47.8005C82.1693 48.2676 80.5994 47.3564 77.7124 46.8969C76.406 46.6279 75.2029 45.9931 74.2434 45.0666C73.8988 44.768 73.6001 44.4234 73.2861 44.1017C72.237 43.0449 71.8235 43.0526 70.782 44.1017C69.1815 45.6333 67.5044 46.6135 68.0405 48.6505C68.1988 49.1937 68.1553 49.7758 67.9179 50.2893C67.8376 50.5455 67.6877 50.7742 67.4848 50.95C67.2819 51.1258 67.0342 51.2418 66.7692 51.2849C66.4776 51.3036 66.1864 51.2422 65.9272 51.1072C65.668 50.9722 65.4507 50.7688 65.2989 50.5191C64.9529 49.9291 64.7796 49.2538 64.7985 48.5701C64.8175 47.8864 65.028 47.2218 65.4061 46.6518C66.5625 44.745 67.9639 43.0067 69.0743 41.0692C69.7672 39.9077 70.8251 39.0081 72.0829 38.5108C73.3407 38.0135 74.7277 37.9464 76.0277 38.32C76.9313 38.5421 77.8502 38.6493 78.7539 38.8408C81.1738 39.3538 83.1342 40.8012 85.1865 42.0647C85.8844 42.498 86.5034 43.047 87.0168 43.6882C87.4683 44.186 87.816 44.7689 88.0395 45.4026C88.263 46.0364 88.3579 46.7084 88.3186 47.3793Z" fill="#F4B77D"/>
<path d="M40.1349 36.4746C40.1646 36.8241 40.0544 37.1711 39.8286 37.4395C38.6484 38.8727 37.3272 40.1837 35.8848 41.3527C35.387 41.8045 34.8739 41.7586 34.2919 41.2149C31.4891 38.5882 29.2683 35.4714 26.9327 32.4465C25.7346 30.996 24.666 29.4432 23.7393 27.8058C23.4024 27.1626 23.6091 26.5346 24.4285 25.7535C24.6188 25.5377 24.8867 25.4061 25.1738 25.3874C25.4608 25.3688 25.7436 25.4646 25.9601 25.654C29.4445 28.2577 33.2045 30.4708 36.6276 33.1511C37.4732 33.8767 38.3803 34.5275 39.3385 35.0962C39.599 35.2135 39.816 35.4097 39.9589 35.657C40.1018 35.9044 40.1634 36.1904 40.1349 36.4746Z" fill="#F4B77D"/>
<path d="M128.078 126.646C127.909 127.552 127.612 128.428 127.198 129.25C127.173 129.32 127.131 129.383 127.076 129.432C127.021 129.482 126.955 129.518 126.883 129.536C126.811 129.554 126.736 129.554 126.664 129.537C126.592 129.519 126.525 129.484 126.47 129.434C124.74 128.232 122.695 127.78 120.788 126.991C118.45 125.919 116.172 124.72 113.965 123.4C113.838 123.303 113.699 123.224 113.551 123.162C112.257 122.879 112.211 122.121 112.786 120.934C113.702 119.019 114.818 117.207 116.117 115.527C116.546 114.961 117.036 114.961 117.518 115.527C119.471 117.825 121.853 119.739 123.859 122.006C124.667 122.917 125.528 123.779 126.44 124.587C126.746 124.915 127.106 125.19 127.504 125.398C127.956 125.59 128.063 126.064 128.078 126.646Z" fill="#F4B77D"/>
<path d="M110.527 129.419C110.871 130.95 109.439 131.754 110.764 132.681C111.481 133.137 112.115 133.712 112.64 134.381C112.855 134.68 113.161 134.963 112.923 135.376C112.821 135.568 112.654 135.717 112.453 135.799C112.251 135.88 112.027 135.888 111.821 135.821C110.799 135.675 109.759 135.727 108.758 135.974C108.221 136.035 108.068 136.28 108.114 136.74C108.218 137.685 108.156 138.641 107.93 139.565C107.816 139.986 107.67 140.385 107.165 140.454C106.659 140.523 106.353 140.209 106.131 139.772C105.817 139.159 105.465 138.562 105.143 137.957C104.821 137.352 104.377 137.069 103.726 137.398C103.409 137.54 103.062 137.603 102.715 137.582C102.528 137.605 102.337 137.574 102.167 137.491C101.998 137.408 101.856 137.277 101.759 137.114C101.662 136.952 101.615 136.764 101.623 136.575C101.631 136.387 101.694 136.204 101.804 136.05C101.99 135.64 102.219 135.25 102.486 134.886C102.839 134.457 103.057 133.933 103.113 133.379C103.169 132.826 103.06 132.269 102.8 131.777C102.581 131.209 102.404 130.625 102.271 130.031C102.179 129.641 102.126 129.212 102.532 128.944C102.71 128.822 102.923 128.764 103.138 128.777C103.353 128.791 103.558 128.877 103.719 129.02C104.459 129.581 105.31 129.978 106.215 130.184C106.401 130.249 106.603 130.256 106.793 130.204C106.983 130.152 107.152 130.044 107.28 129.893C107.787 129.386 108.344 128.929 108.941 128.53C109.282 128.32 109.692 128.251 110.082 128.339C110.473 128.4 110.473 128.454 110.527 129.419Z" fill="#F4B77D"/>
<path d="M15.2694 56.8139C14.9018 57.9472 15.5221 58.7743 16.709 59.364C17.1127 59.6156 17.4853 59.9138 17.8194 60.2523C17.9456 60.3533 18.0391 60.4893 18.0881 60.6433C18.1372 60.7972 18.1396 60.9623 18.0951 61.1176C18.0109 61.4546 17.7122 61.5311 17.4289 61.6077H17.1073C16.4837 61.7299 15.8715 61.9041 15.277 62.1285C14.5112 62.4731 15.0626 63.2235 14.9018 63.7673C14.5495 64.9849 14.7103 65.8885 13.799 66.0646C13.2783 66.1565 13.0715 65.7507 12.8341 65.3831C12.413 64.7168 11.9458 64.0659 11.5476 63.3767C11.2719 62.9096 10.9733 62.787 10.5291 63.124C10.1028 63.3996 9.62674 63.5895 9.12771 63.683C8.10921 63.9587 7.44297 63.369 7.65739 62.3199C8.11687 60.0991 8.80608 59.7851 8.31597 58.9274C7.85999 58.0606 7.49309 57.1498 7.22089 56.2089C7.17048 56.003 7.13971 55.7927 7.129 55.5809C7.04268 55.4093 7.02807 55.2104 7.08839 55.0281C7.14871 54.8457 7.27901 54.6947 7.45063 54.6084C7.62225 54.5221 7.82113 54.5075 8.00352 54.5678C8.18591 54.6281 8.33687 54.7584 8.42318 54.93C9.09489 55.5406 9.84729 56.0559 10.6593 56.4616C10.7919 56.561 10.9531 56.6148 11.1188 56.6148C11.2845 56.6148 11.4457 56.561 11.5782 56.4616C12.3976 55.9026 13.0179 55.1368 13.7837 54.6467C14.1207 54.4323 14.45 54.1719 14.8788 54.4016C15.3077 54.6314 15.254 55.0066 15.2464 55.3818L15.2694 56.8139Z" fill="#F4B77D"/>
<path d="M84.2368 144.88C84.367 143.486 84.5355 141.717 84.681 139.956C84.7047 139.742 84.7976 139.542 84.9455 139.386C85.0934 139.23 85.2882 139.126 85.5004 139.091C85.7337 139.033 85.9784 139.04 86.2079 139.112C86.4374 139.183 86.6429 139.316 86.8022 139.496C87.1274 139.854 87.3265 140.309 87.3689 140.791C87.4012 141.147 87.5303 141.488 87.7421 141.777C87.954 142.066 88.2406 142.292 88.5712 142.429C90.1028 143.111 91.397 144.497 93.8016 146.557C94.1079 146.817 94.3529 147.124 94.1768 147.507C94.0007 147.89 93.6637 147.92 93.2349 147.867C90.8839 147.553 88.5482 147.047 86.1436 147.147C84.6733 147.208 84.2368 146.664 84.2368 144.88Z" fill="#F4B77D"/>
<path d="M79.083 145.983C79.083 147.514 78.8073 147.683 77.5514 147.514C75.4322 147.182 73.27 147.242 71.1724 147.69C70.78 147.753 70.3828 147.781 69.9854 147.775C69.826 147.804 69.6616 147.769 69.5281 147.677C69.3947 147.585 69.303 147.444 69.2732 147.285C69.2351 147.129 69.2553 146.966 69.3302 146.824C69.405 146.683 69.5292 146.574 69.6791 146.519C70.1462 146.266 72.7423 144.987 73.5081 144.658C73.8093 144.547 74.0749 144.357 74.2771 144.107C74.4793 143.858 74.6104 143.559 74.6567 143.241C74.8023 142.457 74.8023 141.652 74.6567 140.867C74.4883 139.979 74.695 139.152 75.2387 138.907C75.6907 138.742 76.1837 138.728 76.6445 138.866C77.1052 139.004 77.5092 139.287 77.7965 139.673C78.2323 140.551 78.4924 141.505 78.5623 142.483C78.8763 143.739 78.9758 145.033 79.083 145.983Z" fill="#F4B77D"/>
<path d="M88.173 17.1306C88.5674 17.0688 88.9711 17.1388 89.3217 17.3297C89.6203 17.5518 89.8041 17.3297 90.0262 17.1918C90.342 16.9705 90.7017 16.8197 91.0809 16.7496C91.4602 16.6796 91.85 16.692 92.224 16.786C93.6867 17.2378 94.4448 19.7343 92.6299 21.5262C92.0479 22.1082 91.4736 22.7055 90.8609 23.2569C90.2483 23.8083 89.8807 23.7623 89.4442 23.0195C89.2834 22.7438 89.0077 22.6443 88.778 22.4758C85.9828 20.3316 85.1941 17.1229 88.173 17.1306Z" fill="#F4B77D"/>
<path d="M72.5354 54.4859C72.7192 55.313 71.984 55.8797 71.0727 56.0175C70.3529 56.1017 69.4799 55.1062 69.5411 54.3098C69.5641 52.2575 72.543 52.0737 72.5354 54.4859Z" fill="#F4B77D"/>
<path d="M83.5399 54.6009C83.5654 54.787 83.5491 54.9765 83.4922 55.1555C83.4352 55.3345 83.339 55.4986 83.2106 55.6358C83.0823 55.773 82.9249 55.8798 82.7501 55.9485C82.5752 56.0172 82.3872 56.046 82.1998 56.0329C81.7482 55.9699 81.3379 55.7364 81.0531 55.3804C80.7683 55.0243 80.6306 54.5728 80.6682 54.1184C80.6682 53.2071 81.0281 52.6634 81.725 52.7553C81.9656 52.7563 82.2037 52.8049 82.4255 52.8984C82.6472 52.9919 82.8483 53.1284 83.017 53.2999C83.1857 53.4715 83.3188 53.6748 83.4086 53.8981C83.4983 54.1214 83.543 54.3602 83.5399 54.6009Z" fill="#F4B77D"/>
<path d="M75.6754 89.5439C74.6569 89.5439 73.9983 89.1533 74.0519 88.5637C74.1285 87.6677 75.8821 87.2695 76.7092 88.0736C76.8393 88.1666 76.9411 88.2938 77.0033 88.4411C77.0655 88.5885 77.0856 88.7502 77.0614 88.9083C77.0154 89.0798 76.9168 89.2327 76.7794 89.3453C76.6421 89.4579 76.4729 89.5247 76.2956 89.5362C76.0895 89.5571 75.8819 89.5597 75.6754 89.5439Z" fill="#F4B77D"/>
<path d="M80.9975 89.3754C80.9706 89.2498 80.9727 89.1196 81.0038 88.9949C81.0348 88.8703 81.094 88.7543 81.1768 88.656C81.2596 88.5577 81.3637 88.4797 81.4813 88.4278C81.5989 88.376 81.7268 88.3517 81.8552 88.3569C82.5751 88.288 83.5093 89.0002 83.5246 89.5592C83.54 90.1183 82.9426 90.5012 82.1003 90.5241C81.9493 90.5326 81.7982 90.5082 81.6575 90.4529C81.5168 90.3975 81.3897 90.3123 81.2849 90.2032C81.1802 90.0941 81.1003 89.9636 81.0507 89.8208C81.0011 89.6779 80.9829 89.526 80.9975 89.3754Z" fill="#F4B77D"/>
<path d="M74.8557 78.708C74.7867 78.1949 75.3994 77.6895 76.0426 77.6818C76.6859 77.6742 77.4823 78.1873 77.4747 78.6621C77.4747 79.6423 75.0471 80.2702 74.8557 78.708Z" fill="#F4B77D"/>
<path d="M75.6291 83.9841C74.9398 83.9841 74.534 83.7467 74.465 83.1417C74.3961 82.5368 75.0394 82.1079 75.6673 82.1309C75.8239 82.1457 75.9782 82.1791 76.1268 82.2304C76.6552 82.3759 77.2219 82.5904 77.2142 83.203C77.2066 83.8156 76.6016 83.8003 76.1345 83.8616C75.964 83.8935 75.7953 83.9344 75.6291 83.9841Z" fill="#F4B77D"/>
<path d="M83.2185 80.0864C83.2185 80.7143 82.6824 80.8522 82.2076 80.8981C81.5184 80.967 80.676 80.3008 80.676 79.7571C80.7832 78.1642 83.2644 79.1062 83.2185 80.0864Z" fill="#F4B77D"/>
<path d="M73.1943 72.0455C73.2479 71.5324 73.6461 71.4329 74.052 71.3946C74.3673 71.3563 74.6862 71.3563 75.0016 71.3946C75.4304 71.4482 75.8975 71.5554 75.8592 72.1604C75.8532 72.3886 75.7573 72.6051 75.5923 72.7629C75.4274 72.9206 75.2068 73.0069 74.9786 73.0027C74.1668 73.041 73.1024 72.8572 73.1943 72.0455Z" fill="#F4B77D"/>
<path d="M82.3072 86.2204C82.1709 86.2364 82.0327 86.2253 81.9007 86.1877C81.7687 86.1501 81.6454 86.0868 81.538 86.0014C81.4305 85.916 81.341 85.8102 81.2746 85.69C81.2081 85.5699 81.1661 85.4379 81.1509 85.3014C81.1509 84.6658 81.5491 84.4055 82.0928 84.3519C82.4099 84.3423 82.7214 84.4366 82.9799 84.6205C83.2385 84.8044 83.4298 85.0677 83.5248 85.3704C83.5478 85.8452 83.0347 86.2051 82.3072 86.2204Z" fill="#F4B77D"/>
<path d="M79.1829 85.8068C79.1384 86.0448 79.0123 86.2599 78.8265 86.415C78.6406 86.5701 78.4065 86.6557 78.1644 86.6569C77.8589 86.6843 77.5544 86.5954 77.3116 86.408C77.0688 86.2206 76.9057 85.9485 76.8549 85.646C76.7936 84.237 79.3207 84.8419 79.1829 85.8068Z" fill="#F4B77D"/>
<path d="M79.5122 74.5726C80.3928 74.5726 80.9825 74.9172 80.9672 75.3997C80.9519 75.8821 80.2933 76.3416 79.7572 76.3263C79.2212 76.311 78.4477 75.7902 78.532 75.3308C78.5397 75.2139 78.5721 75.0999 78.6271 74.9965C78.6822 74.8931 78.7586 74.8025 78.8513 74.7308C78.9439 74.6592 79.0508 74.608 79.1647 74.5807C79.2787 74.5534 79.3971 74.5507 79.5122 74.5726Z" fill="#F4B77D"/>
<path d="M80.6914 69.6332C81.1126 69.6945 81.7482 69.7251 81.7712 70.4756C81.7941 71.2261 81.1739 71.295 80.6531 71.3333C80.5098 71.355 80.3636 71.3483 80.2229 71.3135C80.0822 71.2787 79.9497 71.2164 79.833 71.1304C79.7164 71.0443 79.6179 70.9361 79.5431 70.8119C79.4683 70.6877 79.4187 70.55 79.3972 70.4067C79.4049 69.8706 79.7801 69.6256 80.6914 69.6332Z" fill="#F4B77D"/>
<path d="M79.6419 82.3914H79.4045C79.1543 82.4039 78.9066 82.3365 78.6973 82.1988C78.488 82.0611 78.328 81.8603 78.2405 81.6256C78.1911 81.4816 78.1957 81.3245 78.2535 81.1837C78.3112 81.0428 78.4182 80.9277 78.5545 80.8598C78.7643 80.7137 79.0178 80.6439 79.2728 80.662C79.5278 80.6801 79.7689 80.7851 79.9559 80.9594C80.2699 81.2044 80.7217 81.4878 80.6221 81.9472C80.5226 82.4067 80.0478 82.3991 79.6419 82.3914Z" fill="#F4B77D"/>
<path d="M79.2438 72.4515C79.2438 73.1407 78.746 73.2173 78.2866 73.2173C77.6969 73.2786 76.8239 72.6659 76.9005 72.2601C77 71.6934 77.4825 71.5555 77.9802 71.4943C78.7384 71.5249 79.2208 71.8848 79.2438 72.4515Z" fill="#F4B77D"/>
<path d="M74.205 76.1654C73.7532 76.1654 73.3933 76.0352 73.3856 75.5375C73.378 75.0397 73.6766 74.6875 74.2893 74.7257C74.787 74.7257 75.3384 74.7257 75.3078 75.3843C75.2771 76.0429 74.7411 76.1425 74.205 76.1654Z" fill="#F4B77D"/>
<path d="M82.8814 77.4521C82.3147 77.4521 81.8476 77.2377 81.8246 76.6251C81.8194 76.5296 81.8373 76.4343 81.8767 76.3471C81.916 76.2599 81.9757 76.1835 82.0508 76.1242C82.1258 76.0649 82.214 76.0245 82.3079 76.0064C82.4018 75.9883 82.4987 75.993 82.5904 76.0201C83.1111 76.1043 83.7314 76.2192 83.7927 76.8395C83.8539 77.4598 83.3332 77.4521 82.8814 77.4521Z" fill="#F4B77D"/>
<path d="M80.7138 128.814C80.2773 130.881 78.9908 137.192 78.7534 138.279C78.5773 139.106 78.1638 139.389 77.3137 139.213C76.5078 139.088 75.7504 138.748 75.1211 138.23C74.4919 137.711 74.0139 137.032 73.7375 136.265C72.7419 133.592 72.9028 127.175 72.2748 122.09C71.9608 119.548 71.6392 116.998 71.4248 114.432C71.1446 110.263 70.5792 106.118 69.7324 102.026C69.4261 100.663 69.2423 99.2695 68.9666 97.8988C68.8058 97.133 69.181 96.7501 69.9545 96.9415C70.2816 97.0473 70.5971 97.1859 70.8964 97.3551C71.2326 97.5684 71.6221 97.6829 72.0203 97.6853C72.4185 97.6877 72.8094 97.5779 73.1481 97.3686C73.4869 97.1593 73.7599 96.8588 73.9359 96.5016C74.1119 96.1444 74.1838 95.7448 74.1433 95.3487V93.4342C74.1433 92.99 74.3195 92.6225 74.9091 92.8139C75.292 92.9441 75.6749 92.722 76.0042 92.7144C77.8345 92.7144 79.68 93.1585 81.4643 92.9058C82.8427 92.7144 82.5824 93.595 82.8657 94.2153C83.0779 94.9249 83.1354 95.6718 83.0342 96.4055C83.0182 96.5596 83.0378 96.7154 83.0916 96.8607C83.1454 97.0061 83.2319 97.1371 83.3444 97.2437C83.4569 97.3503 83.5924 97.4296 83.7405 97.4754C83.8885 97.5213 84.0451 97.5325 84.1982 97.5082C86.3807 97.3474 88.6015 97.5771 90.7227 96.8267C91.9403 96.3902 92.3079 96.5586 92.5606 97.8452C92.7195 98.7582 92.8015 99.6829 92.8057 100.61C92.9512 104.508 92.9818 108.421 92.7674 112.303C92.5147 116.821 92.507 121.378 91.366 125.797C90.8223 127.872 90.6768 130.016 90.1637 132.091C89.9799 132.857 90.6308 134.511 88.7164 137.957C88.142 138.999 87.5677 138.953 85.8982 138.8C85.0635 138.715 84.2441 138.447 83.4018 138.348C82.1306 138.195 81.6022 137.475 81.4949 136.119C81.3265 134.098 81.0814 132.076 80.89 130.062C80.867 129.646 80.867 129.23 80.89 128.814H80.7138Z" fill="#FADF8F"/>
<path d="M122.817 102.333C123.269 102.333 123.491 102.601 123.636 102.968C125.88 108.528 129.249 113.49 132.06 118.744C132.189 118.945 132.274 119.17 132.311 119.407C132.347 119.643 132.334 119.884 132.272 120.114C132.21 120.345 132.101 120.56 131.951 120.746C131.801 120.932 131.614 121.085 131.401 121.194C131.018 121.401 130.636 121.385 130.459 120.957C130.162 120.39 129.759 119.886 129.272 119.471C126.064 116.27 123.108 112.801 119.524 109.983C118.758 109.393 117.992 108.811 117.273 108.214C117.161 108.15 117.067 108.06 117 107.951C116.933 107.842 116.894 107.717 116.887 107.589C116.88 107.461 116.905 107.334 116.961 107.218C117.016 107.102 117.1 107.002 117.204 106.927C118.66 105.268 120.32 103.799 122.143 102.555C122.333 102.4 122.573 102.321 122.817 102.333Z" fill="#FADF8F"/>
<path d="M28.8544 22.4531C28.3337 22.5986 28.035 22.208 27.989 21.4422C27.953 21.1552 27.8783 20.8745 27.767 20.6075C27.3534 19.4205 27.3611 19.4358 28.5328 18.8385C31.5576 17.2457 33.7784 15.6528 38.6106 13.5622C39.6827 13.1027 40.3106 13.4167 40.6246 14.5577C41.0381 16.0587 41.4415 17.5673 41.8346 19.0836C42.1332 20.2246 41.8346 20.6688 40.6706 20.9751C38.6603 21.4611 36.6095 21.7611 34.5442 21.8711C32.7293 21.9936 30.9527 22.254 28.8544 22.4531Z" fill="#FADF8F"/>
<path d="M135.545 76.9544C135.333 76.9659 135.121 76.9659 134.909 76.9544C134.794 76.9263 134.675 76.9218 134.558 76.9412C134.442 76.9606 134.33 77.0035 134.231 77.0672C134.131 77.1309 134.046 77.2142 133.979 77.3119C133.913 77.4097 133.867 77.5199 133.845 77.636C133.636 78.2053 133.38 78.756 133.079 79.2824C132.864 79.6959 132.596 80.0482 132.045 80.0482C131.494 80.0482 131.394 79.5658 131.279 79.1599C131.095 78.4936 130.919 77.8274 130.766 77.1535C130.674 76.717 130.437 76.5715 130 76.694C129.48 76.8113 128.948 76.8602 128.415 76.8395C128.201 76.8627 127.985 76.8211 127.796 76.72C127.606 76.619 127.451 76.4632 127.351 76.2728C127.266 76.0752 127.242 75.857 127.282 75.6457C127.321 75.4344 127.423 75.2396 127.573 75.0859C128.002 74.5115 128.4 73.9142 128.875 73.3782C129.502 72.6813 129.12 71.9385 128.982 71.2569C128.869 70.6332 128.835 69.9976 128.882 69.3654C128.881 69.2176 128.922 69.0725 129.002 68.9478C129.081 68.8231 129.195 68.7239 129.329 68.6624C129.464 68.6009 129.613 68.5795 129.759 68.601C129.905 68.6225 130.042 68.6858 130.153 68.7834C131.417 69.6105 131.685 71.5785 133.048 70.6826C133.644 70.3331 134.283 70.0604 134.947 69.8708C135.131 69.784 135.335 69.7522 135.537 69.7794C135.738 69.8066 135.927 69.8915 136.081 70.024C136.22 70.1864 136.304 70.3884 136.322 70.6014C136.34 70.8144 136.29 71.0277 136.18 71.211C136.001 71.6552 135.794 72.0875 135.56 72.5052C135.505 72.5792 135.465 72.6639 135.445 72.7539C135.424 72.8439 135.422 72.9373 135.44 73.028C135.457 73.1188 135.493 73.2049 135.545 73.281C135.598 73.3571 135.665 73.4215 135.744 73.47C137.229 74.7489 138.738 76.694 136.808 76.985C136.387 77.0048 135.964 76.9945 135.545 76.9544Z" fill="#FADF8F"/>
<path d="M65.858 62.2053C65.8416 62.8314 65.6909 63.4467 65.4161 64.0095C65.1413 64.5724 64.7488 65.0696 64.2651 65.4676C63.6518 65.9747 63.1332 66.5866 62.7335 67.2748C61.6385 69.1663 59.9384 70.5294 58.3456 71.9615C56.9901 73.1867 55.4968 74.2588 54.0571 75.3769C53.2377 76.0202 53.0463 76.0125 52.2881 75.3769C52.2448 75.3288 52.1871 75.296 52.1235 75.2836C52.06 75.2712 51.9941 75.2797 51.9359 75.308C51.8825 75.3367 51.8234 75.3534 51.7628 75.3568C51.7022 75.3601 51.6417 75.3501 51.5854 75.3275C51.5291 75.3048 51.4785 75.2701 51.4372 75.2257C51.3959 75.1813 51.3648 75.1283 51.3462 75.0706C51.2467 74.8102 51.4151 74.6341 51.576 74.4426C52.6864 73.1102 54.0801 72.084 55.2518 70.8128C57.0131 68.8983 58.4528 66.7005 60.3979 64.9621C61.4776 63.9972 61.7074 62.7184 62.006 61.4395C62.1592 60.7809 62.2128 60.2066 63.239 60.3138C63.7291 60.3597 64.2881 59.9462 64.8471 60.3138C65.1731 60.5058 65.4398 60.784 65.6181 61.1176C65.7964 61.4513 65.8794 61.8276 65.858 62.2053Z" fill="#FADF8F"/>
<path d="M33.6943 135.438C33.9317 135.714 33.7862 136.035 33.5028 136.28C32.4077 137.207 20.2699 147.461 19.8028 147.813C19.5424 148.004 19.2361 148.089 19.037 147.813C18.997 147.758 18.9682 147.696 18.9523 147.63C18.9364 147.564 18.9337 147.496 18.9444 147.429C18.9551 147.362 18.9789 147.298 19.0145 147.24C19.0501 147.183 19.0968 147.133 19.1519 147.093C21.6331 144.957 23.6701 142.368 26.1053 140.201C27.6369 138.8 29.1684 137.36 30.746 135.951C31.014 135.698 31.3203 135.484 31.6113 135.254C31.9256 135.037 32.3056 134.937 32.6859 134.971C33.0662 135.004 33.4228 135.169 33.6943 135.438Z" fill="#FADF8F"/>
<path d="M45.5408 148.127C45.1426 148.219 44.8362 147.959 44.5146 147.645C42.3704 145.539 40.5861 143.119 38.618 140.86C38.2581 140.438 34.276 135.798 34.2224 135.721C34.1182 135.598 34.061 135.442 34.061 135.281C34.061 135.12 34.1182 134.964 34.2224 134.841C34.4981 134.565 34.8044 134.749 35.0647 134.978C36.2973 135.988 37.4401 137.103 38.4802 138.31C40.4406 140.798 44.3308 144.16 46.2223 146.963C46.3415 147.09 46.4186 147.251 46.4433 147.424C46.4679 147.596 46.4389 147.772 46.3602 147.928C46.1764 148.211 45.8854 148.119 45.5408 148.127Z" fill="#FADF8F"/>
<path d="M53.819 26.7032C54.3091 26.933 54.7456 26.6496 55.2663 26.328C55.5876 26.1045 55.9729 25.9918 56.364 26.007C56.7551 26.0222 57.1306 26.1645 57.4335 26.4122C57.8121 26.6705 58.0977 27.0437 58.248 27.4767C58.3983 27.9097 58.4054 28.3795 58.2682 28.8168C57.9169 29.8577 57.5131 30.88 57.0583 31.88C56.8592 32.3318 56.4992 32.5386 56.0474 32.1174C55.2925 31.4924 54.4707 30.953 53.5969 30.5092C53.2187 30.327 52.8574 30.1117 52.5171 29.866C51.9887 29.4065 51.3837 28.947 51.7513 28.0663C51.9026 27.6464 52.1858 27.2867 52.5585 27.041C52.9312 26.7953 53.3734 26.6768 53.819 26.7032Z" fill="#FADF8F"/>
<path d="M31.4734 127.053C30.9555 127.038 30.4502 126.89 30.0071 126.621C29.5641 126.353 29.1985 125.974 28.9463 125.521C28.8084 125.184 28.6782 124.939 28.2417 124.931C28.024 124.919 27.8157 124.839 27.6465 124.701C27.4774 124.564 27.356 124.376 27.2998 124.165C27.2232 123.966 27.2156 123.767 27.3917 123.66C27.9404 123.349 28.5715 123.216 29.199 123.277C29.8832 123.242 30.5639 123.158 31.236 123.024C32.6297 122.94 33.9928 122.259 35.4095 122.818C35.869 122.994 36.3208 123.239 36.1753 123.844C36.1505 124.111 36.0266 124.358 35.8282 124.538C35.6298 124.718 35.3711 124.818 35.1032 124.816C34.0847 124.901 33.2194 125.169 32.8901 126.348C32.7216 127.121 31.8792 126.83 31.4734 127.053Z" fill="#FADF8F"/>
<path d="M32.5916 83.0808C32.7524 82.8894 32.8213 82.7822 32.9132 82.6903C33.2824 82.3482 33.5349 81.8989 33.6352 81.4057C33.7355 80.9124 33.6785 80.4002 33.4722 79.9411C33.365 79.6807 33.2654 79.3744 33.6101 79.1753C33.9547 78.9762 34.1767 79.1753 34.3758 79.3438C35.5398 80.1861 36.4665 82.1466 35.2718 82.966C35.0147 83.2062 34.6937 83.3672 34.3473 83.4297C34.001 83.4922 33.644 83.4535 33.3191 83.3182C33.082 83.2232 32.839 83.1439 32.5916 83.0808Z" fill="#FADF8F"/>
<path d="M40.0813 135.323C40.9466 135.698 40.9696 135.277 40.9466 134.726C40.9214 134.403 41.0185 134.083 41.2186 133.829C41.4187 133.575 41.7071 133.406 42.0264 133.355C42.3125 133.235 42.6317 133.219 42.9284 133.31C43.2251 133.401 43.4804 133.593 43.6499 133.853C43.8171 134.108 43.9004 134.409 43.8881 134.714C43.8757 135.019 43.7683 135.312 43.581 135.553C43.3773 135.839 43.1037 136.069 42.7862 136.22C42.4686 136.371 42.1178 136.438 41.767 136.415C41.4162 136.392 41.0771 136.279 40.7821 136.088C40.487 135.897 40.2458 135.634 40.0813 135.323Z" fill="#FADF8F"/>
<path d="M26.5264 135.76C26.4275 136.211 26.1842 136.619 25.8333 136.92C25.4823 137.221 25.0429 137.4 24.5813 137.429C24.4152 137.424 24.2518 137.386 24.1012 137.316C23.9505 137.246 23.8158 137.146 23.7054 137.021C23.5949 136.897 23.511 136.752 23.4588 136.594C23.4066 136.436 23.3873 136.27 23.402 136.104C23.4623 135.688 23.6431 135.299 23.9221 134.985C24.2011 134.67 24.566 134.445 24.9719 134.335C25.3586 134.347 25.7282 134.498 26.0135 134.759C26.2987 135.02 26.4808 135.375 26.5264 135.76Z" fill="#FADF8F"/>
<path d="M26.9093 81.9397C26.89 81.8102 26.89 81.6786 26.9093 81.5491C27.0089 81.2735 26.9706 80.8446 27.3918 80.8523C27.813 80.8599 27.79 81.2352 27.813 81.5109C27.8832 81.9769 28.0039 82.434 28.1729 82.874C28.2571 83.142 28.5634 83.5479 28.0733 83.6398C27.8812 83.6941 27.6758 83.6757 27.4964 83.5881C27.317 83.5005 27.1761 83.3499 27.1008 83.165C26.9948 82.7618 26.913 82.3526 26.8557 81.9397H26.9093Z" fill="#FADF8F"/>
<path d="M29.2912 135.346C28.439 135.257 27.5926 135.119 26.7564 134.932C26.2663 134.779 26.4654 135.239 26.4271 135.445C26.3913 135.817 26.2465 136.171 26.0109 136.461C25.7752 136.751 25.4592 136.965 25.1023 137.077C24.7324 137.199 24.3346 137.208 23.9595 137.103C23.5844 136.998 23.2491 136.783 22.9964 136.487C22.7202 136.158 22.5474 135.755 22.4997 135.329C22.452 134.902 22.5316 134.471 22.7284 134.09C23.0117 133.462 22.7284 133.324 22.3455 132.995C17.9345 129.702 15.0398 127.121 16.7016 122.044C17.1677 120.743 17.7764 119.497 18.5165 118.33C19.0686 117.435 19.4227 116.432 19.5548 115.388C19.6868 114.345 19.5939 113.285 19.2823 112.28C17.6282 106.445 15.9435 100.556 20.6607 96.6734C21.4112 96.0141 22.3014 95.5337 23.2645 95.2684C24.2275 95.0031 25.2382 94.9598 26.2204 95.1418C26.8483 95.249 26.9862 95.1418 26.9862 94.4679C26.9862 91.4047 26.9862 88.3415 27.1317 85.2248C27.1732 84.9972 27.1378 84.7623 27.031 84.557C26.9243 84.3518 26.7522 84.188 26.542 84.0914C25.0104 83.2184 25.2631 80.6683 27.0091 79.7494C27.243 79.6539 27.4348 79.4778 27.55 79.253C27.6652 79.0283 27.6961 78.7697 27.6371 78.5241C27.5375 77.0844 27.4074 75.6983 26.3276 74.5573C25.2478 73.4163 25.3703 72.2599 25.7762 70.9581C25.937 70.445 25.8911 70.1234 25.3091 69.9779C25.0564 69.9243 24.7501 69.7711 24.796 69.4571C24.842 69.1431 25.2325 69.1202 25.5082 69.1508C25.9141 69.1508 26.2051 69.2044 26.274 68.6684C26.3506 68.2472 26.4118 67.9562 25.8681 67.9026C25.8064 67.9031 25.7455 67.8896 25.6898 67.8631C25.6341 67.8366 25.5852 67.7977 25.5468 67.7495C25.5084 67.7012 25.4815 67.6448 25.4681 67.5846C25.4548 67.5244 25.4553 67.462 25.4697 67.402C25.4841 67.342 25.512 67.2861 25.5512 67.2385C25.5904 67.191 25.64 67.1529 25.6961 67.1274C25.7522 67.1018 25.8134 67.0894 25.8751 67.091C25.9367 67.0926 25.9972 67.1083 26.0519 67.1368C26.4501 67.1827 26.6492 67.0525 26.7717 66.6314C26.8943 66.2102 26.6262 66.0876 26.3429 65.9345C26.1897 65.8426 26.006 65.7277 26.0749 65.5056C26.0868 65.4525 26.1099 65.4024 26.1428 65.3589C26.1756 65.3154 26.2173 65.2794 26.2651 65.2533C26.313 65.2272 26.3658 65.2116 26.4202 65.2076C26.4745 65.2036 26.5291 65.2112 26.5803 65.23C27.0781 65.3525 27.2082 65.0691 27.3461 64.6709C27.5299 64.0047 27.7596 63.3538 27.9587 62.6952C28.0126 62.4318 28.1641 62.1986 28.3829 62.0423C28.6016 61.886 28.8714 61.8183 29.138 61.8528C31.4354 61.9141 31.1214 61.4316 31.7877 63.8286C31.8566 64.0583 31.9332 64.288 31.9944 64.5178C32.0863 64.9083 32.2318 65.1151 32.676 64.8547C32.7359 64.8095 32.8059 64.7797 32.8799 64.7678C32.954 64.7559 33.0298 64.7623 33.1009 64.7865C33.1719 64.8107 33.2359 64.8519 33.2873 64.9065C33.3387 64.9611 33.376 65.0274 33.3958 65.0998C33.5031 65.4214 33.2733 65.5746 33.0206 65.7047C32.7679 65.8349 32.2548 65.8962 32.5688 66.4016C32.7832 66.7615 32.5688 67.535 33.4494 67.2746C33.5001 67.2556 33.5541 67.2474 33.6082 67.2504C33.6622 67.2534 33.715 67.2676 33.7632 67.2921C33.8114 67.3166 33.8541 67.3508 33.8884 67.3926C33.9227 67.4344 33.9479 67.4829 33.9625 67.535C34.1846 68.2012 32.967 68.0557 33.3805 68.8598C33.5413 69.1738 33.4494 69.6256 34.1004 69.4954C34.5216 69.4342 34.6747 69.9396 34.2842 70.1999C33.8936 70.4603 33.9855 70.8049 34.0927 71.1419C35.1342 74.4577 32.1553 73.1023 32.8292 77.5745C32.8328 77.6255 32.8328 77.6767 32.8292 77.7277C32.8292 78.5777 32.8904 79.2593 34.0314 79.5656C35.0193 79.8259 35.4558 81.0972 35.2567 82.1616C35.1884 82.627 34.9612 83.0543 34.6136 83.3712C34.2661 83.6881 33.8196 83.8749 33.3499 83.9C32.9211 83.9612 32.8138 84.0991 32.8981 84.5049C33.7941 88.801 34.2612 93.1584 34.8126 97.5234C34.8662 97.9675 34.713 98.5419 35.1572 98.8099C36.2829 99.4685 37.4009 100.418 38.7947 99.3307C39.0647 99.1166 39.3516 98.9245 39.6524 98.7563C40.0603 98.4911 40.5223 98.3203 41.0047 98.2563C41.487 98.1923 41.9776 98.2368 42.4405 98.3865C42.9035 98.5361 43.3273 98.7873 43.6809 99.1215C44.0345 99.4558 44.309 99.8647 44.4845 100.319C45.2043 101.98 44.9823 103.65 44.7142 105.334C44.0327 109.646 42.9606 112.227 45.2426 115.703C46.7742 118.001 48.1526 120.489 48.3977 123.361C48.9491 129.809 42.6236 132.344 42.2714 132.765C43.2516 133.929 43.3894 134.779 42.7844 135.775C42.5445 136.123 42.2104 136.396 41.8213 136.561C41.4321 136.727 41.0039 136.778 40.5866 136.709C39.5758 136.449 39.101 135.736 38.9632 134.258C37.8319 134.662 36.6757 134.992 35.5018 135.246C37.332 137.383 43.3052 144.397 45.8936 147.139C46.7359 148.027 47.0346 147.974 47.854 147.078C49.5694 145.186 51.3537 143.364 53.1456 141.541C53.9114 140.775 54.5853 139.91 55.3051 139.098C55.3728 139.037 55.4253 138.961 55.4586 138.876C55.4918 138.791 55.5048 138.699 55.4966 138.608C55.106 133.033 55.3817 127.451 55.152 121.868C54.9529 117.013 55.0984 112.135 55.152 107.272C55.2056 96.2139 55.5655 91.6191 55.42 84.7806C55.3434 81.1814 55.2592 77.5745 55.2975 73.8528C52.7091 75.8438 52.0352 76.4565 51.5221 75.6907C51.2388 75.2618 51.0627 75.438 50.8023 75.6907C50.5194 75.9322 50.2228 76.1572 49.914 76.3646C49.8768 76.4032 49.8322 76.434 49.7829 76.455C49.7335 76.4761 49.6804 76.4869 49.6268 76.4869C49.5732 76.4869 49.5201 76.4761 49.4707 76.455C49.4214 76.434 49.3768 76.4032 49.3396 76.3646C49.255 76.2774 49.2076 76.1606 49.2076 76.0391C49.2076 75.9176 49.255 75.8008 49.3396 75.7136C49.4928 75.5375 49.7072 75.415 49.8833 75.2465C50.2356 74.9249 50.6491 74.6339 50.2969 74.0289C50.1437 73.7915 50.3428 73.6307 50.5189 73.4392C53.2911 70.3914 56.0326 67.3895 58.7971 64.3263C59.249 63.8286 59.3638 63.4457 58.6287 63.1393C58.3606 63.0321 58.2688 62.7564 58.1462 62.5267C56.2108 58.8471 55.2636 54.7281 55.397 50.5727C55.5028 47.2529 56.6018 44.0412 58.5521 41.3526C59.9841 39.2466 61.5234 37.2173 63.0549 35.1803C63.4087 34.7474 63.8037 34.3499 64.2343 33.9933C64.464 33.7865 64.7856 33.6104 65.0001 33.8019C65.4825 34.2001 65.6969 33.8019 66.0569 33.6104C68.0862 32.477 69.0588 30.6315 69.6867 28.5638C69.934 27.777 70.2869 27.0273 70.7358 26.3354C70.8493 26.1171 71.0053 25.9237 71.1946 25.7666C71.3839 25.6094 71.6027 25.4917 71.8382 25.4204C72.0736 25.349 72.3209 25.3255 72.5656 25.3511C72.8103 25.3767 73.0474 25.451 73.263 25.5696C74.3922 26.0386 75.3029 26.9165 75.813 28.0278C76.0857 26.8311 76.8029 25.7827 77.8194 25.0948C78.0629 24.8864 78.3787 24.7823 78.6984 24.8052C79.0181 24.8282 79.3159 24.9763 79.5271 25.2173C80.9701 26.5265 82.0693 28.17 82.7281 30.0035C83.2086 31.0966 83.9221 32.0715 84.8187 32.8599C85.7071 33.7329 86.5571 34.874 87.6445 35.2645C89.1761 35.8312 89.7964 37.2173 90.8762 38.1516C93.6464 40.7044 95.5253 44.0782 96.2367 47.7776C96.52 49.0947 97.0638 50.3736 96.8876 51.7673C96.566 54.2791 96.7345 56.8062 96.6349 59.3257C96.5754 62.4113 95.3908 65.3688 93.3037 67.6422C92.7805 68.1122 92.4093 68.7275 92.2374 69.4095C92.0655 70.0916 92.1009 70.8093 92.3388 71.4712C93.4632 75.1518 94.2325 78.9316 94.6362 82.7589C94.8966 85.1405 94.843 87.5375 95.1799 89.9114C95.5168 91.7407 95.7316 93.5903 95.8232 95.4481C95.8232 96.39 95.5398 96.7576 94.6132 96.8725C93.0816 97.0563 93.0816 97.0639 92.9208 98.6568C92.4818 102.874 92.0197 107.093 91.5347 111.315C91.2973 113.352 91.4275 115.397 91.2437 117.442C90.7153 123.086 89.4977 133.876 88.1806 139.205C88.1193 139.466 88.1117 139.826 87.8513 139.887C87.0855 140.063 87.3229 140.653 87.2693 141.12C87.1461 141.764 87.2626 142.431 87.5968 142.995C87.9311 143.559 88.4601 143.982 89.0842 144.183C90.2942 144.719 91.4505 145.385 92.6451 145.96C93.1965 146.228 93.7632 146.427 93.9853 147.101C94.1155 147.499 94.4907 147.3 94.7511 147.3C101.429 147.254 147.238 146.948 147.399 146.955C147.851 146.955 148.203 147.17 148.203 147.652C148.203 148.135 147.851 148.334 147.438 148.38C146.848 148.449 6.96837 149.26 5.69716 149.222C5.35255 149.222 4.93137 149.222 4.88542 148.793C4.83947 148.364 5.31426 148.265 5.69716 148.249C7.7648 148.188 15.0475 148.004 16.6173 147.981C17.0079 147.981 17.23 147.92 17.3372 147.461C17.474 147.119 17.683 146.811 17.9498 146.557C20.722 143.348 23.946 140.599 27.0398 137.727C27.8668 137.015 28.5637 136.142 29.2912 135.346ZM77.3446 27.3309C77.6782 27.2834 78.0177 27.359 78.2996 27.5436C78.5815 27.7283 78.7865 28.0093 78.8762 28.3341C79.1343 28.9148 79.3121 29.528 79.4046 30.1567C79.6803 32.0405 79.2361 33.0361 77.8194 33.8784C77.605 34.0086 77.3063 34.0393 77.2298 34.3532C78.1813 34.3351 79.1202 34.1323 79.9943 33.7559C80.5533 33.5109 81.1736 33.0514 81.4569 34.0929C81.4569 34.2384 81.7326 34.3303 81.8934 34.4222C82.6859 34.908 83.4273 35.4724 84.1066 36.1069C85.4237 37.2786 85.4314 37.2632 86.7562 36.1069C86.7562 36.1069 86.7562 36.0609 86.8251 35.992C84.6273 34.1771 82.4907 32.4694 81.5105 29.6589C81.1212 28.5893 80.5076 27.6154 79.7109 26.8025C78.5469 25.5926 77.9879 25.6845 77.1072 27.2161C76.9617 27.4381 77.1608 27.3462 77.3446 27.3309ZM82.0619 147.468C82.2457 147.468 82.4754 147.56 82.4831 147.193C82.5367 144.857 82.8354 142.544 83.0651 140.232C83.0651 139.933 83.0651 139.833 82.7205 139.803C81.6331 139.688 81.434 139.504 81.3574 138.447C81.0128 133.477 81.2195 134.71 80.7294 129.128C80.4809 130.166 80.3245 131.224 80.2623 132.29C80.1321 134.718 79.6343 137.13 79.8411 139.581C79.8411 140.147 79.5731 140.683 78.9298 140.461C77.9343 140.117 78.0568 140.683 78.1181 141.281C78.1181 141.595 78.1717 141.916 78.2329 142.223C78.3986 143.297 78.6184 144.363 78.8915 145.416C79.06 146.036 79.2208 146.748 78.4627 147.185C76.8392 147.384 75.2004 147.269 73.5693 147.461C81.6713 147.461 80.2546 147.476 82.0389 147.468H82.0619ZM81.5718 47.2568H84.3593C85.0179 47.2568 85.3395 47.5631 85.3242 48.2294C85.3534 48.9179 85.3175 49.6076 85.217 50.2894C85.217 50.4808 85.0255 50.879 85.3089 50.902C85.5922 50.925 86.2355 51.0015 86.4039 50.6263C86.626 50.1132 86.963 49.6691 87.1697 49.1483C87.4533 48.531 87.5626 47.8479 87.4857 47.173C87.4087 46.498 87.1485 45.857 86.7332 45.3194C85.5616 43.9333 84.5354 42.4553 83.3867 41.0616C82.6209 40.089 81.8551 38.9097 80.515 38.6493C78.3172 38.2052 76.0887 38.0673 73.9675 39.0935C73.6382 39.2466 73.2017 39.6449 72.9337 39.1701C72.6656 38.6953 73.1864 38.4732 73.5004 38.2435C73.7566 38.0577 74.0343 37.9034 74.3274 37.784C75.1957 37.4529 76.1167 37.2817 77.046 37.2786C83.2795 36.8344 83.448 40.112 86.94 44.0252C87.7698 44.8601 88.2599 45.9736 88.3151 47.1495C88.3703 48.3254 87.9866 49.4799 87.2386 50.3889C86.9706 50.7412 86.7715 51.0475 87.1085 51.4993C87.2211 51.6956 87.2866 51.9153 87.2999 52.1412C87.3132 52.3671 87.2739 52.593 87.185 52.8012C87.0239 53.2944 86.7586 53.7473 86.4071 54.1292C86.0557 54.511 85.6263 54.8128 85.148 55.0143C84.6738 55.2807 84.3242 55.7239 84.1755 56.2472C83.3408 58.3378 82.0925 60.0762 79.8181 60.773C79.1366 60.9875 79.6267 61.4316 79.6114 61.7609C79.596 62.0902 79.933 62.3199 80.2776 62.2357C80.9541 62.1176 81.6219 61.9539 82.2763 61.7456C83.7143 61.2057 85.0156 60.3556 86.0877 59.2557C87.1598 58.1558 87.9763 56.8332 88.4792 55.3819C89.7999 52.0623 89.7999 48.3632 88.4792 45.0437C88.1729 44.2779 87.8666 43.4662 87.5833 42.6621C86.5035 39.553 83.8768 36.9033 81.2272 35.0424C81.0618 34.8853 80.8541 34.7798 80.6297 34.739C80.4052 34.6982 80.1737 34.7238 79.9636 34.8127C78.844 35.2394 77.6423 35.407 76.4486 35.3028C76.2851 35.3046 76.1248 35.2574 75.9884 35.1673C75.8519 35.0773 75.7455 34.9484 75.6829 34.7974C75.5527 34.4604 75.8054 34.269 76.0351 34.0775C76.3298 33.7735 76.6558 33.5014 77.0077 33.2658C78.4167 32.5536 78.6312 31.382 78.4167 29.9729C78.3248 29.3679 78.1717 29.1459 77.559 29.5364C77.2298 29.7432 76.6554 29.9729 76.6018 29.2837C76.6018 28.7936 76.3491 28.6557 75.9509 28.5179C75.9509 29.1382 75.7058 29.4522 75.0932 29.3756C74.7256 29.3296 74.6644 29.4905 74.6261 29.8044C74.5495 30.486 74.1436 30.4936 73.6918 30.1567C73.24 29.8197 73.0026 29.5441 72.5584 29.1459C72.7269 30.8383 72.8035 32.4081 74.3427 33.3807C74.5961 33.5755 74.8182 33.8079 75.0013 34.0699C75.2693 34.4145 75.4991 34.8357 75.2081 35.2339C75.0626 35.3919 74.8752 35.5052 74.6678 35.5608C74.4603 35.6164 74.2414 35.6119 74.0364 35.5479C73.4515 35.3598 72.8911 35.1027 72.367 34.7821C72.2223 34.6983 72.0541 34.6641 71.8882 34.6849C71.7222 34.7056 71.5676 34.7801 71.448 34.8969C70.5743 35.6731 69.6452 36.3846 68.6682 37.0258C68.5457 37.0948 68.4155 37.1484 68.4002 37.3628C68.2713 38.0169 67.9325 38.6111 67.4353 39.0552C66.2579 40.6302 65.2007 42.2916 64.2726 44.0252C64.1011 44.2938 64.0034 44.6028 63.9892 44.9212C63.9004 45.9639 63.687 46.9923 63.3536 47.9843C63.0062 49.2099 62.7804 50.4668 62.6797 51.7367C62.6108 53.0309 62.9784 54.0341 64.3185 54.4782C65.4978 54.8688 65.6969 56.1247 67.6038 57.0666C69.0121 57.8873 70.202 59.0352 71.0728 60.4131C71.6037 61.1778 72.3276 61.7882 73.1711 62.1821C73.3625 62.2663 73.6918 62.4118 73.7301 62.1821C73.8335 61.6604 73.8644 61.127 73.822 60.5969C73.822 60.2446 73.3855 60.2983 73.1328 60.2064C71.1647 59.4406 69.5412 58.3685 68.9822 56.1783C68.9445 56.0181 68.8651 55.8707 68.7522 55.751C68.6392 55.6313 68.4967 55.5436 68.3389 55.4967C66.3402 54.731 65.6127 53.1228 66.3096 51.1853C66.3592 51.0973 66.378 50.9951 66.3627 50.8951C66.3474 50.7951 66.299 50.7032 66.2253 50.634C65.5708 49.8017 64.9965 48.9094 64.51 47.969C63.7442 46.782 64.2343 45.6104 65.1762 44.5383C65.8043 43.8282 66.295 43.0076 66.6235 42.1184C67.0475 40.9356 67.7672 39.881 68.7142 39.0552C69.1551 38.6888 69.688 38.4501 70.255 38.3651C70.822 38.28 71.4014 38.3518 71.9305 38.5727C72.1832 38.657 72.5737 38.7489 72.4972 39.1318C72.4206 39.5147 72.053 39.3998 71.785 39.3385C71.1308 39.1796 70.4422 39.2441 69.8289 39.5216C69.2155 39.7991 68.7126 40.2738 68.4002 40.8701C68.1611 41.2186 67.9535 41.5876 67.7799 41.9729C66.0645 46.0622 64.0581 45.5797 65.314 47.6857C65.6816 48.2983 66.0186 48.9339 66.3785 49.5465C66.5393 49.8222 66.7307 50.0826 66.8839 50.3583C66.9593 50.486 67.0785 50.5819 67.2194 50.6284C67.3602 50.6749 67.5131 50.6687 67.6497 50.611C67.933 50.5268 67.711 50.2434 67.7263 50.052C67.7607 49.8415 67.7607 49.6268 67.7263 49.4164C67.5961 48.7807 68.0403 47.9767 67.1519 47.5478C66.9911 47.4636 67.0907 47.2032 67.2438 47.0577C68.7877 45.8475 70.1383 44.4092 71.2489 42.7923C71.6242 42.2256 71.7926 42.2256 72.1985 42.7923C73.254 44.123 74.5936 45.201 76.1194 45.9473C77.8319 46.718 79.6733 47.1621 81.5488 47.2568H81.5718ZM56.7908 130.95C56.7908 133.554 56.7908 136.165 56.921 138.761C56.9155 139.16 57.0573 139.547 57.3192 139.849C59.3179 142.054 61.4698 144.145 63.2387 146.519C64.3415 148.004 65.6203 147.522 66.9145 147.614C66.967 147.629 67.0229 147.629 67.0754 147.614C67.1704 147.588 67.2557 147.535 67.3204 147.461C68.3159 145.799 70.889 145.018 72.5278 143.846C72.7436 143.717 72.9207 143.533 73.0407 143.312C73.1606 143.091 73.2188 142.841 73.2094 142.59C73.1469 141.568 73.1776 140.543 73.3012 139.527C73.3012 139.343 73.3778 139.167 73.1864 139.022C72.6733 138.631 72.6427 138.034 72.5048 137.49C72.2904 136.594 72.4129 135.683 72.2751 134.794C71.5093 129.962 71.9841 134.358 69.6944 116.829C69.3574 114.241 68.6912 111.714 68.3925 109.133C67.9101 105.043 67.5578 100.946 66.9452 96.8801C66.8916 96.4896 66.792 96.3058 66.4015 96.2981C65.475 96.2239 64.5574 96.065 63.6599 95.8233C62.4653 95.5706 62.2126 95.3485 62.5036 94.1845C63.4532 90.4168 63.9662 86.5266 64.801 82.7819C65.314 80.4845 66.1258 78.302 66.3785 75.9664C66.8609 71.5784 64.0122 71.1725 62.1513 68.6301C61.868 68.2548 61.7072 68.5688 61.531 68.722C60.1603 69.8553 58.7972 71.0193 57.4187 72.1297C57.1059 72.308 56.8526 72.5745 56.6905 72.8959C56.5284 73.2174 56.4647 73.5795 56.5074 73.937C57.0511 83.6855 56.852 95.226 56.5534 111.568C56.4462 117.932 56.875 124.441 56.7908 130.95ZM35.3486 100.426C35.5247 101.49 35.6932 102.432 35.8387 103.374C35.8993 103.563 35.9133 103.764 35.8797 103.959C35.846 104.155 35.7656 104.34 35.6453 104.498C35.525 104.655 35.3684 104.782 35.1888 104.866C35.0091 104.951 34.8118 104.99 34.6135 104.982C33.8751 105.084 33.1304 105.133 32.385 105.128C32.2012 105.128 31.9255 105.013 31.9025 105.357C31.8796 105.702 31.7953 105.962 32.2242 106.047C32.3233 106.079 32.4184 106.123 32.5075 106.177C34.2535 107.111 35.9153 109.094 35.4482 111.346C35.301 112.078 34.973 112.761 34.4942 113.333C34.0153 113.906 33.4008 114.349 32.7066 114.624C32.4003 114.761 32.1859 114.869 32.2012 115.29C32.2012 117.334 32.2625 119.379 32.2012 121.416C32.2012 122.098 32.4769 122.182 33.0206 122.059C33.7762 121.895 34.5452 121.801 35.318 121.776C36.6045 121.776 36.6045 121.776 36.9261 122.978C37.3703 124.655 36.9261 125.467 35.2031 125.904C35.1048 125.941 35.0017 125.964 34.8968 125.973C34.7842 125.95 34.668 125.952 34.5566 125.98C34.4452 126.008 34.3415 126.061 34.2532 126.135C34.165 126.208 34.0944 126.301 34.0467 126.405C33.9991 126.51 33.9755 126.623 33.9778 126.738C33.9359 126.916 33.8397 127.077 33.7025 127.197C33.5652 127.318 33.3938 127.393 33.2121 127.412C32.0642 127.653 30.8851 127.707 29.72 127.573C29.451 127.58 29.1852 127.513 28.9525 127.377C28.7199 127.242 28.5295 127.045 28.4029 126.807C28.2892 126.475 28.0729 126.188 27.7852 125.987C27.4975 125.786 27.1533 125.682 26.8024 125.689C26.7018 125.695 26.6009 125.682 26.5056 125.649C26.4103 125.616 26.3225 125.565 26.247 125.498C26.1716 125.431 26.1102 125.35 26.0662 125.259C26.0222 125.168 25.9965 125.07 25.9906 124.969C25.9141 124.418 25.8834 123.859 25.8145 123.308C25.7456 122.756 25.9983 122.542 26.4807 122.542C27.1164 122.488 27.752 122.442 28.3876 122.412C28.7015 122.412 28.87 122.304 28.8547 121.944C28.7245 119.647 29.0308 117.35 29.0079 115.014C29.0215 114.873 28.9914 114.731 28.9215 114.608C28.8516 114.484 28.7454 114.386 28.6173 114.325C27.9519 113.908 27.3988 113.334 27.0063 112.653C26.6139 111.973 26.3941 111.207 26.3662 110.422C26.3382 109.637 26.503 108.857 26.846 108.15C27.189 107.444 27.6999 106.832 28.334 106.368C28.5008 106.273 28.6339 106.128 28.7149 105.954C28.7958 105.78 28.8206 105.585 28.7858 105.396C28.7322 104.875 28.3033 105.097 28.02 105.066C26.9938 104.944 26.7488 104.653 26.9249 103.688C26.9321 103.609 26.9321 103.53 26.9249 103.451C26.8368 101.513 26.8598 99.5728 26.9938 97.6383C27.0704 96.6351 26.9938 96.6121 25.9906 96.4666C22.5063 95.9612 19.1904 99.323 19.0985 102.692C19.0296 105.656 19.2134 106.445 20.6837 112.066C21.0141 113.246 21.0941 114.483 20.9187 115.696C20.7433 116.909 20.3164 118.072 19.6652 119.111C17.9345 121.998 16.5101 124.939 18.5165 127.657C19.5935 129.004 20.8421 130.204 22.2306 131.226C23.9009 132.554 25.8882 133.425 27.997 133.753C30.5597 134.263 33.1985 134.255 35.758 133.729C38.3174 133.202 40.7455 132.169 42.8993 130.69C46.3071 128.392 47.808 125.819 46.6211 121.738C46.0679 119.792 45.1705 117.961 43.9714 116.331C41.5975 113.161 42.593 109.516 43.2056 105.733C43.5352 104.472 43.6338 103.162 43.4966 101.865C43.1061 99.9356 41.6817 98.6797 39.6677 100.288C39.0621 100.798 38.3009 101.088 37.5091 101.109C36.7173 101.13 35.942 100.881 35.3103 100.403L35.3486 100.426ZM88.8315 95.7238H92.2622C94.6209 95.7238 94.8123 95.4328 94.4601 93.0971C94.1078 90.7615 93.6943 88.3722 93.5871 85.9829C93.3573 81.817 92.5379 77.72 91.9483 73.6001C91.7645 72.3135 91.887 70.8202 90.7536 69.7711C90.6464 69.6792 90.7536 69.4878 90.8838 69.3499C91.5271 68.5075 92.155 67.6575 92.7906 66.8075C93.8115 65.5472 94.5364 64.0739 94.9119 62.4961C95.4075 59.9397 95.6639 57.3426 95.6777 54.7386C95.7633 53.0172 95.6606 51.2916 95.3714 49.5925C93.7785 41.6895 90.7766 39.9359 89.1531 37.8376C87.9202 36.2141 87.9661 36.2064 86.4422 37.6002C86.0746 37.9371 86.0746 38.1133 86.3886 38.4809C88.6324 41.1305 89.4977 44.3928 90.3248 47.6704C90.6847 49.11 90.2635 50.5804 90.2865 52.0354C90.312 54.173 89.7161 56.2721 88.5711 58.0775C87.7493 59.6723 86.429 60.9549 84.8111 61.7303C81.4416 63.1547 81.4416 62.7641 81.6407 63.3691C84.2291 71.2108 83.9381 80.7985 84.2827 83.8234C84.696 87.5737 84.7959 91.3519 84.5814 95.1188C84.5814 95.6319 84.7115 95.7467 85.194 95.7314C86.381 95.7238 87.5986 95.7238 88.8315 95.7238ZM59.2949 62.0289C59.7458 61.2461 60.3822 60.586 61.1481 60.1068C61.6241 59.7335 62.2051 59.5188 62.8095 59.4927C63.4138 59.4666 64.0112 59.6305 64.5176 59.9613C65.0585 60.2708 65.509 60.7163 65.8247 61.2536C66.1403 61.7909 66.3101 62.4014 66.3172 63.0245C66.2855 63.9265 65.9734 64.7962 65.4244 65.5126C64.8754 66.2291 64.1168 66.7566 63.2541 67.0219C62.695 67.1827 62.7257 67.3359 63.1162 67.6652C63.8437 68.2855 64.5406 68.9364 65.2681 69.572C66.2049 70.3019 66.9266 71.2717 67.3567 72.3786C67.7868 73.4856 67.9092 74.6883 67.711 75.8591C67.4089 77.6907 67.0127 79.5055 66.524 81.2963C65.4442 85.4928 64.9924 89.8119 63.8361 93.9931C63.7135 94.4526 63.9586 94.5138 64.3032 94.6134C66.5393 95.249 68.8979 95.3256 71.1264 96.0148C72.3976 96.413 72.4129 96.2522 72.4359 94.8814C72.5048 90.9223 72.6044 86.9631 72.7039 83.004C72.7805 79.9408 72.6197 76.9542 72.8418 73.9217C73.0868 70.6364 72.949 67.3359 73.2706 64.0506C73.2706 63.6984 73.194 63.6141 72.8954 63.5069C71.847 63.244 70.9428 62.5817 70.3759 61.6614C68.9209 58.9658 65.9267 57.8937 64.0198 55.6652C63.8797 55.5446 63.7151 55.4557 63.5374 55.4048C62.9663 55.1719 62.4803 54.7696 62.1448 54.2521C61.8094 53.7345 61.6406 53.1266 61.6612 52.5102C61.5004 49.0411 62.8865 47.1496 62.7716 44.8522C62.7566 44.2346 62.939 43.6283 63.2923 43.1215C64.4027 41.3526 65.3523 39.4228 66.9299 37.9831C67.2438 37.6921 67.129 37.5466 66.8763 37.3168C66.2768 36.8348 65.73 36.2906 65.2451 35.6934C64.732 34.9276 64.4793 35.2722 64.0735 35.7393C62.4883 37.738 58.0926 43.336 57.3498 45.7559C56.2876 49.2415 56.2186 52.9543 57.1507 56.477C57.562 58.4309 58.2861 60.3057 59.2949 62.0289ZM80.247 95.8157C80.6069 110.511 81.9853 127.872 82.6209 137.865C82.6209 138.332 82.8354 138.432 83.2412 138.455C84.3057 138.524 85.3625 138.608 86.4193 138.738C86.8558 138.792 86.9936 138.692 87.1008 138.248C87.9202 134.84 88.1806 131.693 90.8762 109.914C91.2437 106.981 91.642 100.663 91.7951 97.6612C91.7951 97.3932 91.9176 97.0103 91.4275 97.0409C89.1302 97.1788 86.7639 96.727 84.4282 96.9797C82.6975 97.1635 83.2642 96.076 83.3867 93.8552C83.4633 92.4768 83.4556 92.921 80.7524 92.9057C80.2546 92.9057 79.9866 92.9669 80.1244 93.6102C80.2357 94.3475 80.2768 95.0936 80.247 95.8386V95.8157ZM68.0479 96.2981C68.4831 98.1686 68.823 100.06 69.0664 101.965C69.3344 104.446 69.5029 106.95 69.9471 109.401C70.7894 113.996 71.4787 118.59 72.053 123.185C72.6273 127.78 73.5157 132.229 73.5157 136.816C73.4928 136.943 73.5108 137.074 73.5673 137.189C73.6238 137.305 73.7157 137.4 73.8296 137.459C75.2866 138.21 76.8526 138.727 78.4703 138.991C78.5393 134.626 79.8334 126.861 79.8794 120.719C79.8794 117.847 79.6267 114.983 79.5884 112.119C79.5501 109.516 79.5884 106.912 79.5348 104.308C79.5348 103.374 79.6114 102.394 78.6541 101.758C78.4389 101.559 78.3075 101.285 78.2866 100.992C77.8118 98.6951 78.2253 99.2924 77.4518 93.6638C77.3906 93.2273 77.2144 92.9593 76.686 92.9669C75.9202 92.9669 75.1009 92.8291 74.3044 92.7831C73.3319 92.7295 73.8679 93.2196 73.6076 96.4053C73.531 97.3473 73.263 97.4468 72.3593 97.2247C70.9579 96.8954 69.5335 96.6274 68.0479 96.3211V96.2981ZM74.0058 67.4125C73.6076 75.5299 74.3504 83.6166 73.7377 91.711C74.3054 91.6265 74.8793 91.5906 75.4531 91.6038C77.896 91.8948 80.3312 91.6038 82.7741 91.5349C83.3025 91.5349 83.4174 91.3894 83.4097 90.884C83.4097 88.3952 83.6394 85.9063 83.4097 83.4098C83.1876 81.1125 83.3408 78.8151 82.889 76.5177C82.0236 72.2216 81.7556 68.3927 80.7754 65.5975C80.6102 65.862 80.4313 66.1176 80.2393 66.3633C79.4056 67.3286 78.5211 68.2488 77.5897 69.1202C76.8239 69.8247 76.5865 69.84 75.7518 69.1814C75.1133 68.6588 74.5285 68.0739 74.0058 67.4354V67.4125ZM71.5169 43.8261C70.6891 45.0888 69.6534 46.2022 68.4538 47.119C68.1398 47.3411 68.1704 47.5785 68.2087 47.8848C68.538 50.052 68.8597 52.2192 69.3421 54.3634C69.8246 56.5076 70.7512 58.3914 73.0715 59.1879C74.6747 59.7475 76.3672 60.0071 78.0645 59.9537C79.2392 59.9311 80.3782 59.5459 81.3255 58.8508C82.2728 58.1558 82.982 57.1849 83.3561 56.0711C84.0104 53.727 84.3806 51.3127 84.4588 48.8803C84.5124 48.2524 84.275 48.1145 83.693 48.1145C82.4763 48.2495 81.2447 48.1269 80.0785 47.7546C79.367 47.4706 78.6085 47.3225 77.8424 47.3181C76.7588 47.3707 75.6863 47.0785 74.7792 46.4834C73.6688 45.6333 72.6044 44.7221 71.5169 43.8261ZM43.1214 147.859L43.1903 147.652C41.4673 145.753 34.9734 138.195 33.2963 136.219C32.5305 135.331 32.6147 136.219 29.72 138.746C26.565 141.526 23.6397 144.543 20.5305 147.384C20.3697 147.53 20.1247 147.652 20.1323 147.859H43.1214ZM29.9421 74.5803H30.325V77.0768C30.325 77.3141 30.1412 77.72 30.5318 77.7124C30.9223 77.7047 30.7079 77.2835 30.7156 77.0538C30.7538 76.337 30.7152 75.6182 30.6007 74.9096C30.5548 74.6951 30.6007 74.4348 30.8764 74.4501C31.1521 74.4654 31.0295 74.7258 31.0372 74.8866C31.1061 75.6524 31.1368 76.4182 31.2057 77.184C31.2057 77.3831 31.0678 77.7506 31.4431 77.72C31.8183 77.6894 31.6345 77.3295 31.6039 77.1457C31.4638 76.4121 31.4865 75.6567 31.6705 74.9329C31.8544 74.2091 32.195 73.5345 32.6683 72.9568C32.8111 72.7445 32.9081 72.5048 32.9529 72.2529C32.9977 72.0011 32.9895 71.7426 32.9287 71.4941C32.9287 70.9121 32.071 71.2338 32.1246 70.7283C32.1706 70.3148 32.6301 69.9013 32.2701 69.4954C31.856 68.8945 31.6221 68.1878 31.5962 67.4584C31.3359 66.1642 30.8304 64.916 30.4858 63.6294C30.3939 63.3155 30.371 63.0245 29.9038 63.0704C29.4367 63.1164 29.2376 63.1164 29.0079 63.5988C28.4871 64.6709 28.9313 65.9881 28.0659 66.953C28.0116 67.0304 27.9824 67.1226 27.9824 67.2172C27.9824 67.3118 28.0116 67.404 28.0659 67.4814C28.2804 67.78 28.1349 67.9638 27.9204 68.2472C27.6141 68.6454 27.2006 69.0972 27.9204 69.6179C28.265 69.8783 28.1195 70.2612 27.6984 70.3837C27.4686 70.4603 27.3001 70.4603 27.2006 70.7666C26.7794 72.0838 26.7411 73.2861 27.8132 74.3505C28.1195 74.6499 28.3632 75.0072 28.5301 75.4016C28.6971 75.796 28.784 76.2196 28.7858 76.6479C28.7858 77.0385 28.8624 77.4137 28.916 77.9344C29.1916 76.6862 28.7858 75.5452 28.916 74.2816C29.5439 74.7794 29.2529 75.3307 29.3754 77.2069C29.3754 77.406 29.1227 77.7736 29.5822 77.8196C30.0417 77.8655 30.0034 77.475 30.0034 77.1763L29.9421 74.5803ZM62.2585 147.644C60.3287 145.033 57.8782 143.05 56.0326 140.538L49.2477 147.644H62.2585ZM75.0855 28.6711C74.6381 27.8645 73.9717 27.2008 73.1634 26.7566C72.3287 26.2818 72.053 26.3813 71.5935 27.239C69.993 30.2562 70.307 32.186 67.6191 33.8248C67.1136 34.1312 66.2253 34.2843 66.2024 34.8127C66.1794 35.3411 66.9681 35.7699 67.351 36.2601C67.7339 36.7502 67.8871 36.574 68.2623 36.3443C69.166 35.7853 69.8475 34.9429 70.7282 34.3532C70.7923 34.3086 70.8447 34.249 70.8807 34.1796C70.9167 34.1103 70.9353 34.0332 70.9349 33.955C70.9349 33.2811 71.3408 33.35 71.8156 33.5338C72.2904 33.7176 72.5278 33.978 73.0485 33.8325L72.7422 33.419C71.6318 31.8874 71.5859 30.195 71.8079 28.4796C71.9458 27.3845 72.8341 27.2007 73.6765 27.9742C74.0865 28.3115 74.5686 28.5499 75.0855 28.6711ZM69.4799 146.534C72.2291 146.588 74.8941 145.822 77.7581 146.098C77.3521 144.663 77.0627 143.198 76.8928 141.717C76.8009 141.097 77.1455 140.301 76.6248 139.918C76.0522 139.649 75.4335 139.493 74.8022 139.458C74.7512 139.454 74.7 139.454 74.649 139.458C74.6068 140.274 74.6068 141.092 74.649 141.909C74.7519 142.501 74.6414 143.111 74.3372 143.63C74.0329 144.149 73.5546 144.543 72.9873 144.742C71.8079 145.301 70.6516 145.937 69.4799 146.534ZM91.1212 146.626C90.0568 146.013 89.1225 145.462 88.1806 144.926C87.5492 144.634 87.0246 144.153 86.68 143.549C86.3354 142.945 86.188 142.248 86.2584 141.556V140.438C86.2584 140.193 86.2584 140.04 85.9368 140.025C84.4052 139.964 84.03 139.696 84.0912 140.17C84.2357 142.099 84.1689 144.038 83.8921 145.952C83.8462 146.519 84.0759 146.542 84.5048 146.534C85.5587 146.434 86.6188 146.419 87.6751 146.488C88.8176 146.663 89.9761 146.709 91.1289 146.626H91.1212ZM32.5611 126.424C33.6256 126.325 32.4769 125.391 34.5522 124.954C36.1604 124.617 35.9766 124.801 35.9459 123.354C35.9459 122.886 35.7238 122.833 35.3563 122.879L32.9976 123.208C32.2318 123.308 32.1246 123.507 32.4769 124.188C32.5159 124.24 32.5443 124.299 32.5604 124.362C32.5765 124.424 32.5801 124.49 32.5708 124.554C32.5616 124.618 32.5397 124.679 32.5065 124.735C32.4733 124.79 32.4294 124.839 32.3773 124.877C32.3359 124.921 32.286 124.956 32.2307 124.979C32.1754 125.003 32.1159 125.015 32.0557 125.015C31.9956 125.015 31.936 125.003 31.8807 124.979C31.8255 124.956 31.7756 124.921 31.7341 124.877C31.4584 124.648 31.5426 124.426 31.7341 124.196C31.8252 124.089 31.8753 123.953 31.8753 123.813C31.8753 123.673 31.8252 123.537 31.7341 123.43C31.6345 123.323 31.244 123.361 31.0755 123.476C30.662 123.752 30.8381 124.073 31.0755 124.38C31.1132 124.417 31.1432 124.462 31.1636 124.511C31.184 124.561 31.1945 124.614 31.1945 124.667C31.1945 124.72 31.184 124.773 31.1636 124.822C31.1432 124.872 31.1132 124.916 31.0755 124.954C30.9959 125.026 30.8963 125.073 30.7898 125.088C30.6833 125.103 30.5747 125.086 30.4782 125.038C30.4256 125.026 30.376 125.003 30.3324 124.971C30.2887 124.939 30.2519 124.899 30.2241 124.852C30.1963 124.806 30.178 124.754 30.1703 124.701C30.1627 124.647 30.1658 124.593 30.1795 124.541C30.2178 124.341 30.325 124.15 30.3633 123.951C30.4016 123.752 30.3633 123.453 30.011 123.499C29.6588 123.545 29.4367 123.346 29.2912 123.645C29.2428 123.769 29.2426 123.907 29.2908 124.032C29.339 124.157 29.432 124.259 29.5516 124.318C29.5979 124.347 29.6381 124.384 29.6698 124.428C29.7015 124.472 29.7241 124.521 29.7362 124.574C29.7483 124.627 29.7498 124.682 29.7404 124.735C29.7311 124.789 29.7111 124.84 29.6818 124.885C29.5592 125.1 29.3448 125.1 29.1227 125.054C29.0692 125.047 29.0176 125.03 28.9708 125.003C28.924 124.976 28.8831 124.94 28.8503 124.898C28.8175 124.855 28.7935 124.806 28.7798 124.754C28.7661 124.702 28.7629 124.647 28.7705 124.594C28.7705 124.25 29.1534 123.828 28.8164 123.576C28.4795 123.323 28.0506 123.637 27.6601 123.637C27.5811 123.629 27.5016 123.629 27.4227 123.637C27.2006 123.675 26.7794 123.407 26.7947 123.782C26.81 124.158 26.6033 124.686 27.3384 124.801C27.8821 124.877 28.5943 124.977 28.8088 125.567C29.3371 126.953 30.6313 126.608 32.5611 126.424ZM51.3077 73.96C52.242 75.0015 52.242 75.0015 53.3294 74.1438C53.5362 73.983 57.7327 70.3148 58.2381 69.863C58.5827 69.5643 59.1035 69.3116 59.203 68.9517C59.3026 68.5918 58.6593 68.2701 58.4372 67.8719C58.4041 67.8304 58.3734 67.7869 58.3453 67.7417C58.062 67.0985 57.7863 67.1827 57.3498 67.6652C55.4649 69.8837 53.4472 71.9858 51.3077 73.96ZM76.418 66.4476C77.3578 65.5192 78.1948 64.4922 78.9145 63.3844C79.3204 62.833 78.3708 63.1164 78.3784 61.5465C78.3784 61.2249 78.2942 61.064 77.9343 61.0717C77.0069 61.0659 76.0819 60.9787 75.1698 60.8113C74.8864 60.7654 74.7869 60.8113 74.7716 61.1177C74.718 62.4425 74.5265 63.7749 75.5374 64.9466C75.8873 65.4174 76.1924 65.9199 76.4486 66.4476H76.418ZM45.3345 147.721C43.9408 145.883 44.676 147.361 35.6473 136.326C35.0729 135.622 34.5369 135.078 33.549 135.476C33.6026 135.736 33.1814 135.246 39.5375 142.368C41.0691 144.045 42.4322 145.822 44.0557 147.392C44.2128 147.566 44.418 147.691 44.6455 147.749C44.8729 147.808 45.1126 147.798 45.3345 147.721ZM31.9332 135.468C31.6684 135.356 31.3737 135.336 31.0961 135.411C30.8185 135.486 30.574 135.652 30.4016 135.882C29.5705 136.779 28.6883 137.628 27.7596 138.424C21.84 143.578 20.8675 144.75 18.394 147.514C18.5692 147.582 18.7614 147.593 18.943 147.545C19.1247 147.497 19.2863 147.392 19.4048 147.246C22.9428 144.106 26.251 140.714 29.743 137.521C30.4629 136.916 31.1444 136.249 31.9332 135.499V135.468ZM32.9287 103.811C34.5139 103.726 34.4603 103.811 34.2918 102.754C34.0238 101.184 33.7251 99.6293 33.5949 98.0441C33.5949 97.6306 33.4571 97.2783 32.967 97.4391C32.4769 97.6 31.6805 97.0716 31.7111 98.1207C31.7724 99.8591 31.8336 101.605 31.8643 103.351C31.8643 103.765 32.0327 103.849 32.3773 103.818C32.5608 103.805 32.7449 103.802 32.9287 103.811ZM65.2145 63.2236C65.1705 62.7717 65.0327 62.3339 64.8098 61.9383C64.587 61.5427 64.284 61.198 63.9203 60.9262C63.5194 60.7172 63.0632 60.6388 62.6156 60.702C62.1679 60.7651 61.7512 60.9667 61.4238 61.2785C61.3803 61.3066 61.3438 61.3441 61.3168 61.3883C61.2898 61.4324 61.2731 61.4821 61.268 61.5336C61.2628 61.5851 61.2693 61.6371 61.287 61.6857C61.3047 61.7344 61.3332 61.7784 61.3702 61.8145C61.925 62.7206 62.6028 63.5453 63.3842 64.2651C63.7059 64.5254 64.0198 65.1074 64.4563 64.8777C64.7033 64.6749 64.8987 64.4166 65.0265 64.1237C65.1543 63.8309 65.2108 63.5119 65.1915 63.1929L65.2145 63.2236ZM32.1629 113.406C32.7722 113.233 33.3081 112.866 33.6884 112.36C34.0688 111.853 34.2727 111.236 34.2688 110.603C34.2402 109.876 33.9943 109.175 33.5629 108.589C33.1315 108.004 32.5345 107.561 31.8489 107.318C31.9638 109.363 32.071 111.377 32.1629 113.406ZM31.5197 95.7238C31.5886 96.7959 31.5197 96.7959 32.6377 96.7882H32.9517C33.3652 96.8418 33.4188 96.6657 33.3652 96.2828C33.1584 94.7512 32.9211 93.2962 32.8292 91.7953C32.7756 90.9682 32.362 91.0754 31.8107 91.0295C31.1291 91.0295 31.1674 91.3894 31.2057 91.7953C31.3971 93.5949 31.512 95.6012 31.5197 95.7238ZM74.3351 64.5025C74.2355 65.0691 73.7531 65.6588 74.136 66.1106C74.7587 66.9384 75.4559 67.7074 76.2189 68.408C76.5405 68.6684 76.7243 68.699 77.0843 68.408C78.0852 67.4977 79.0362 66.534 79.933 65.521C80.783 64.6403 80.783 64.5101 80.1474 63.2236C79.2595 64.5642 78.2821 65.8434 77.2221 67.0525C76.4563 67.8183 76.0658 67.7341 75.591 66.8228C75.1774 66.08 74.7562 65.2912 74.3351 64.5025ZM29.2759 114.746C29.5056 117.043 28.916 119.341 29.2759 121.699C29.3371 122.067 29.2146 122.465 29.8196 122.419C30.4246 122.373 30.4169 122.128 30.4322 121.653C30.5165 119.662 30.1948 117.679 30.2791 115.696C30.302 114.976 30.0646 114.685 29.2759 114.746ZM30.8917 120.696V121.653C30.8917 121.967 30.6773 122.258 31.1521 122.228C31.4967 122.228 31.9179 122.228 31.8489 121.631C31.78 121.033 31.8489 120.52 31.7877 119.969C31.6805 118.483 31.9638 117.005 31.7877 115.52C31.7188 115.068 31.5886 114.983 31.1674 114.968C30.5854 114.968 30.7692 115.336 30.7615 115.604C30.6773 117.304 30.7845 118.996 30.8917 120.696ZM30.4169 113.582C30.4781 111.579 30.4245 109.575 30.2561 107.578C30.2561 107.303 30.4169 106.904 29.8426 106.95C29.3984 106.989 29.2759 107.188 29.2835 107.617C29.2835 109.202 29.3525 110.795 29.2835 112.38C29.2299 113.245 29.5592 113.574 30.4169 113.582ZM28.9466 98.1896C28.9466 97.9752 29.0998 97.6076 28.6173 97.6689C28.3263 97.6689 28.0123 97.6076 27.9894 98.1284C27.9281 99.8667 27.8132 101.605 27.6984 103.343C27.6984 103.811 27.9281 103.788 28.2344 103.772C28.5407 103.757 28.8547 103.895 28.8317 103.336C28.6862 98.7869 29.0461 99.6523 28.9466 98.1896ZM79.4046 101.368C79.4046 100.541 79.1595 98.0365 79.2208 93.5642C79.2208 92.7985 78.7307 93.1431 78.4091 93.0971C78.0874 93.0512 77.8807 93.166 77.9726 93.5336C78.3835 95.658 78.6572 97.8067 78.792 99.9663C78.7787 100.231 78.8271 100.496 78.9334 100.739C79.0398 100.982 79.201 101.197 79.4046 101.368ZM31.2057 89.8808C31.2057 90.1871 31.2516 90.4398 31.6269 90.3403C32.0021 90.2407 32.5458 90.4322 32.5152 89.988C32.3927 88.4564 32.1399 86.9248 31.9332 85.3932C31.9332 85.1788 31.7494 85.1022 31.5273 85.1022C31.3052 85.1022 31.1674 85.1865 31.1521 85.4086C30.9759 87.4609 31.2287 87.4609 31.2057 89.8808ZM31.7034 111.476C31.7496 110.132 31.6701 108.786 31.466 107.456C31.4652 107.388 31.4494 107.321 31.4198 107.261C31.3902 107.2 31.3475 107.146 31.2949 107.104C31.2422 107.061 31.1808 107.031 31.1151 107.015C31.0494 106.999 30.9809 106.998 30.9147 107.012C30.5777 107.012 30.7385 107.341 30.7462 107.517C30.7462 109.447 30.8228 111.346 30.8534 113.306C30.8534 113.59 30.93 113.773 31.244 113.773C31.5579 113.773 31.7264 113.659 31.7111 113.299C31.6805 112.694 31.7034 112.081 31.7034 111.476ZM60.4972 62.1898C59.8003 63.438 60.0684 64.3646 61.3932 65.4367C61.7016 65.7558 62.1226 65.9416 62.5661 65.9544C63.0097 65.9673 63.4407 65.8063 63.7671 65.5056C62.2892 64.7628 61.4544 63.4227 60.4972 62.1898ZM29.2299 103.244C29.2299 103.489 29.0155 103.902 29.5439 103.849C29.8962 103.849 30.3097 103.902 30.3097 103.229C30.1948 102.103 30.1795 100.931 30.1489 99.8284C30.2242 99.2266 30.2498 98.6195 30.2255 98.0135C30.1642 97.6842 30.057 97.577 29.72 97.5693C29.3831 97.5617 29.3371 97.8144 29.3371 98.0824C29.3065 101.176 29.2223 102.424 29.2299 103.244ZM28.847 113.069C28.9193 111.193 28.8911 109.314 28.7628 107.44C27.101 109.248 27.1087 111.162 28.847 113.069ZM31.3971 100.878C31.3205 99.8973 31.4507 98.9095 31.2823 97.9369C31.2823 97.7225 31.2057 97.531 30.8994 97.5464C30.593 97.5617 30.5624 97.7148 30.5701 97.9522V103.366C30.5701 103.726 30.7232 103.811 31.0525 103.818C31.3818 103.826 31.3971 103.588 31.3971 103.343V100.878ZM30.1029 91.2209C29.1227 91.3741 29.1304 91.3741 29.2529 92.2701C29.3142 92.7295 29.2529 96.3288 29.2529 96.4743C29.2529 96.7653 29.3218 96.9031 29.6511 96.8954C29.9804 96.8878 30.0723 96.8189 30.0723 96.4972C30.1029 94.7512 30.1106 93.0129 30.1106 91.2209H30.1029ZM28.9543 94.4296C28.9978 93.5035 28.9542 92.5754 28.8241 91.6574C28.8241 91.4124 28.7628 91.2592 28.4718 91.2516C28.1808 91.2439 28.1731 91.466 28.1731 91.6727C28.1731 93.2656 28.0966 94.8508 28.0506 96.4436C28.0506 96.7576 28.0966 96.9261 28.4718 96.9261C28.847 96.9261 28.9772 96.7806 28.9619 96.4053C28.9466 95.8233 28.9619 95.2413 28.9619 94.4296H28.9543ZM32.4999 83.0499C33.1508 82.9274 33.8936 83.0959 34.2382 82.3301C34.3496 82.0591 34.377 81.7609 34.3169 81.4742C34.2568 81.1875 34.112 80.9254 33.9013 80.7219C33.7175 80.5075 33.4801 80.1859 33.1967 80.3084C33.0799 80.3938 32.9923 80.5132 32.9457 80.6502C32.8991 80.7872 32.8959 80.9353 32.9364 81.0742C33.2274 82.0314 32.5458 82.0774 31.9408 82.2152C31.7264 82.2688 31.3895 82.1463 31.3588 82.4679C31.3282 82.7896 31.6728 82.8661 31.8949 82.9733C32.094 83.0302 32.3006 83.056 32.5075 83.0499H32.4999ZM28.334 90.57C28.7781 90.4781 28.7781 90.4781 28.8241 90.1871C28.981 88.6865 29.0347 87.1769 28.9849 85.6689C28.9849 85.4545 28.9849 85.2477 28.6709 85.2631C28.3569 85.2784 28.334 85.4239 28.334 85.6689V90.57ZM29.9115 79.6422C29.9334 79.5077 29.9334 79.3707 29.9115 79.2363C29.8502 79.0065 30.1336 78.6007 29.6435 78.5624C29.1534 78.5241 29.3065 78.9989 29.2989 79.2363V84.0684C29.2989 84.2982 29.1687 84.6351 29.6281 84.6351C30.0876 84.6351 29.9115 84.2828 29.9268 84.0684C30.0417 82.5445 29.7047 81.0359 29.9115 79.6422ZM29.3142 87.5911C29.3576 88.4362 29.3088 89.2836 29.1687 90.1182C29.0844 90.4858 29.2299 90.5777 29.5822 90.547C29.9345 90.5164 30.1259 90.2254 30.08 89.8348C29.9396 88.4689 29.891 87.095 29.9345 85.7225C29.9345 85.5311 30.011 85.286 29.6588 85.2784C29.1534 85.2477 29.3678 85.577 29.3142 87.5681V87.5911ZM61.5999 66.9147C60.8985 66.559 60.298 66.0323 59.8539 65.3831C59.785 65.2912 59.7467 65.1457 59.5629 65.2146C59.4414 65.2666 59.3334 65.3457 59.2472 65.4458C59.161 65.546 59.0989 65.6646 59.0656 65.7925C59.0323 65.9204 59.0288 66.0542 59.0553 66.1837C59.0817 66.3132 59.1375 66.4349 59.2183 66.5395C59.3512 66.7017 59.4944 66.8552 59.6472 66.9989C60.5891 67.9562 60.5891 67.9562 61.5999 66.9224V66.9147ZM30.5394 91.1826C30.371 92.9016 30.371 94.6328 30.5394 96.3517C30.5394 96.5279 30.4016 96.8648 30.8534 96.8112C31.3052 96.7576 31.221 96.5049 31.198 96.2445C31.198 95.6931 31.1291 95.1418 31.0372 94.5981C30.8534 93.4647 30.9683 92.293 30.5394 91.1826ZM68.4768 54.4859C68.1475 53.5133 68.3313 52.4872 67.6574 51.6754C67.3281 51.2696 67.1136 51.3615 66.9452 51.8133C66.5699 52.8394 67.1366 53.858 68.4768 54.4859ZM41.3524 133.707C41.0617 133.723 40.7852 133.838 40.5692 134.033C40.3531 134.228 40.2106 134.492 40.1654 134.779C40.1195 135.353 40.556 135.545 40.9312 135.545C41.9268 135.767 42.6849 133.853 41.3524 133.707ZM25.3474 135.116C25.3424 134.974 25.3094 134.833 25.25 134.704C25.1906 134.574 25.1062 134.458 25.0015 134.361C24.8969 134.264 24.7741 134.189 24.6402 134.14C24.5064 134.091 24.3641 134.068 24.2217 134.075C23.7392 134.075 23.7162 134.48 23.6703 134.802C23.5937 135.254 24.191 136.188 24.505 136.165C25.1253 136.112 25.3167 135.683 25.3321 135.116H25.3474ZM84.7728 54.2791C85.1464 54.1181 85.4811 53.879 85.7545 53.5779C86.028 53.2767 86.2337 52.9205 86.358 52.5331C86.4652 52.1196 86.4193 51.7137 85.9674 51.6831C85.5156 51.6525 85.0791 51.6142 85.0179 52.2345C84.9566 52.8548 84.8647 53.5287 84.7728 54.2791ZM27.8515 80.5228C27.65 80.591 27.4648 80.7005 27.3079 80.8442C27.151 80.9879 27.0258 81.1627 26.9402 81.3575C26.3199 82.4296 26.8407 83.3486 28.0506 83.3486C28.2344 83.3486 28.4565 83.4099 28.556 83.2031C28.6556 82.9963 28.4565 82.8202 28.3186 82.7666C27.4456 82.4067 27.4839 81.7787 27.7749 81.0589C27.8177 80.8831 27.8434 80.7036 27.8515 80.5228ZM30.7385 80.2088V79.0525C30.7385 78.8534 30.9147 78.4858 30.5624 78.4782C30.2101 78.4705 30.2638 78.8457 30.2638 79.0984V83.6932C30.2638 83.9612 30.08 84.459 30.4246 84.459C30.953 84.459 30.7462 83.9076 30.7539 83.5783C30.7213 83.3468 30.6596 83.1204 30.5701 82.9044C30.5088 82.6441 30.3327 82.3837 30.4858 82.1386C30.884 81.5337 30.6773 80.8368 30.7385 80.2088ZM30.4169 89.8655C30.4169 90.0263 30.3174 90.302 30.5471 90.3326C30.7768 90.3632 30.7922 90.0416 30.8151 89.8731C30.9913 88.4411 30.6084 87.0167 30.7309 85.5847C30.7309 85.4315 30.7309 85.2631 30.5088 85.2631C30.2867 85.2631 30.2561 85.4009 30.2561 85.5694C30.2225 87.0033 30.2762 88.438 30.4169 89.8655ZM31.1827 81.1278C31.1827 81.6562 31.5886 81.3805 31.8183 81.4264C32.048 81.4724 32.2395 81.3805 32.1399 81.0895C31.4201 78.9223 32.1399 78.4475 31.4737 78.4016C31.2057 78.4016 31.175 78.5318 31.1827 78.7385C31.1904 78.9453 31.2057 80.4079 31.2133 81.1278H31.1827ZM58.4679 66.4935L58.2687 66.6696C58.8048 67.2746 59.1494 68.071 60.0913 68.2778C59.5476 67.6805 59.0116 67.0832 58.4679 66.4935ZM28.9772 79.9178C28.4029 80.6836 28.7551 81.3958 28.579 82.0314C28.579 82.0927 28.7398 82.2765 28.8394 82.2918C28.9389 82.3071 28.9772 82.1157 28.9772 82.0008C28.9849 81.3728 28.9772 80.7372 28.9772 79.9178ZM29.743 105.687C29.8655 105.564 30.2714 105.84 30.2714 105.373C30.2714 104.906 29.9574 105.112 29.743 105.089C29.5286 105.066 29.2835 105.143 29.2912 105.472C29.2989 105.802 29.475 105.717 29.7277 105.679L29.743 105.687ZM31.0066 105.089C30.7922 105.089 30.616 105.089 30.6237 105.373C30.6313 105.656 30.9223 105.664 31.1291 105.71C31.3359 105.756 31.4048 105.58 31.4048 105.388C31.4048 105.197 31.198 105.074 30.9913 105.089H31.0066ZM31.8107 84.413C31.8107 83.9765 31.6498 83.877 31.4507 83.8004C31.2516 83.7238 31.221 83.9076 31.2057 84.0378C31.1904 84.168 31.2057 84.4666 31.489 84.4513C31.6269 84.436 31.7953 84.4437 31.7953 84.4054L31.8107 84.413Z" fill="#3C270B"/>
<path d="M79.4967 45.7331C79.5964 45.573 79.7492 45.4531 79.9284 45.3943C80.1076 45.3355 80.3017 45.3416 80.4769 45.4114C80.9517 45.534 81.7404 45.4114 81.7021 46.1236C81.6638 46.8358 80.8598 46.5984 80.3697 46.5525C79.8795 46.5065 79.1597 46.2768 79.4967 45.7331Z" fill="#3C270B"/>
<path d="M71.8462 41.3526C71.8822 40.8958 72.0153 40.452 72.2367 40.0508C72.2667 39.9604 72.3305 39.8852 72.4147 39.8409C72.499 39.7966 72.5972 39.7868 72.6886 39.8134C72.926 39.9053 72.8877 40.1274 72.8417 40.2882C72.7269 40.6634 72.566 41.054 72.4282 41.3986C72.3593 41.5671 72.2827 41.7662 72.0376 41.7049C71.7926 41.6436 71.8692 41.4062 71.8462 41.3526Z" fill="#3C270B"/>
<path d="M75.4072 53.3449C75.5527 52.916 75.7289 52.3723 75.928 51.8133C75.9411 51.7682 75.9631 51.7263 75.9926 51.6899C76.0222 51.6534 76.0587 51.6233 76.1001 51.6012C76.1415 51.5791 76.1869 51.5654 76.2336 51.5611C76.2803 51.5567 76.3274 51.5618 76.3721 51.5759C76.6325 51.6371 76.6784 51.8439 76.6478 52.066C76.629 52.3028 76.5828 52.5367 76.51 52.7629C76.464 52.8418 76.4359 52.9298 76.4274 53.0207C76.419 53.1116 76.4305 53.2033 76.4611 53.2893C76.4917 53.3753 76.5407 53.4537 76.6047 53.5188C76.6687 53.5839 76.7461 53.6344 76.8316 53.6665C77.0613 53.7967 77.2528 54.0264 77.0843 54.3251C76.9158 54.6237 76.5865 54.6161 76.3185 54.4476C76.0505 54.2791 75.4149 54.0877 75.4072 53.3449Z" fill="#3C270B"/>
<path d="M76.7781 57.825C76.4193 57.8136 76.0667 57.7281 75.7425 57.5739C75.4183 57.4197 75.1295 57.2002 74.8942 56.929C74.838 56.894 74.7971 56.8389 74.78 56.7749C74.763 56.7109 74.7709 56.6428 74.8024 56.5844C74.8168 56.5466 74.8385 56.512 74.8664 56.4826C74.8943 56.4532 74.9277 56.4296 74.9647 56.4133C75.0017 56.3969 75.0417 56.388 75.0821 56.3872C75.1226 56.3863 75.1629 56.3935 75.2006 56.4083C75.4241 56.4869 75.6416 56.5816 75.8515 56.6916C76.0822 56.8711 76.3629 56.9748 76.6549 56.9885C76.9469 57.0023 77.2361 56.9253 77.4826 56.7682C77.6817 56.6303 78.0187 56.5231 78.1642 56.8601C78.3097 57.197 78.057 57.3502 77.8119 57.4804C77.5669 57.6106 77.1304 57.9016 76.7781 57.825Z" fill="#3C270B"/>
<path d="M71.7387 46.1617H72.2059C72.5888 46.1617 72.8721 46.3532 72.8874 46.7744C72.8928 46.8613 72.88 46.9484 72.8498 47.0301C72.8197 47.1118 72.7729 47.1864 72.7124 47.2491C72.6519 47.3117 72.579 47.3611 72.4984 47.3941C72.4178 47.4271 72.3312 47.4429 72.2442 47.4406C71.8814 47.4981 71.5119 47.4981 71.1491 47.4406C70.8734 47.387 70.4369 47.387 70.4828 46.9352C70.4822 46.7423 70.5544 46.5562 70.6851 46.4143C70.8157 46.2723 70.9951 46.1848 71.1874 46.1694H71.7387V46.1617Z" fill="#3C270B"/>
<path d="M72.5889 49.9065C72.5818 50.1126 72.5561 50.3176 72.5123 50.5191C72.4204 50.7948 72.1907 50.9863 71.8997 50.8637C71.3713 50.6417 71.5014 50.0979 71.4555 49.6921C71.4096 49.2862 71.5014 48.9263 71.938 48.9263C72.7497 48.8191 72.5276 49.447 72.5889 49.9065Z" fill="#3C270B"/>
<path d="M80.8751 49.8988C80.8751 50.32 80.9517 50.8177 80.3773 50.8331C79.803 50.8484 79.7494 50.3047 79.7264 49.8605C79.7034 49.4163 79.7264 48.8726 80.3467 48.8956C80.967 48.9186 80.7525 49.5542 80.8751 49.8988Z" fill="#3C270B"/>
</svg>
