<svg width="116" height="116" viewBox="0 0 116 116" fill="none" xmlns="http://www.w3.org/2000/svg">
<path d="M25.499 43.3951C25.6085 44.1208 25.4126 44.3397 24.7042 44.5471C22.3196 45.2037 13.6163 44.7947 13.4608 44.7947C13.3053 44.7947 13.1843 44.7602 13.0922 44.7947C12.8935 44.8946 12.6691 44.9315 12.4489 44.9006C12.2287 44.8698 12.0231 44.7726 11.8596 44.6219C11.1303 44.2154 10.3574 43.8927 9.5556 43.66C9.28488 43.5621 9.03145 43.3951 8.76073 43.2972C8.67057 43.2742 8.5861 43.2329 8.51253 43.1759C8.43897 43.119 8.37789 43.0475 8.33307 42.966C8.28825 42.8844 8.26065 42.7946 8.25198 42.7019C8.24331 42.6093 8.25375 42.5159 8.28266 42.4274C8.37482 41.9781 8.58217 27.6936 8.38058 26.5819C8.31722 26.2305 8.49577 26.0347 8.84137 26.0808C9.72839 26.2075 20.7068 25.4702 22.9186 24.877C23.46 24.733 23.7653 24.9749 23.892 25.5566C25.1534 31.2129 25.4702 43.1992 25.499 43.3951ZM12.3607 44.1842C12.3895 44.1842 21.4498 44.2591 24.1512 43.8386C24.5199 43.781 24.7272 43.6255 24.7272 43.1647C24.7272 43.1013 24.2779 31.1668 23.2584 26.0174C23.1778 25.6085 23.0453 25.5854 22.7228 25.6833C20.9948 26.2075 9.47496 26.7892 9.40584 26.7892C9.07752 26.7892 9.01417 26.9217 9.05449 27.204C9.13512 27.8779 9.05449 41.0278 9.05449 41.9954C9.74567 41.4713 10.4426 40.6764 11.5197 40.3193C12.1591 40.1119 12.3895 40.2329 12.3895 40.8953C12.3664 41.9954 12.3607 43.0725 12.3607 44.1842ZM11.825 43.781C11.7203 42.8962 11.6857 42.0044 11.7213 41.1141C11.7213 40.8434 11.56 40.9759 11.4448 41.0105C10.6269 41.2639 10.1316 41.9493 9.48072 42.4274C8.66857 43.0207 10.6039 42.9861 11.825 43.7752V43.781Z" fill="#FADF8F"/>
<path d="M50.762 9.56714C50.8887 9.6593 50.9693 9.56714 51.0615 9.56714C51.1536 9.56714 51.3667 9.6017 51.3667 9.78026C51.3667 9.95881 51.2055 9.98761 51.0615 9.98185C50.8253 9.98185 50.6352 10.0107 50.5776 10.2871C50.5776 10.3735 50.5143 10.4657 50.3933 10.4426C50.2724 10.4196 50.3012 10.3447 50.2781 10.2699C50.0938 9.69386 49.7021 10.0683 49.4141 10.1143C49.1261 10.1604 49.1031 10.529 49.1319 10.7594C49.1607 10.9898 49.4545 10.8343 49.6215 10.9092C49.7885 10.9841 49.8865 10.9726 49.8577 11.1338C49.849 11.1646 49.8338 11.1931 49.813 11.2173C49.7922 11.2415 49.7663 11.2609 49.7372 11.2741C49.7081 11.2872 49.6765 11.2939 49.6446 11.2935C49.6126 11.2932 49.5812 11.2859 49.5524 11.2721C48.5905 10.8919 48.9764 12.3492 48.6423 12.5565C48.4465 12.6833 48.1066 12.5853 47.8302 12.5565H47.5076C47.3819 12.5373 47.2533 12.5553 47.1378 12.6084C47.0222 12.6614 46.9247 12.7471 46.8573 12.855C46.7899 12.9628 46.7556 13.088 46.7586 13.2151C46.7615 13.3422 46.8017 13.4657 46.874 13.5703C47.0353 13.9216 46.7127 13.8352 46.6263 13.9159C46.5399 13.9965 46.5515 14.3363 46.3095 14.3075C46.0676 14.2787 46.2059 14.0138 46.154 13.864C46.1022 13.7143 45.9294 13.7546 45.8315 13.7834C45.4686 13.8871 45.0769 13.5069 44.7429 13.841C44.6622 13.9274 44.6737 14.106 44.6277 14.2327C44.5528 14.4515 44.6277 14.5379 44.8523 14.5207C45.2101 14.4841 45.568 14.5896 45.8488 14.8144C45.5613 14.9107 45.2541 14.9325 44.956 14.8778C44.5931 14.8432 44.38 14.9584 44.38 15.3155C44.38 15.6726 44.0632 15.759 44.1438 16.0816C44.1841 16.2429 43.9941 16.168 42.4504 16.191C42.1797 16.191 41.7477 16.9168 41.8744 17.1299C42.0011 17.343 42.1566 17.1875 42.3064 17.2048C42.4562 17.2221 42.675 17.1645 42.675 17.3603C42.675 17.5561 42.4562 17.4813 42.3294 17.4813C41.9896 17.4813 41.6325 17.4237 41.5519 17.9075C41.5173 18.1264 41.1717 18.0169 41.2293 17.8326C41.356 17.4294 41.0795 17.487 40.8491 17.487C40.6188 17.487 40.3653 17.5158 40.3768 17.3373C40.3884 17.1587 40.4575 17.2221 40.5439 17.2105L41.1832 17.1299C41.3157 17.1299 41.4251 17.0665 41.4482 16.9225C41.4712 16.7786 41.7016 16.4963 41.5115 16.289C41.3215 16.0816 40.6418 16.3235 40.5324 16.456C40.4229 16.5885 40.3941 16.7555 40.2386 16.6864C40.0831 16.6173 40.2386 16.3235 40.5208 15.3501C40.5669 15.1773 40.757 14.9354 40.6188 14.849C40.5121 14.7867 40.3909 14.7539 40.2674 14.7539C40.1439 14.7539 40.0227 14.7867 39.916 14.849C39.7548 14.9584 39.6626 14.9872 39.5301 14.849C39.3976 14.7107 39.2537 14.6301 39.4956 14.417C39.7375 14.2039 39.7548 13.841 39.8412 13.53L39.2652 13.3917C39.2275 13.386 39.1926 13.3684 39.1657 13.3414C39.1387 13.3145 39.1211 13.2796 39.1154 13.242C39.1154 13.144 39.2018 13.1268 39.2767 13.1095C39.4102 13.0749 39.5478 13.0594 39.6856 13.0634C39.8815 13.1037 40.037 13.1268 40.1868 12.9597C40.3365 12.7927 40.4056 12.8676 40.5439 12.9597C40.6104 13.0243 40.6915 13.0719 40.7803 13.0984C40.8691 13.125 40.9631 13.1297 41.0541 13.1121C41.1451 13.0946 41.2306 13.0554 41.3032 12.9978C41.3758 12.9401 41.4335 12.8658 41.4712 12.7812C41.7304 12.1361 41.8514 12.0497 42.531 12.0612C42.8709 12.0612 43.2165 12.1245 43.4066 11.7271C43.4164 11.704 43.4307 11.6831 43.4486 11.6656C43.4665 11.648 43.4877 11.6342 43.511 11.6248C43.5342 11.6155 43.5591 11.6108 43.5842 11.611C43.6093 11.6113 43.634 11.6165 43.6571 11.6263C43.6802 11.6361 43.7011 11.6504 43.7186 11.6683C43.7362 11.6863 43.75 11.7074 43.7594 11.7307C43.7688 11.754 43.7734 11.7789 43.7732 11.8039C43.7729 11.829 43.7677 11.8538 43.7579 11.8769C43.6542 12.1994 43.8731 12.1418 44.0517 12.1476C44.8523 12.1476 44.8696 12.1476 44.979 11.5313C44.979 11.4506 45.0539 11.3758 44.9214 11.3066C44.6219 11.1511 44.6795 11.0186 44.979 10.9553C45.0472 10.9486 45.1113 10.9195 45.1613 10.8727C45.2113 10.8258 45.2444 10.7637 45.2555 10.6961C45.3592 10.3274 45.4859 9.95881 45.5953 9.59594C45.6644 9.35402 45.5953 9.25035 45.3246 9.25611C45.2152 9.25611 45.0942 9.22155 45.0942 9.08331C45.0963 9.06003 45.1031 9.03741 45.1142 9.01684C45.1254 8.99627 45.1405 8.97817 45.1588 8.96363C45.1771 8.94909 45.1982 8.93842 45.2208 8.93226C45.2433 8.9261 45.2669 8.92458 45.29 8.92779C45.82 9.00843 45.866 8.60524 45.9812 8.2654C46.0388 8.08684 46.0964 7.91405 46.1655 7.74125C46.2347 7.56845 46.298 7.47629 46.4708 7.53965C46.6436 7.60301 46.6033 7.71821 46.563 7.85069C46.5227 7.98317 46.4996 8.11564 46.4593 8.24812C46.3153 8.72043 46.3729 8.82411 46.8683 8.69163C47.2081 8.62252 47.6286 8.69163 47.8129 8.2654C47.8474 8.17324 48.0548 8.11564 48.0721 8.2654C48.147 8.70891 48.4234 8.47852 48.6481 8.47276C48.8727 8.467 48.9591 8.47276 49.1089 8.47276C49.5409 8.51308 49.6503 8.68587 49.5639 9.12363C49.5293 9.29643 49.3565 9.52106 49.5121 9.6305C49.6676 9.73994 49.9901 9.67658 50.232 9.6305C50.3818 9.6305 50.3184 9.49802 50.4336 9.05451C50.4797 8.87595 50.5431 8.62828 50.762 8.68587C50.9808 8.74347 50.8887 8.97963 50.8368 9.15819C50.785 9.33674 50.7908 9.42314 50.762 9.56714ZM43.6197 15.8512C43.7349 15.8512 43.9019 15.9088 43.9422 15.759C43.9825 15.6093 44.1438 15.281 44.0459 15.0506C43.948 14.8202 43.7176 14.8605 43.5275 14.8432C43.3374 14.8259 43.0955 14.8432 42.8824 14.8432C42.7787 14.8432 42.652 14.8432 42.6059 14.9469C42.5022 15.2176 42.2546 15.5229 42.3525 15.7533C42.4504 15.9837 42.7902 15.8224 43.0206 15.8627L43.6197 15.8512ZM45.7336 13.4436C46.3095 13.4436 46.4651 13.3168 46.4535 12.7697C46.4535 12.3492 46.0331 12.5047 45.7912 12.4298C45.7148 12.4182 45.6371 12.4182 45.5608 12.4298C45.4667 12.4171 45.371 12.4278 45.282 12.461C45.1931 12.4942 45.1138 12.5488 45.0511 12.6201C44.9884 12.6913 44.9443 12.777 44.9226 12.8694C44.901 12.9618 44.9026 13.0581 44.9272 13.1498C44.9272 13.4896 45.3016 13.3572 45.5032 13.4378C45.5789 13.4542 45.6571 13.4561 45.7336 13.4436ZM43.8443 14.5552C43.9941 14.5552 44.1611 14.6071 44.2072 14.4746C44.6104 13.3226 44.2072 13.6855 43.8673 13.6336L43.4584 13.5645C43.0955 13.4954 43.1186 13.5242 42.8478 14.4112C43.0898 14.5379 42.9515 14.3651 43.8443 14.5552ZM48.4234 11.5716C48.458 11.3124 48.3831 11.1569 48.0433 11.2951C47.9365 11.3126 47.8275 11.3126 47.7207 11.2951C47.6207 11.2886 47.5206 11.3065 47.4291 11.3474C47.3376 11.3883 47.2575 11.4509 47.1956 11.5298C47.1338 11.6087 47.0921 11.7014 47.0742 11.8001C47.0563 11.8987 47.0627 12.0002 47.0929 12.0957C47.1332 12.4529 47.4673 12.1821 47.6689 12.2628C47.7146 12.2714 47.7614 12.2714 47.8071 12.2628C48.3486 12.234 48.4119 12.1706 48.4234 11.5716ZM45.9928 12.1476C46.1771 12.0612 46.4881 12.3319 46.6494 12.0036C46.9431 11.4276 46.8683 11.3124 46.2289 11.3182H45.7681C45.3188 11.2894 45.3361 11.6695 45.2958 11.8941C45.2382 12.234 45.555 12.0842 45.722 12.1245C45.8115 12.1391 45.9022 12.1449 45.9928 12.1418V12.1476ZM42.1451 14.8432H41.4079C41.1659 14.8432 40.6936 15.6784 40.7915 15.8915C40.8049 15.9144 40.825 15.9325 40.8491 15.9434C41.2461 15.9511 41.6318 15.8115 41.932 15.5517C42.0461 15.3286 42.1183 15.0866 42.1451 14.8375V14.8432ZM44.1265 12.4413C44.0498 12.4471 43.9728 12.4471 43.8961 12.4413C43.4872 12.378 43.372 12.6717 43.3202 12.9597C43.2683 13.2477 43.6024 13.242 43.8155 13.2708H44.1841C44.3051 13.2708 44.5297 13.2708 44.5989 13.0173C44.7889 12.4586 44.7659 12.4298 44.1265 12.4356V12.4413ZM46.6551 9.8321H46.7934C47.2427 9.8321 47.5882 9.5441 47.4846 9.18123C47.3809 8.81835 47.0411 9.05451 46.7991 9.07179C46.6609 9.07179 46.5227 9.07179 46.3844 9.10635C46.0446 9.16395 46.0907 9.48074 46.0676 9.68234C46.0446 9.88394 46.2923 9.8033 46.4247 9.82634C46.5011 9.83696 46.5784 9.83889 46.6551 9.8321ZM46.5054 10.9438C46.9662 11.0417 47.0814 10.7249 47.0814 10.3966C47.0814 10.0683 46.7243 10.2583 46.5054 10.2123C46.3379 10.1805 46.166 10.1805 45.9985 10.2123C45.6529 10.2411 45.6702 10.5636 45.6356 10.7882C45.6011 11.0129 45.866 10.938 46.0043 10.961C46.1425 10.9841 46.4017 10.9438 46.5054 10.9438ZM41.3215 14.4343C42.4734 14.4803 42.3006 14.6474 42.5829 13.576C41.644 13.4551 41.5691 13.5069 41.3445 14.4343H41.3215ZM48.3831 9.75146C48.579 9.68234 48.8439 9.86666 48.9591 9.5441C49.0743 9.22155 49.2586 9.04299 49.1434 8.87019C49.0282 8.69739 48.6538 8.90475 48.4004 8.90475C47.9396 8.90475 47.9626 9.30219 47.9511 9.56138C47.9396 9.82058 48.2046 9.67082 48.3831 9.75146ZM47.9511 10.9438C48.5271 10.9438 48.6711 10.8401 48.6884 10.3678C48.6884 9.97609 48.3946 10.1431 48.2218 10.1316C47.7092 10.1316 47.5134 10.2814 47.5076 10.7076C47.5019 11.1338 47.8071 10.8746 47.9511 10.9438ZM40.0946 14.4343C40.5554 14.4976 40.9759 14.5725 41.068 13.9735C41.068 13.8352 41.333 13.6279 41.068 13.5703C40.8031 13.5127 40.5324 13.386 40.3711 13.697C40.2632 13.9366 40.1709 14.1828 40.0946 14.4343ZM42.9746 12.4241C42.3064 12.4241 41.909 12.2973 41.8571 13C41.8571 13.2535 42.1106 13.1152 42.2546 13.1498C42.8133 13.2823 42.917 12.9194 42.9918 12.4241H42.9746Z" fill="#FADF8F"/>
<path d="M47.1618 18.3279C47.6572 17.9362 48.141 17.5618 48.6191 17.1759C48.9474 16.9052 48.6652 16.4271 48.9071 16.3465C48.9289 16.3375 48.9524 16.3335 48.976 16.3346C48.9995 16.3357 49.0225 16.342 49.0434 16.353C49.0643 16.364 49.0825 16.3794 49.0967 16.3982C49.111 16.417 49.121 16.4386 49.1259 16.4617C49.2008 16.767 49.3218 16.5827 49.4312 16.4963C49.7826 16.2198 50.1282 15.9203 50.4853 15.6726C50.8424 15.4249 50.3183 15.1945 50.7272 14.918C50.877 14.8144 50.9576 14.918 50.9979 15.0448C51.0382 15.1715 51.1534 15.1139 51.2283 15.0448L52.3285 14.2038C52.5761 14.0195 52.4725 13.7545 52.5013 13.5184C52.5013 13.3686 52.3976 13.1152 52.6395 13.0979C52.8814 13.0806 52.8526 13.3398 52.8757 13.5126C52.8757 13.5587 52.8757 13.599 52.916 13.7142C53.4113 13.3168 53.8779 12.9482 54.3329 12.5622C54.5057 12.424 54.4251 12.2166 54.4481 12.0381C54.4711 11.8595 54.3732 11.7213 54.5633 11.6867C54.7534 11.6522 54.7476 11.8538 54.811 11.9632C54.8351 12.0127 54.8621 12.0608 54.8916 12.1072C55.3351 11.7501 55.7671 11.4103 56.1934 11.0589C56.3662 10.9149 56.3028 10.7133 56.2855 10.5348C56.2682 10.3562 56.13 10.2583 56.3489 10.1949C56.5678 10.1316 56.5678 10.3101 56.6138 10.4426C56.6439 10.5058 56.6806 10.5657 56.7233 10.6211L57.8061 9.79172C58.0423 9.60164 58.2554 9.40581 58.1057 9.04869C58.0916 9.02074 58.0844 8.98983 58.0848 8.95855C58.0851 8.92726 58.0929 8.89651 58.1076 8.86888C58.1223 8.84124 58.1433 8.81752 58.1691 8.7997C58.1948 8.78188 58.2244 8.77048 58.2554 8.76646C58.4052 8.76646 58.4282 8.87013 58.4397 8.97957C58.4442 9.03364 58.4654 9.08496 58.5006 9.12629C58.5357 9.16762 58.5829 9.19689 58.6356 9.20997C58.866 9.29061 58.8429 9.45765 58.722 9.6074C58.6681 9.67433 58.6316 9.75345 58.6155 9.83782C58.5994 9.92219 58.6044 10.0092 58.6298 10.0912C58.7175 10.4544 58.7014 10.8349 58.5832 11.1893C58.4651 11.5437 58.2497 11.8578 57.9617 12.0957C57.4721 12.5738 57.0055 13.0634 56.5274 13.5472C56.3719 13.7027 56.2049 13.8121 56.0033 13.6509C55.9531 13.6214 55.9115 13.5793 55.8826 13.5288C55.8537 13.4783 55.8385 13.4211 55.8385 13.3629C55.8385 13.3047 55.8537 13.2475 55.8826 13.197C55.9115 13.1465 55.9531 13.1044 56.0033 13.0749C56.5793 12.6486 56.3777 12.1418 56.2222 11.5715C55.7729 11.9229 55.3294 12.2454 54.9204 12.6026C54.6958 12.7984 54.834 13.0979 54.8167 13.3513C54.8167 13.4377 54.8974 13.5357 54.8801 13.6105C54.8628 13.6854 54.8225 13.9504 54.6324 13.9561C54.2868 13.9561 54.3617 13.4089 54.3617 13.0403L53.0715 14.0771C52.8469 14.2557 52.9736 14.5091 52.9448 14.728C52.916 14.9468 53.06 15.206 52.8008 15.2406C52.5416 15.2752 52.5473 14.9526 52.5013 14.7568C52.5013 14.7107 52.5013 14.6646 52.4609 14.5724C52.0289 14.9296 51.62 15.2694 51.1995 15.6035C50.9288 15.8166 51.044 16.1103 51.0037 16.3753C50.9634 16.6403 51.1362 16.8937 50.8136 16.8937C50.491 16.8937 50.5832 16.5827 50.5659 16.3753V16.1334C50.1282 16.4847 49.7077 16.8015 49.3275 17.1471C49.2243 17.252 49.1519 17.3832 49.1184 17.5265C49.0849 17.6698 49.0915 17.8195 49.1375 17.9593C49.1835 18.1551 49.2296 18.374 48.9992 18.4143C48.7688 18.4546 48.7343 18.1954 48.7228 17.9996V17.6252C48.2101 18.0284 47.7205 18.374 47.2828 18.7772C47.1763 18.9001 47.1038 19.0488 47.0724 19.2085C47.0411 19.3681 47.0521 19.5332 47.1042 19.6873C47.1388 19.8485 47.2137 20.0271 47.0121 20.0674C46.8105 20.1077 46.7356 19.9119 46.7125 19.7333C46.7033 19.5895 46.7033 19.4452 46.7125 19.3013C46.1879 19.6657 45.6876 20.0639 45.215 20.4936C45.0825 20.5973 45.1574 20.7528 45.1286 20.8853C45.0998 21.0178 45.238 21.2712 44.9788 21.3C44.7196 21.3288 44.7945 21.0639 44.7139 20.8911C44.3452 21.1848 43.9939 21.4671 43.6195 21.7435C43.3891 21.9106 43.4006 22.1525 43.3257 22.3829C43.2048 22.7515 42.9456 22.2043 42.7497 22.452C42.4644 22.7331 42.154 22.9876 41.8224 23.2123C41.5632 23.4082 41.6208 23.6731 41.6323 23.9323C41.6323 24.0475 41.6841 24.2088 41.5344 24.2549C41.3846 24.3009 41.2925 24.1569 41.2694 24.0129C41.2464 23.8689 41.2291 23.7998 41.0736 23.8286C40.8372 23.9223 40.6362 24.0877 40.4988 24.3016C40.3614 24.5154 40.2945 24.767 40.3075 25.0209C40.3107 25.0823 40.3107 25.1438 40.3075 25.2052C40.3075 25.3377 40.3651 25.5163 40.1866 25.5566C40.008 25.5969 39.9792 25.3435 39.8755 25.0152C39.8755 24.9633 39.8755 24.8942 39.7661 24.8885C39.6567 24.8827 39.0346 25.4644 39.0576 25.5854C39.0807 25.7064 39.1901 25.9137 39.0173 26.0001C38.8445 26.0865 38.8503 25.81 38.7408 25.7755C38.3146 25.6315 38.4874 25.4299 38.6083 25.1476C38.7293 24.8654 38.6083 24.6696 38.568 24.4277C38.568 24.3125 38.5047 24.1454 38.6775 24.1224C38.8503 24.0993 38.9194 24.5717 38.9539 24.9057C39.4781 24.612 39.8813 24.2952 39.7661 23.6328C39.7442 23.4414 39.7442 23.2482 39.7661 23.0568C39.7661 22.9416 39.8122 22.8322 39.9504 22.8322C40.0886 22.8322 40.1232 22.9474 40.129 23.0626V23.8574C40.4637 23.7768 40.7593 23.5807 40.9637 23.3036C41.1681 23.0265 41.2682 22.6862 41.2464 22.3426C41.2464 22.0891 41.2464 21.8299 41.4192 21.8184C41.592 21.8069 41.6093 21.9451 41.615 22.0719V22.8091L42.7209 21.9336C42.7893 21.8831 42.8433 21.8156 42.8776 21.7378C42.9119 21.66 42.9254 21.5747 42.9168 21.4901V20.7932C42.9168 20.6664 42.9513 20.5282 43.1126 20.5397C43.2739 20.5512 43.2624 20.6664 43.2854 20.7759C43.4121 21.3519 43.4121 21.3519 43.8614 20.9775L44.0515 20.845C44.4835 20.534 44.8982 20.2172 44.7715 19.5836C44.7764 19.4754 44.7977 19.3685 44.8348 19.2668C44.8348 19.1573 44.8348 19.0306 44.9961 19.0306C45.1574 19.0306 45.1804 19.1631 45.2035 19.2898C45.2898 19.8197 45.2956 19.8255 45.7449 19.4914C45.981 19.3129 46.1942 19.117 46.4361 18.95C46.5642 18.8802 46.6673 18.7723 46.7313 18.6412C46.7953 18.5101 46.8169 18.3624 46.7932 18.2185C46.7932 18.0457 46.7932 17.775 46.9833 17.7634C47.1733 17.7519 47.1157 18.0226 47.1445 18.1782C47.1471 18.2284 47.1529 18.2784 47.1618 18.3279ZM56.8442 12.0957C57.1953 11.729 57.5811 11.3973 57.9962 11.105C58.4397 10.8515 58.3879 10.5693 58.2842 10.1949C58.2381 10.0164 58.1805 9.99332 58.0481 10.1028C56.6254 11.2317 56.4468 11.2317 56.8442 12.0957Z" fill="#FADF8F"/>
<path d="M39.985 6.37607C40.2615 8.4266 38.257 10.097 36.6385 10.0336C36.169 10.022 35.7066 9.91627 35.2786 9.72282C34.8506 9.52937 34.4657 9.25207 34.1468 8.90733C33.8278 8.56258 33.5812 8.15738 33.4215 7.71569C33.2618 7.274 33.1923 6.80477 33.2171 6.33575C33.2362 5.42517 33.6065 4.5572 34.2505 3.91318C34.8945 3.26917 35.7625 2.89892 36.6731 2.87981C38.4183 2.87981 40.1751 4.51562 39.985 6.37607ZM33.7758 6.54311C33.7558 6.92378 33.8131 7.30456 33.9442 7.66248C34.0753 8.0204 34.2776 8.34805 34.5389 8.62566C34.8001 8.90327 35.1148 9.12509 35.4641 9.27773C35.8134 9.43036 36.19 9.51066 36.5712 9.51378C36.9524 9.51689 37.3303 9.44276 37.682 9.29585C38.0338 9.14894 38.3521 8.9323 38.6178 8.659C38.8836 8.38569 39.0912 8.06139 39.2281 7.70566C39.3651 7.34993 39.4286 6.97013 39.4148 6.58919C39.4389 6.20388 39.3853 5.81766 39.2572 5.45348C39.129 5.0893 38.929 4.7546 38.6689 4.46927C38.4088 4.18395 38.0941 3.95383 37.7433 3.79259C37.3925 3.63135 37.0129 3.54228 36.627 3.53068C36.2415 3.53961 35.8615 3.62481 35.5091 3.78136C35.1567 3.93791 34.8388 4.1627 34.5737 4.44278C34.3086 4.72285 34.1016 5.05265 33.9647 5.41314C33.8277 5.77364 33.7636 6.15768 33.7758 6.54311Z" fill="#FADF8F"/>
<path d="M40.7339 26.1441C40.3883 26.1441 40.3192 25.9598 40.3768 25.6891C40.3903 25.6042 40.4227 25.5234 40.4716 25.4526C40.5204 25.3818 40.5845 25.3229 40.659 25.2801C41.1689 24.9953 41.646 24.6554 42.0817 24.2664C42.6174 23.8171 43.1876 24.3873 42.8593 24.6753C42.2298 25.2121 41.5596 25.6993 40.8549 26.1326C40.8163 26.1472 40.7745 26.1512 40.7339 26.1441Z" fill="#FADF8F"/>
<path d="M37.3356 6.80241C37.3451 6.76437 37.3627 6.7288 37.3871 6.69806C37.4115 6.66733 37.4421 6.64214 37.477 6.62416C37.5118 6.60618 37.5501 6.59583 37.5893 6.59379C37.6285 6.59175 37.6676 6.59807 37.7042 6.61233C38.1592 6.77937 37.9634 7.724 37.1858 7.96591C36.714 8.11868 36.2061 8.11868 35.7343 7.96591C35.55 7.90832 35.3138 7.85072 35.3657 7.58C35.4175 7.30928 35.6364 7.44176 35.7919 7.43024C36.3276 7.37264 37.0936 7.64912 37.3356 6.80241Z" fill="#FADF8F"/>
<path d="M35.5787 6.63536C35.1697 6.63536 34.5822 5.36818 35.3713 5.32786C35.8263 5.30482 36.2295 6.63536 35.5787 6.63536Z" fill="#FADF8F"/>
<path d="M36.8172 4.81514C37.1974 4.91882 37.1628 5.29321 37.3183 5.53513C37.3434 5.57422 37.3603 5.61796 37.368 5.66372C37.3758 5.70949 37.3742 5.75635 37.3635 5.80151C37.3527 5.84666 37.333 5.88919 37.3054 5.92655C37.2779 5.96391 37.2431 5.99534 37.2031 6.01896C37.1621 6.05314 37.1125 6.07549 37.0598 6.0836C37.007 6.09172 36.953 6.08531 36.9036 6.06504C36.7185 5.9453 36.5861 5.7593 36.5336 5.54513C36.4811 5.33096 36.5125 5.10483 36.6214 4.91306C36.6804 4.8692 36.7467 4.83606 36.8172 4.81514Z" fill="#FADF8F"/>
<path d="M90.9607 36.391C91.865 36.2355 92.8039 36.2816 93.7139 36.1433C95.1827 35.9302 96.64 36.224 98.103 36.1433C98.2587 36.13 98.4136 36.177 98.5358 36.2745C98.6579 36.372 98.7381 36.5127 98.7596 36.6675C99.0994 37.9807 99.3356 39.3113 99.5372 40.6476C99.5775 40.901 99.4162 40.9125 99.278 40.9356C97.2851 41.31 92.8039 41.8456 92.5043 41.8629C91.7325 41.909 90.9549 41.9436 90.2004 41.9263C89.0484 41.9263 87.8964 41.9263 86.7444 41.8744C86.3009 41.8744 86.1684 41.5461 86.0936 41.166C85.9611 40.2041 85.8344 39.2479 85.7019 38.286C85.5809 37.4336 85.218 36.6963 86.0187 36.7827C87.6748 36.8121 89.3299 36.6809 90.9607 36.391Z" fill="#F4B77D"/>
<path d="M93.1033 43.9077C93.1033 42.8882 93.1033 42.8652 94.0249 42.7039C95.9257 42.3641 97.8437 42.0876 99.7387 41.7017C100.695 41.5802 101.663 41.5802 102.619 41.7017C105.533 41.8342 106.132 41.3734 106.075 42.4678C106.011 43.781 106.322 45.0712 106.265 46.3845C106.265 46.9605 106.144 47.0987 105.562 47.0872C104.571 47.0872 106.944 47.2197 100.13 47.1736C98.4024 47.1736 96.7205 47.3982 95.0099 47.3925C94.4339 47.3925 93.7139 48.0376 93.5065 47.0642C93.3798 46.4882 93.2761 45.8603 93.2012 45.2498C93.1079 44.809 93.0749 44.3575 93.1033 43.9077Z" fill="#F4B77D"/>
<path d="M98.5349 83.5186C96.5016 83.4034 92.6367 83.8354 89.319 83.5186C88.3283 83.4265 88.2938 83.3804 88.2246 82.3667C88.167 81.5084 88.167 80.6387 88.0346 79.792C87.9597 79.3024 88.1267 79.1872 88.6106 79.1238C92.0147 78.6746 94.8946 78.9741 97.0546 78.7897C97.9321 78.7601 98.8105 78.8025 99.6811 78.9165C100.171 78.9568 100.666 78.9165 101.161 78.9453C101.847 78.9453 101.933 79.1411 102.135 79.792C102.498 80.944 102.031 82.0211 102.095 83.1385C102.095 83.4265 101.864 83.4956 101.605 83.4956L98.5349 83.5186Z" fill="#F4B77D"/>
<path d="M22.1354 83.9967C20.874 83.9967 19.4743 83.8815 18.0689 83.8931C16.7787 83.8931 15.4884 84.0083 14.1925 83.8931C13.4437 83.8412 12.7006 84.0659 11.9461 84.0601C11.8504 84.0729 11.7532 84.0662 11.6602 84.0404C11.5672 84.0146 11.4804 83.9702 11.405 83.9099C11.3296 83.8496 11.2673 83.7747 11.2217 83.6896C11.1761 83.6046 11.1482 83.5111 11.1397 83.415C10.8982 82.1332 10.7481 80.8359 10.6904 79.5328C10.6904 79.2218 10.7883 79.1527 11.0821 79.1296C13.4437 78.9741 12.8965 78.6112 20.0733 79.4925C21.185 79.625 22.3082 79.6998 23.4256 79.7805C23.6387 79.7805 23.7885 79.8438 23.8346 80.0627C24.0302 81.152 24.1285 82.2565 24.1283 83.3631C24.1342 83.4484 24.121 83.5338 24.0898 83.6133C24.0586 83.6929 24.0101 83.7644 23.9477 83.8229C23.8854 83.8813 23.8109 83.9252 23.7296 83.9512C23.6482 83.9773 23.5621 83.985 23.4774 83.9737C23.08 83.9852 22.6768 84.0025 22.1354 83.9967Z" fill="#F4B77D"/>
<path d="M41.6211 21.3979C41.5052 21.3774 41.4004 21.3163 41.3255 21.2255C41.2505 21.1348 41.2104 21.0203 41.2122 20.9026C41.1605 20.3109 41.0267 19.7294 40.8147 19.1746C40.5843 18.6389 40.8147 18.4546 41.2122 18.2127C43.6098 16.6037 45.8907 14.8272 48.0377 12.8963C49.276 11.8365 50.3762 10.6211 51.701 9.64772C51.8282 9.51834 51.9958 9.43636 52.176 9.4154C52.3562 9.39445 52.5382 9.43577 52.6917 9.53252C53.1755 9.79748 53.8437 9.84356 54.4196 10.1085C54.7019 10.2295 55.0417 10.3159 55.1108 10.6557C55.18 10.9955 54.8401 11.1683 54.6155 11.3642C54.4138 11.5341 54.2215 11.7148 54.0395 11.9056C53.1059 12.825 52.1172 13.6867 51.0789 14.486C49.9269 15.4019 48.8325 16.3119 47.6978 17.2047C46.2576 18.4364 44.7333 19.5661 43.136 20.5858C41.4714 21.5419 41.7766 21.421 41.6211 21.3979Z" fill="#F4B77D"/>
<path d="M27.4748 78.4095C27.4748 79.3945 27.4748 79.4118 26.605 79.3542C21.0582 78.9683 20.9891 78.8991 17.3258 78.5247C17.1357 78.5247 17.0263 78.4787 16.9917 78.2483C16.8247 77.1654 16.7268 76.0825 16.6346 74.9939C16.6 74.6138 16.8362 74.199 17.0839 74.4179C17.5984 74.743 18.2059 74.8888 18.8119 74.8326C20.4304 74.9651 26.2364 74.7462 26.4783 74.729C27.0082 74.6886 27.0543 74.8038 27.1234 75.305C27.1061 75.3453 27.0716 75.017 27.4748 78.4095Z" fill="#F4B77D"/>
<path d="M39.7031 41.8917C40.3655 42.0645 41.1373 42.2776 41.9091 42.4677C43.9597 42.9458 46.0275 43.3777 48.0665 43.8961C50.2149 44.4376 52.3403 45.0481 54.4773 45.6241C55.6271 45.8282 56.7594 46.1209 57.8641 46.4996C59.0909 47.0295 60.0644 46.3268 61.1472 46.1943C61.7635 46.1195 62.0861 45.7912 62.2992 46.1943C62.3799 46.3556 62.2647 46.4651 62.1437 46.5399C62.0286 46.6153 61.9022 46.6717 61.7693 46.707C60.8708 46.9316 59.9837 47.1851 59.0737 47.3406C58.3134 47.4788 51.4533 45.4225 47.5538 44.4606C43.2857 43.395 40.976 42.9918 39.49 42.5022C39.2999 42.4389 39.0695 42.3582 39.1098 42.1106C39.1501 41.8629 39.392 41.9147 39.7031 41.8917Z" fill="#F4B77D"/>
<path d="M57.9219 52.6224C55.0419 51.7526 52.064 51.1767 49.1322 50.4624C46.3675 49.7885 43.643 48.9591 40.8956 48.2737C39.2367 47.8647 37.5721 47.4788 35.942 46.9719C35.7001 46.9028 35.2624 46.9143 35.3257 46.563C35.3891 46.2116 35.7635 46.3902 36.0054 46.4478C43.4069 48.1354 46.402 49.1837 50.8199 50.1687C53.1238 50.6755 55.4278 51.2631 57.6857 51.8275C57.9967 51.9082 58.3769 51.9485 58.4345 52.4035C58.302 52.6051 58.2559 52.7203 57.9219 52.6224Z" fill="#F4B77D"/>
<path d="M52.5248 38.6662C52.2733 38.6425 52.0346 38.5443 51.8394 38.384C50.5664 37.543 49.1034 37.232 47.6865 36.7482C47.5137 36.6906 47.3178 36.7482 47.1393 36.679C46.7822 36.5984 46.6785 36.3334 46.9262 36.0685C47.5022 35.4349 48.1588 34.8647 48.7233 34.208C49.0055 33.8797 49.4778 33.9776 49.8119 34.3578C50.7911 35.5098 51.6839 36.6618 52.7437 37.7389C52.8424 37.8144 52.9158 37.9183 52.9538 38.0367C52.9919 38.1551 52.993 38.2823 52.9568 38.4012C52.93 38.4908 52.8711 38.5673 52.7914 38.6162C52.7117 38.6651 52.6168 38.6829 52.5248 38.6662Z" fill="#F4B77D"/>
<path d="M41.5867 58.4975C42.8078 58.6358 43.9828 58.751 45.1578 58.8949C45.6301 58.9583 57.7432 60.6748 57.9218 60.7612C58.1004 60.8476 58.4114 60.9858 58.302 61.2968C58.1925 61.6079 57.9794 61.533 57.726 61.4869C56.286 61.245 43.4011 59.3385 42.0014 59.1426C41.8346 59.1188 41.6718 59.0723 41.5176 59.0044C41.362 58.9353 41.0913 58.918 41.1374 58.6818C41.1835 58.4457 41.4715 58.5206 41.5867 58.4975Z" fill="#F4B77D"/>
<path d="M57.8354 57.1036C56.5855 56.9193 48.5792 55.6118 45.9642 55.1568C44.8122 54.9552 43.6602 54.7305 42.5082 54.4368C42.2991 54.4017 42.1016 54.3168 41.9323 54.1891C41.8343 54.097 41.7019 54.0048 41.8171 53.8435C41.8531 53.7833 41.9096 53.7381 41.9761 53.7159C42.0427 53.6937 42.115 53.6961 42.1799 53.7226C43.4636 54.05 44.7657 54.3001 46.0794 54.4713C48.6483 54.863 50.6355 55.3065 57.0232 56.2512C57.3763 56.2669 57.7273 56.3151 58.0715 56.3952C58.2904 56.47 58.5554 56.5622 58.4978 56.8559C58.4402 57.1497 58.1752 57.0979 57.8354 57.1036Z" fill="#F4B77D"/>
<path d="M32.0079 13.8237C32.0079 14.9756 31.9158 15.1542 32.198 15.4307C32.3823 15.6092 32.6012 15.8224 32.3305 16.0988C32.1519 16.2774 31.4665 16.2486 31.357 16.0239C31.1151 15.5344 30.614 15.448 30.2051 15.2694C29.1625 14.7913 28.1085 14.1174 28.0451 13.0173C28.0215 12.8322 28.0492 12.6443 28.125 12.4739C28.2009 12.3035 28.322 12.1572 28.4753 12.0508C28.6285 11.9445 28.808 11.8823 28.9942 11.8709C29.1804 11.8595 29.3661 11.8994 29.5312 11.9862C29.7961 12.1072 29.9286 12.1072 30.1071 11.8595C30.2109 11.685 30.3667 11.5474 30.5526 11.4658C30.7385 11.3842 30.9452 11.3628 31.1439 11.4045C31.3344 11.4447 31.5095 11.538 31.6492 11.6735C31.7888 11.8091 31.8872 11.9814 31.933 12.1706C32.0471 12.7139 32.0723 13.2722 32.0079 13.8237ZM31.2764 13.2477C31.311 13.121 31.1497 11.6867 30.6428 12.4758C30.3951 12.856 30.7004 13.3686 30.2051 13.5126C29.8595 13.6105 29.7212 13.3686 29.5715 13.1152C29.1337 12.3549 28.6096 12.9885 29.2086 13.6278C29.7286 14.0861 30.3332 14.4383 30.9884 14.6646C31.1382 14.7337 31.1727 14.6646 31.1842 14.5149C31.213 14.1577 31.2418 13.7776 31.2764 13.2477Z" fill="#F4B77D"/>
<path d="M57.6915 42.9227C57.4496 43.8673 57.392 43.3547 53.8266 42.2718C53.4003 42.1451 53.0835 41.7592 52.5709 41.8111C52.3866 41.8111 52.3002 41.5807 52.4039 41.3733C52.7264 40.7455 53.0547 40.1176 53.3831 39.4898C53.421 39.4038 53.486 39.3325 53.5681 39.2868C53.6502 39.2411 53.745 39.2234 53.8381 39.2364C53.9304 39.2484 54.0156 39.2925 54.0788 39.3609C54.1419 39.4293 54.1791 39.5178 54.1837 39.6108C54.2313 39.7979 54.3195 39.9722 54.4419 40.1215C54.5643 40.2708 54.718 40.3914 54.8922 40.4748C55.9313 41.1609 56.8729 41.9844 57.6915 42.9227Z" fill="#F4B77D"/>
<path d="M30.8558 22.6709C30.7061 23.4081 30.8558 24.2203 30.5678 24.9748V25.1995C30.5966 25.5393 30.4238 25.7006 30.1013 25.5969C29.1211 25.2594 28.2403 24.6834 27.5381 23.9208C27.0313 23.4024 27.181 22.2446 27.4575 21.7781C27.5295 21.6469 27.6497 21.5489 27.7927 21.5049C27.9357 21.4608 28.0902 21.4741 28.2236 21.5419C28.4194 21.5995 28.4885 21.5419 28.5807 21.3806C29.1163 20.5397 29.8939 20.5454 30.4699 21.3806C30.7088 21.7698 30.8418 22.2145 30.8558 22.6709ZM28.4136 23.6155C28.7708 23.9092 29.1394 24.1915 29.508 24.4622C29.7499 24.6523 29.8939 24.6465 29.8882 24.2894C29.8824 23.9323 30.1243 22.8321 29.8882 22.0891C29.8363 21.899 29.773 21.611 29.4907 21.6571C29.2085 21.7032 29.2488 21.9451 29.2143 22.1467C29.1106 22.7227 28.932 22.6651 28.5749 22.5499C28.0392 22.3368 27.9528 23.218 28.4136 23.6155Z" fill="#F4B77D"/>
<path d="M49.138 64.8104C50.7968 64.9314 52.4557 64.9832 54.1088 65.1503C55.5776 65.3 57.2652 65.2943 58.4287 65.4555C58.5306 65.46 58.6267 65.5041 58.6966 65.5783C58.7665 65.6525 58.8047 65.751 58.8031 65.853C58.8031 66.1467 58.5842 66.0719 58.4057 66.1007C57.1327 66.3023 55.8713 65.9682 54.6041 65.9567C53.7286 65.9567 52.8762 65.8011 51.9891 65.7263C50.7623 65.6226 49.5354 65.5362 48.3143 65.4267C48.1357 65.4267 47.8996 65.3807 47.9111 65.1387C47.9226 64.8968 48.1127 64.8277 48.3085 64.8162C48.5044 64.8047 48.8615 64.8104 49.138 64.8104Z" fill="#F4B77D"/>
<path d="M52.2424 40.4286C51.2344 40.2904 50.2346 40.0981 49.2472 39.8526C47.2197 39.4264 45.2153 38.8619 43.182 38.4818C43.1535 38.4875 43.1242 38.4875 43.0956 38.4818C42.894 38.3781 42.5197 38.4184 42.6118 38.0555C42.704 37.6927 42.9862 37.7906 43.2627 37.8367C46.0274 38.2859 48.7288 38.9887 51.459 39.5646C51.7298 39.6222 52.0005 39.6683 52.2654 39.7432C52.8702 39.8987 52.6456 40.5035 52.2424 40.4286Z" fill="#F4B77D"/>
<path d="M60.3351 57.7257C60.1795 57.6739 59.9261 57.7257 59.88 57.4953C59.834 57.2649 60.1047 57.2822 60.2429 57.2419C62.6505 56.5334 65.0236 55.7155 67.3679 54.8342C67.4543 54.8342 67.5465 54.7824 67.6329 54.7478C67.6771 54.723 67.7263 54.7081 67.7768 54.7041C67.8274 54.7001 67.8782 54.7071 67.9259 54.7246C67.9735 54.7421 68.0167 54.7698 68.0527 54.8056C68.0886 54.8414 68.1163 54.8846 68.134 54.9321C68.2204 55.1395 68.0418 55.2432 67.8978 55.3238C67.3055 55.623 66.6865 55.8659 66.0489 56.0496C64.4121 56.6517 62.7452 57.1689 61.0551 57.599C60.8016 57.6566 60.5712 57.6854 60.3351 57.7257Z" fill="#F4B77D"/>
<path d="M65.0123 62.9212C64.8567 62.9212 64.7127 62.8809 64.6667 62.7253C64.6206 62.5698 64.7703 62.4258 64.9316 62.3509C65.7438 61.9766 66.5444 61.5906 67.3681 61.2393C68.4221 60.7843 69.338 60.0873 70.3805 59.6208C70.4784 59.5804 70.5706 59.5228 70.6685 59.4768C70.7077 59.4507 70.752 59.4334 70.7985 59.426C70.8449 59.4186 70.8924 59.4213 70.9378 59.4339C70.9831 59.4464 71.0252 59.4686 71.0612 59.4989C71.0973 59.5291 71.1264 59.5667 71.1466 59.6092C71.3597 60.0009 70.7203 60.1334 69.6605 60.8015C68.3473 61.5782 66.9671 62.2356 65.5364 62.7657C65.3636 62.8348 65.1851 62.8693 65.0123 62.9212Z" fill="#F4B77D"/>
<path d="M32.6876 51.073C34.5287 51.3911 36.3398 51.8632 38.102 52.4841C38.4072 52.5878 38.7125 52.8009 38.5743 53.0947C38.3612 53.5612 37.9234 53.0428 35.9996 52.5187C32.7856 51.6662 32.0195 51.8678 32.1289 51.2861C32.1808 51.0269 32.4227 51.0845 32.6876 51.073Z" fill="#F4B77D"/>
<path d="M54.3391 69.9943C53.5039 69.8676 52.6111 69.7582 51.6838 69.5911C50.4915 69.3723 49.2761 69.3204 48.0723 69.1534C47.8016 69.1188 47.3351 69.1534 47.3696 68.8481C47.4042 68.5428 47.8592 68.6465 48.153 68.6638C50.0858 68.7344 52.0109 68.9462 53.9129 69.2974C54.3967 69.3723 55.0649 69.2974 55.0649 69.7063C55.0879 70.0519 54.7884 69.9943 54.3391 69.9943Z" fill="#F4B77D"/>
<path d="M30.4929 61.1125C32.1691 61.7922 34.3348 61.7634 35.5501 62.3106C35.7517 62.4028 35.9706 62.541 35.8727 62.7944C35.7748 63.0479 35.5098 62.9845 35.337 62.9269C34.8717 62.7681 34.3939 62.6486 33.9086 62.5698C33.2289 62.4604 32.5435 62.3509 31.858 62.253C31.1726 62.1551 30.4584 61.677 29.6981 61.6194C29.6585 61.6196 29.6192 61.6115 29.583 61.5955C29.5467 61.5796 29.5142 61.5562 29.4876 61.5268C29.461 61.4975 29.4408 61.4629 29.4285 61.4252C29.4161 61.3876 29.4118 61.3478 29.4158 61.3084C29.4158 61.0895 29.5944 61.0895 29.7557 61.0895C30.0017 61.0799 30.248 61.0876 30.4929 61.1125Z" fill="#F4B77D"/>
<path d="M57.6914 42.9228C57.6914 40.9874 57.029 38.8159 57.0578 38.4243C57.0578 38.1996 57.1212 37.9692 57.3919 37.9404C57.5029 37.9323 57.6127 37.9672 57.6986 38.038C57.7844 38.1089 57.8396 38.2101 57.8527 38.3206C58.037 39.4726 58.4287 40.5785 58.4287 41.7765C58.4287 41.9609 58.4805 42.1394 58.4978 42.3525C58.5727 43.0092 58.3423 43.1992 57.6914 42.9228Z" fill="#F4B77D"/>
<path d="M30.7752 56.5507L32.4514 56.8329C33.5061 56.9231 34.5544 57.077 35.5905 57.2937C35.651 57.305 35.7107 57.3204 35.7691 57.3398C35.9476 57.4205 36.1838 57.4723 36.1204 57.743C35.988 58.319 35.3544 57.8582 34.3925 57.743C33.1675 57.6348 31.95 57.454 30.7464 57.2016C30.47 57.1325 30.1705 57.0979 30.1993 56.8157C30.2108 56.6544 30.4008 56.5507 30.7752 56.5507Z" fill="#F4B77D"/>
<path d="M70.5073 66.9819C70.4499 66.9892 70.3917 66.9766 70.3425 66.9462C70.2932 66.9158 70.2559 66.8695 70.2366 66.8149C70.1905 66.6939 70.2769 66.6075 70.3691 66.5499C70.634 66.3944 70.9048 66.2447 71.1812 66.1122C72.4254 65.5016 73.4852 64.5397 74.7178 63.9522C74.9828 63.8313 75.3284 63.5202 75.53 63.8831C75.7316 64.246 75.2708 64.3554 75.0404 64.5052C72.0971 66.3541 71.3425 66.8149 70.5073 66.9819Z" fill="#F4B77D"/>
<path d="M29.5484 64.9717C31.0748 65.2079 32.653 65.2021 34.1967 65.4901C34.8591 65.6169 35.7058 65.5996 35.5963 66.0661C35.5445 66.2908 35.2795 66.3023 35.0837 66.262C33.0447 65.8127 29.8191 65.6399 29.4735 65.4901C29.3007 65.4153 29.0185 65.4383 29.0646 65.1445C29.1107 64.8508 29.3756 65.0236 29.5484 64.9717Z" fill="#F4B77D"/>
<path d="M58.3364 52.536L58.4171 52.392C60.0817 51.5395 61.9133 51.24 63.7104 50.8368C63.8477 50.8137 63.9879 50.8137 64.1251 50.8368C64.196 50.8347 64.2652 50.8588 64.3194 50.9045C64.3736 50.9502 64.409 51.0143 64.4189 51.0845C64.4189 51.2285 64.2807 51.2573 64.1655 51.3034C62.6909 51.8794 61.7233 51.7354 59.0737 52.7837C59.0102 52.8215 58.9394 52.8451 58.8659 52.8529C58.7925 52.8608 58.7182 52.8527 58.6482 52.8292C58.5782 52.8056 58.5141 52.7673 58.4602 52.7167C58.4064 52.6661 58.3642 52.6044 58.3364 52.536Z" fill="#F4B77D"/>
<path d="M53.6996 21.5305C53.6996 22.2332 53.354 22.6249 52.778 22.6249C52.6389 22.6276 52.5008 22.6013 52.3724 22.5478C52.244 22.4942 52.1282 22.4145 52.0323 22.3137C51.9364 22.213 51.8625 22.0933 51.8154 21.9624C51.7683 21.8316 51.7489 21.6923 51.7585 21.5535C51.74 21.4152 51.7513 21.2745 51.7916 21.1409C51.8319 21.0073 51.9003 20.8839 51.9922 20.7789C52.0841 20.6739 52.1974 20.5897 52.3245 20.532C52.4516 20.4744 52.5895 20.4445 52.7291 20.4445C52.8686 20.4445 53.0066 20.4744 53.1336 20.532C53.2607 20.5897 53.374 20.6739 53.4659 20.7789C53.5578 20.8839 53.6262 21.0073 53.6665 21.1409C53.7068 21.2745 53.7181 21.4152 53.6996 21.5535V21.5305Z" fill="#F4B77D"/>
<path d="M57.219 37.1974C57.219 37.4221 57.1499 37.5718 56.9771 37.6582C56.9449 37.6804 56.9085 37.6959 56.8702 37.7035C56.8319 37.7112 56.7923 37.711 56.7541 37.7029C56.7158 37.6949 56.6796 37.6791 56.6476 37.6565C56.6157 37.634 56.5886 37.6052 56.5682 37.5718C56.0926 37.0269 55.7268 36.3952 55.4911 35.7114C55.4705 35.6281 55.4767 35.5404 55.5088 35.4608C55.5408 35.3812 55.5971 35.3137 55.6696 35.2679C55.696 35.2392 55.7281 35.2164 55.7638 35.2008C55.7995 35.1852 55.838 35.1771 55.877 35.1771C55.9159 35.1771 55.9545 35.1852 55.9902 35.2008C56.0258 35.2164 56.0579 35.2392 56.0843 35.2679C56.5418 35.861 56.923 36.5093 57.219 37.1974Z" fill="#F4B77D"/>
<path d="M39.4896 74.821C39.7105 74.8119 39.9307 74.8512 40.1348 74.9362C41.8167 75.4776 41.8167 74.8613 45.7795 75.276C46.2057 75.3221 46.3555 75.0975 46.4879 74.7001C46.6388 74.0609 46.6951 73.403 46.655 72.7474C46.66 72.337 46.784 71.9368 47.0121 71.5955C47.053 71.5058 47.1119 71.4255 47.1853 71.3598C47.2587 71.294 47.3449 71.2441 47.4385 71.2133C47.5321 71.1825 47.6311 71.1713 47.7292 71.1806C47.8273 71.1899 47.9224 71.2193 48.0086 71.2671C48.9589 71.8835 49.9381 71.6703 50.8885 71.4745C52.622 71.1782 54.3027 70.629 55.8766 69.8444C56.6945 69.4125 57.5585 69.0438 57.9156 68.0762C57.9512 67.9965 58.0151 67.9329 58.0949 67.8978C58.1748 67.8626 58.2649 67.8585 58.3476 67.8861C58.555 67.9206 58.5895 68.0819 58.6068 68.2605C58.7513 69.3302 59.048 70.3737 59.4881 71.3593C59.7415 72.7186 60.4442 73.8821 61.0144 75.1148C61.7172 76.6239 62.5696 78.0523 63.1571 79.6248C64.4473 83.121 66.6995 85.8858 67.8572 88.2646C68.0516 88.6504 68.2935 89.0103 68.5772 89.336C69.6313 90.5974 70.3052 92.1411 71.3938 93.3679C72.2578 94.3068 72.7416 95.5106 73.5768 96.4552C74.9534 98.0162 76.0939 99.7614 77.5742 101.247C78.4804 102.131 79.2562 103.14 79.8782 104.243C80.1086 104.663 80.0279 104.945 79.5786 105.078C78.6237 105.439 77.7461 105.979 76.9924 106.668C76.2897 107.244 74.7346 107.537 73.7842 106.881C72.2981 105.861 70.5529 105.233 69.1762 104.041C67.2984 102.462 65.5263 100.761 63.8714 98.9493C63.8554 98.9234 63.8381 98.8984 63.8195 98.8744C62.1261 97.3077 60.7322 95.4645 59.0158 93.9209C58.5765 93.5156 58.1895 93.057 57.8638 92.5558C56.9668 91.3747 56.0054 90.2441 54.9838 89.169C52.7835 86.5943 50.5429 84.0369 48.8783 81.0532C48.6882 80.7134 48.5154 80.7364 48.3023 80.9496C47.0639 82.1015 45.6297 83.075 44.5526 84.4458C43.7119 85.4133 42.8075 86.3234 41.8455 87.1703C40.9181 88.0688 40.0714 89.0538 39.1901 90.0041C38.4932 90.7644 37.6926 91.4326 37.0705 92.262C35.9185 93.823 34.49 95.142 33.2229 96.6453C32.8013 97.1021 32.3469 97.5275 31.8635 97.9183C30.5042 99.1106 30.9823 99.1566 26.8409 103.102C26.6597 103.249 26.4434 103.347 26.2132 103.385C25.983 103.423 25.7467 103.401 25.5276 103.321C25.3163 103.269 25.1114 103.194 24.9171 103.096C24.027 102.607 23.0839 102.22 22.1062 101.944C21.3574 101.61 21.2883 101.409 21.7376 100.735C27.2614 92.4348 38.6602 75.3336 38.8503 75.0917C38.9129 74.9832 39.0092 74.8981 39.1246 74.8492C39.24 74.8004 39.3681 74.7905 39.4896 74.821Z" fill="#FADF8F"/>
<path d="M44.3799 66.2042C44.1956 67.6672 43.7118 71.7567 43.6081 72.3327C43.5044 72.9087 43.2625 73.0239 42.7556 72.9087C41.8651 72.6623 40.9488 72.5212 40.0254 72.4883C39.0002 72.4883 39.651 71.9526 39.6914 69.3894C39.6914 68.0589 39.9621 66.7629 40.1061 65.4496C40.1061 65.4036 40.1406 65.3632 40.1406 65.3172C40.181 64.6433 40.1406 64.6778 40.8779 64.7815C41.8428 64.9745 42.8177 65.1129 43.7982 65.1962C44.3108 65.1962 44.4087 65.4036 44.3799 66.2042Z" fill="#FADF8F"/>
<path d="M57.5989 54.5979C56.8846 54.4424 35.4059 49.6271 34.5938 49.414C34.3461 49.3564 34.0638 49.293 34.1502 48.9589C34.2366 48.6249 34.5189 48.7574 34.7262 48.7977C37.3124 49.3161 57.7025 53.8606 57.7659 53.8779C57.9848 53.9413 58.1691 54.0565 58.1172 54.3329C58.0654 54.6094 57.8753 54.6037 57.5989 54.5979Z" fill="#FADF8F"/>
<path d="M37.3068 44.0054C38.3032 44.2416 56.0438 48.6134 57.7257 49.0569C57.9561 49.1145 58.2153 49.2009 58.1174 49.5119C58.0194 49.823 57.7948 49.7999 57.5414 49.7366C54.4944 48.959 37.877 44.7139 37.1455 44.4893C36.9957 44.4432 36.7596 44.4086 36.7999 44.184C36.8402 43.9594 37.0764 44.063 37.3068 44.0054Z" fill="#FADF8F"/>
<path d="M57.7313 63.5144C56.4814 63.3358 43.585 61.5157 41.2465 61.1643C41.0276 61.1298 40.6705 61.1067 40.7569 60.7496C40.8433 60.3925 41.1197 60.4443 41.3674 60.4789C44.4202 60.8418 47.4614 61.2853 50.5084 61.7288C54.189 62.2587 57.5413 62.6389 57.8235 62.7137C58.1057 62.7886 58.3995 62.8347 58.3188 63.1918C58.2382 63.5489 57.9905 63.5086 57.7313 63.5144Z" fill="#FADF8F"/>
<path d="M57.7372 59.3269C56.902 59.2232 45.1806 57.5989 43.0667 57.3051C42.5311 57.2303 41.8687 57.3627 41.9148 56.8271C41.9493 56.5506 42.1509 56.5563 42.364 56.5679C45.1403 56.7061 46.0331 56.9192 57.6912 58.5032C57.9043 58.5032 58.1347 58.5032 58.2671 58.7451C58.3009 58.8069 58.3186 58.8763 58.3186 58.9467C58.3186 59.0172 58.3009 59.0865 58.2671 59.1483C58.175 59.4075 57.9273 59.3269 57.7372 59.3269Z" fill="#FADF8F"/>
<path d="M28.5805 66.4173C28.5805 66.5555 28.5459 66.7226 28.6093 66.832C29.1392 67.7248 28.6093 68.56 28.4422 69.4009C28.3961 69.614 28.6265 69.9251 28.2694 70.046C27.9123 70.167 27.8374 69.8444 27.6013 69.7983C27.5552 69.7983 27.5091 69.7638 27.4688 69.758C26.5242 69.6371 26.5587 69.4124 26.6797 68.5081C26.9216 66.711 27.2154 64.9197 27.4918 63.1341C27.5437 62.8116 27.5379 62.4372 28.0678 62.4717C28.5977 62.5063 28.6784 62.5581 28.6841 63.0938C28.6899 63.6295 28.5805 64.4589 28.5805 66.4173Z" fill="#FADF8F"/>
<path d="M41.3042 39.6682C42.2431 39.8813 54.3331 42.7728 54.4253 42.7901C54.673 42.8477 54.8803 42.9571 54.7939 43.2624C54.7075 43.5677 54.4541 43.4986 54.2525 43.464C53.7687 43.3776 42.1163 40.5841 41.1256 40.2154C40.9644 40.1578 40.7916 40.1002 40.8204 39.8756C40.8492 39.6509 41.0623 39.697 41.3042 39.6682Z" fill="#FADF8F"/>
<path d="M48.2562 67.696C48.0027 67.6326 47.7263 67.5693 47.7954 67.2467C47.8645 66.9241 48.1237 66.9817 48.3714 66.9875C57.9559 67.1891 57.0804 67.1142 57.138 67.1142C57.3741 67.1142 57.5757 67.1545 57.5872 67.4541C57.5987 67.7536 57.4317 67.8342 57.1668 67.8803C56.1069 68.0531 48.3138 67.7133 48.2562 67.696Z" fill="#FADF8F"/>
<path d="M58.964 56.5334C58.6645 56.5334 58.5205 56.4585 58.4629 56.2799C58.4053 56.1014 58.5205 55.9689 58.6818 55.8767C65.0523 52.4208 65.4785 51.816 65.8126 52.4208C65.837 52.4658 65.8518 52.5154 65.8563 52.5664C65.8608 52.6174 65.8547 52.6688 65.8385 52.7174C65.8223 52.766 65.7963 52.8108 65.7621 52.8489C65.728 52.887 65.6863 52.9178 65.6398 52.9392C63.4833 54.2608 61.2545 55.4607 58.964 56.5334Z" fill="#FADF8F"/>
<path d="M69.3666 56.9192C69.5854 56.9192 69.7698 56.9192 69.8216 57.1726C69.931 57.6737 69.4011 57.7198 67.5176 58.8718C66.3657 59.5975 65.1388 60.2369 63.9177 60.8705C63.6633 61.0204 63.372 61.0962 63.0767 61.0894C62.8924 61.0894 62.7427 61.003 62.7023 60.8129C62.662 60.6228 62.806 60.571 62.927 60.5019C64.8508 59.5169 66.6709 58.3592 68.5026 57.2245C68.7492 57.0306 69.0529 56.9233 69.3666 56.9192Z" fill="#FADF8F"/>
<path d="M26.749 62.8116C26.5128 64.3611 25.8735 68.5197 25.7871 69.0496C25.741 69.3376 25.6604 69.6256 25.2917 69.6256C24.9231 69.6256 24.9346 69.28 24.9807 69.0093C25.3551 66.8897 25.5855 64.747 26.0636 62.6734C26.0743 62.5805 26.0975 62.4894 26.1327 62.4027C26.1531 62.3269 26.2009 62.2613 26.2669 62.2187C26.3329 62.1762 26.4123 62.1596 26.4898 62.1723C26.7605 62.2241 26.7202 62.6043 26.7202 62.8577L26.749 62.8116Z" fill="#FADF8F"/>
<path d="M45.8314 66.2387C45.5089 67.7248 45.1517 72.0793 45.0826 72.4537C45.0423 72.7014 44.9732 72.949 44.6852 72.9202C44.3972 72.8914 44.2705 72.6553 44.2993 72.3442C44.2993 72.2866 44.8753 66.5843 45.025 66.1178C45.0999 65.8874 45.1978 65.6512 45.4858 65.68C45.7738 65.7088 45.8487 65.9507 45.8314 66.2387Z" fill="#FADF8F"/>
<path d="M35.9129 70.8467C36.0281 69.2512 36.6904 65.824 36.8229 65.0868C36.8632 64.8679 36.9093 64.6145 37.18 64.6317C37.4508 64.649 37.4738 64.9658 37.4565 65.1732C37.1685 68.681 36.8805 69.1072 36.725 71.0252C36.6904 71.3996 36.581 71.7625 36.2066 71.6876C36.1204 71.6789 36.0412 71.6364 35.9862 71.5696C35.9312 71.5027 35.9048 71.4167 35.9129 71.3305V70.8467Z" fill="#FADF8F"/>
<path d="M37.278 71.2038C37.4105 70.3053 37.9807 66.4634 38.119 65.4439C38.1535 65.1674 38.1996 64.8679 38.551 64.9255C38.9023 64.9831 38.885 65.3057 38.8447 65.5649C38.5855 67.4195 38.4358 69.2915 38.0729 71.1289C38.0153 71.4227 38.1017 71.9987 37.6524 71.9814C37.399 71.9814 37.2895 71.7856 37.3011 71.5321V71.2038H37.278Z" fill="#FADF8F"/>
<path d="M73.8246 61.8785C73.8246 62.1781 73.5481 62.2587 73.3523 62.3797C72.5382 62.8184 71.7567 63.3151 71.0137 63.8657C70.3496 64.3897 69.6553 64.8744 68.9344 65.3172C68.6867 65.4727 68.3584 65.8183 68.0877 65.4497C67.817 65.081 68.2432 64.8737 68.4967 64.7182C69.9309 63.7908 71.1981 62.6216 72.7129 61.8382C72.9405 61.6769 73.2116 61.5885 73.4905 61.5848C73.6863 61.5733 73.8131 61.6309 73.8246 61.8785Z" fill="#FADF8F"/>
<path d="M36.5867 55.8997C35.9192 55.7348 35.242 55.6117 34.5592 55.5311C31.6447 54.9205 31.1781 54.9551 30.7461 54.454C30.6846 54.3943 30.6458 54.3151 30.6363 54.23C30.6269 54.1449 30.6474 54.0591 30.6943 53.9874C30.8095 53.8089 30.9592 53.9125 31.109 53.9874C32.3155 54.3461 33.5453 54.6213 34.7896 54.8111C35.4461 54.8844 36.0967 55.0037 36.7364 55.1682C36.9496 55.2431 37.1627 55.3295 37.1166 55.6059C37.0705 55.8824 36.7883 55.8709 36.5867 55.8997Z" fill="#FADF8F"/>
<path d="M62.5927 47.8588C62.8173 47.8991 63.0074 47.9452 63.0592 48.1583C63.0825 48.2501 63.0728 48.3471 63.0317 48.4324C62.9906 48.5177 62.9209 48.5858 62.8346 48.6249C61.622 49.3607 60.3638 50.0187 59.0676 50.5948C58.9294 50.6581 58.7739 50.6927 58.6299 50.7445C58.5819 50.771 58.5288 50.7867 58.4741 50.7904C58.4195 50.7941 58.3647 50.7858 58.3136 50.766C58.2625 50.7462 58.2164 50.7155 58.1785 50.6759C58.1406 50.6364 58.1118 50.589 58.0942 50.5372C58.0078 50.301 58.1748 50.1628 58.3649 50.0648C62.7136 47.6918 62.0628 48.0719 62.5927 47.8588Z" fill="#FADF8F"/>
<path d="M33.5454 63.4625C34.1141 63.4915 34.68 63.5608 35.2388 63.6699C35.4577 63.7217 35.7169 63.7563 35.6824 64.0327C35.6478 64.3092 35.3368 64.3438 35.1064 64.3265C33.9256 64.2228 34.5304 64.3841 29.9916 63.6872C29.6921 63.6411 29.2197 63.6238 29.2543 63.2436C29.2889 62.8635 29.7439 63.0996 30.0031 63.042C30.5272 62.9384 32.7563 63.3934 33.5454 63.4625Z" fill="#FADF8F"/>
<path d="M35.0891 66.8435C35.3138 66.8435 35.5384 66.8896 35.5384 67.1891C35.5384 67.4886 35.3368 67.4829 35.1179 67.5059C33.7547 67.5635 32.3891 67.5115 31.0342 67.3504C30.6022 67.3158 30.1817 67.2582 29.7497 67.2064C28.7129 67.0912 28.759 66.5843 29.5711 66.5613C30.654 66.5325 33.1538 66.9184 35.0891 66.8435Z" fill="#FADF8F"/>
<path d="M35.4234 60.4443C34.0813 60.2888 32.7393 60.0296 31.3915 59.7531C30.9639 59.7145 30.5425 59.6256 30.1358 59.4881C29.9861 59.396 29.7787 59.3038 29.8536 59.0734C29.9285 58.843 30.1358 58.8546 30.3201 58.8776C31.0551 58.9498 31.7844 59.0711 32.5031 59.2405C33.4823 59.4997 34.4961 59.5976 35.4925 59.7761C35.7575 59.8222 36.0167 59.8913 35.9648 60.2139C35.913 60.5365 35.648 60.4328 35.4234 60.4443Z" fill="#FADF8F"/>
<path d="M77.1423 65.5648C77.1289 65.6402 77.1006 65.7121 77.059 65.7763C77.0175 65.8406 76.9635 65.896 76.9004 65.9392C75.7634 67.0037 74.5548 67.989 73.2831 68.8883C73.1947 68.9515 73.0977 69.002 72.9951 69.038C72.8454 69.0841 72.6841 69.1014 72.5862 68.9344C72.4883 68.7673 72.5862 68.6636 72.6899 68.5715C73.214 68.1164 75.5065 66.1466 76.1458 65.6224C76.3073 65.479 76.4852 65.3553 76.6757 65.2538C76.7269 65.2317 76.7828 65.2227 76.8383 65.2277C76.8938 65.2327 76.9472 65.2516 76.9935 65.2825C77.0399 65.3134 77.0778 65.3554 77.1038 65.4047C77.1298 65.454 77.143 65.5091 77.1423 65.5648Z" fill="#FADF8F"/>
<path d="M58.8719 46.079C58.6934 46.079 58.5263 46.0041 58.4572 45.8198C58.3881 45.6355 58.486 45.5318 58.6415 45.4454C59.2175 45.1113 59.7935 44.7657 60.3695 44.4374C60.5942 44.3107 60.8476 44.2358 61.0031 44.5411C61.1586 44.8464 61.0031 44.9846 60.767 45.1171C58.9065 46.1366 59.2003 45.9465 58.8719 46.079Z" fill="#FADF8F"/>
<path d="M28.0851 106.558C27.6754 107.015 27.2284 107.437 26.7488 107.82C26.6837 107.886 26.5968 107.928 26.5039 107.936C26.4109 107.945 26.3181 107.92 26.2419 107.866C26.1637 107.813 26.1088 107.732 26.0885 107.64C26.0681 107.548 26.0839 107.451 26.1325 107.37C26.2362 107.18 26.2016 106.904 26.599 106.904C26.8294 106.904 27.0483 106.564 27.2845 106.397C27.9296 105.982 28.3328 106.322 28.0851 106.558Z" fill="#FADF8F"/>
<path d="M85.6959 104.755C85.7055 104.814 85.6969 104.874 85.6713 104.927C85.6457 104.98 85.6042 105.024 85.5526 105.053C85.501 105.082 85.4417 105.095 85.3828 105.089C85.324 105.083 85.2683 105.059 85.2235 105.02C84.8149 104.717 84.532 104.274 84.4287 103.776C84.348 103.482 84.7858 103.2 85.0047 103.471C85.3222 103.846 85.5577 104.284 85.6959 104.755Z" fill="#FADF8F"/>
<path d="M83.8237 105.233C83.8313 105.318 83.8116 105.403 83.7675 105.475C83.7233 105.548 83.6572 105.604 83.5786 105.637C83.5 105.669 83.4132 105.675 83.3309 105.654C83.2485 105.633 83.175 105.587 83.121 105.521C82.845 105.17 82.6485 104.763 82.545 104.329C82.4701 104.076 82.6775 103.966 82.9194 104.035C83.33 104.339 83.6441 104.755 83.8237 105.233Z" fill="#FADF8F"/>
<path d="M28.1717 108.038C28.3283 107.703 28.5563 107.406 28.8399 107.169C29.0645 106.979 29.3755 107.169 29.3237 107.382C29.2256 107.827 28.9898 108.23 28.6498 108.534C28.5116 108.655 27.9989 108.413 28.1717 108.038Z" fill="#FADF8F"/>
<path d="M8.36309 93.1607C26.2937 92.8727 25.3548 93.0109 25.7177 92.4983C28.8914 87.994 34.8011 79.694 37.5255 74.9075L34.0293 74.1242C33.4533 73.9859 33.3438 74.5734 32.3992 73.8304C31.6965 74.464 31.4431 74.4986 30.6021 74.0723C30.564 74.0555 30.5228 74.0468 30.4811 74.0468C30.4395 74.0468 30.3983 74.0555 30.3602 74.0723C29.6748 74.4755 29.4789 73.8938 29.1218 73.9456C27.9122 74.1242 27.9122 73.3696 27.797 72.2176C23.2697 71.3652 22.8896 71.4976 22.7398 70.6913C22.4576 69.1706 22.0544 67.8113 22.2848 63.0651C22.3623 62.2419 22.5264 61.4291 22.7744 60.6402C23.4195 58.221 26.311 59.3845 28.7186 59.8857C29.2485 59.9951 29.2946 59.2405 29.4962 58.4687C31.6792 50.6871 30.9304 52.5245 33.2401 49.2241C34.0465 48.0721 33.5685 47.6804 35.1064 46.0791C35.2849 45.8891 35.5211 45.6817 35.5614 45.4513C35.7952 44.4789 36.4039 43.6383 37.2548 43.1128C41.592 39.8354 39.53 39.1097 43.3315 37.2607C44.9968 36.416 46.565 35.3924 48.0086 34.208C48.3273 33.9729 48.5941 33.6745 48.7923 33.3316C48.9905 32.9887 49.1159 32.6086 49.1605 32.215C47.7578 32.0291 46.3955 31.6126 45.1286 30.9824C42.9168 30.0378 43.4352 28.1601 42.5942 25.3895C38.9021 27.4343 39.2477 26.9966 37.0993 24.5428C41.4365 21.1675 41.2579 21.5304 41.0794 20.9429C38.8561 13.5702 39.2823 14.9123 38.8964 13.1037C38.7639 12.4989 38.8964 12.6889 43.0666 11.3757C43.3315 11.295 43.5792 11.1453 43.8442 11.0819C44.0835 11.0218 44.2973 10.8863 44.4538 10.6955C44.6104 10.5047 44.7016 10.2686 44.7139 10.0221C45.0768 7.83333 44.8176 7.25158 45.6528 7.38406C58.5089 9.38851 53.5957 11.8653 58.7796 7.67206C59.0503 8.24805 59.8682 9.87234 59.4766 10.4023C57.0056 13.766 57.1726 13.3744 56.5966 13.8582C58.0078 16.7382 58.0078 17.2738 59.2058 17.4121C63.6237 17.9189 60.617 19.1861 59.3326 21.2021C59.6724 21.4037 60.1332 21.5304 60.2657 21.8126C60.3981 22.0949 60.1735 22.4981 60.1044 22.884C60.928 23.3909 60.8935 23.3678 60.2484 24.2664C60.0559 24.6207 59.9494 25.0153 59.9373 25.4183C59.6666 27.5783 59.9373 28.1889 59.2174 28.6554C57.8177 29.5597 56.0897 30.3028 55.5253 32.9523C55.4734 33.1712 55.7211 33.3843 56.8443 35.7574C61.1527 44.8581 57.4203 39.0348 61.7402 45.0539C62.2125 45.7105 61.648 45.843 62.4371 46.4708C63.2263 47.0987 62.6387 47.6228 63.9578 49.2932C67.8169 54.2006 74.6366 63.3819 78.0407 65.5304C78.1847 65.6225 78.2539 65.8356 78.3921 66.0372C79.5441 66.3368 80.8055 66.4635 81.848 67.1892C81.9863 67.2871 82.2167 67.3505 82.2512 67.4772C82.5047 68.3643 84.4803 69.5853 83.0749 70.8986C83.0115 70.962 82.9079 71.0311 82.9079 71.1002C82.8676 71.8893 82.2916 72.0564 81.681 72.1773C81.105 73.8592 80.1489 72.9664 79.6535 73.3811C79.4351 73.5829 79.1556 73.706 78.8593 73.7311C78.5631 73.7561 78.2669 73.6816 78.0177 73.5194C77.3626 73.2367 76.7971 72.7806 76.3819 72.2003C76.2725 71.9872 74.9534 71.6704 74.2968 70.5357C74.1874 70.3399 72.1368 69.1706 67.0278 65.0293C64.2285 62.7599 60.2138 58.6934 59.3268 57.8178C59.5802 61.124 59.9028 62.9442 60.2657 66.1352C60.4557 67.915 58.9927 67.8631 59.3095 68.8826C59.6781 70.0749 60.1217 72.5747 60.9626 74.0666C70.7545 91.2945 69.1647 87.7636 70.7545 91.5882C71.0252 92.2276 68.8076 92.0605 107.52 91.329C108.557 91.329 108.753 91.2714 108.874 91.2714C109.357 91.2714 109.956 91.5825 108.874 91.6516C103.903 91.9511 72.396 92.2852 71.1404 92.4349C74.3717 97.4172 71.532 93.4372 79.5498 104.231C80.3793 105.349 79.1466 105.303 89.4857 101.68C90.0553 101.489 90.6446 101.363 91.2425 101.305C91.3547 101.317 91.4633 101.351 91.5622 101.406C91.6611 101.46 91.7482 101.534 91.8185 101.622C92.3253 102.233 89.3014 104.876 88.1552 105.712C85.8224 107.405 83.4205 109 81.0877 110.7C80.8839 110.888 80.6216 111 80.3448 111.018C80.0679 111.036 79.7934 110.958 79.5671 110.798C70.2994 105.372 71.3017 107.094 60.4615 95.2458C59.7012 94.3655 58.8936 93.5271 58.0423 92.7344L35.9531 93.3565C35.9531 93.3565 28.0274 101.098 26.5529 103.58C26.2015 104.156 26.167 103.782 34.2251 111.437C34.4497 111.65 34.876 111.88 34.6168 112.255C34.2885 112.733 24.8768 110.135 16.9396 106.495C16.6862 106.38 16.715 106.218 16.8186 106.057C18.7309 103.125 19.8426 102.532 19.9463 101.564C19.9139 101.164 20.04 100.767 20.2976 100.458C21.7779 98.2755 24.9804 93.5466 25.1014 93.3623C12.4296 93.5235 8.06357 93.5984 6.54872 93.5869C4.93594 93.5523 5.48313 93.2068 8.36309 93.1607ZM66.1235 53.3021L64.7757 54.4541C64.3782 54.7881 64.5338 54.8803 64.8621 54.6384C65.0118 54.5232 65.2595 54.3389 65.6742 54.0624C66.2502 53.6995 66.1811 54.0624 65.9277 54.287C65.5109 54.7025 64.9957 55.0057 64.4301 55.1683C64.0211 55.1683 63.7907 54.8112 64.6547 54.0509C65.0579 53.6937 65.4784 53.3597 65.8873 53.0256C64.9312 51.6893 63.9866 50.3933 63.0823 49.0743C62.1779 47.7553 62.7367 47.6286 61.8439 46.8913C60.8417 46.0561 61.6423 46.1828 60.738 44.8868C60.3117 44.3109 60.3924 44.3569 59.419 42.9227C58.8775 48.5962 57.7428 56.0323 60.0641 57.5932C61.458 58.5263 62.3162 61.0492 74.0837 69.4183C75.0977 68.569 76.0594 67.6592 76.9636 66.6939C78.179 65.2309 76.9348 66.4404 70.7833 59.206C69.2914 57.4435 68.0991 55.8249 66.1235 53.3021ZM47.5708 70.9735C46.8105 75.8349 47.0697 75.8694 45.935 75.76C37.8135 74.9881 38.3607 74.9363 38.1246 75.3395C35.5211 79.7286 20.9946 100.568 20.9543 100.626C20.3783 101.415 20.9024 101.202 25.5334 103.079C26.3283 103.402 26.3686 102.002 28.6668 99.4044C28.7359 99.3295 48.2159 80.5177 48.2505 80.4658C48.285 80.414 48.2966 80.3161 46.1136 77.2057C45.7104 76.6297 46.1136 76.2035 46.5052 76.7276C47.375 77.8796 48.8092 79.694 50.0937 81.4623C53.06 85.6094 54.6382 87.7982 66.832 100.85C69.0495 103.217 71.9698 105.907 74.8958 107.267C75.6216 107.601 75.7886 107.163 78.8587 105.418C79.4346 105.084 79.1179 105.066 77.2632 102.538C71.941 95.2746 72.5861 96.392 69.2626 90.0273C61.2909 74.7635 59.4708 75.4374 58.3188 67.4023C58.0619 67.9175 57.7427 68.3992 57.3684 68.8366C54.2926 71.6013 52.2421 71.1405 48.5961 71.1405C48.2507 71.1102 47.908 71.0544 47.5708 70.9735ZM53.2098 39.294C45.6412 36.3276 49.414 37.7849 46.5052 36.535C46.2575 36.4255 46.0905 36.535 43.6541 37.8598C39.5415 40.1176 42.1219 40.3423 37.3182 44.115C35.907 45.2209 36.7422 45.7105 35.3598 46.8798C34.8529 47.2945 34.3749 48.746 33.9659 49.2817C31.3163 52.7376 31.0341 55.0416 29.9916 59.2693C29.4987 61.6784 29.1944 64.1223 29.0815 66.5787C29.0239 67.195 29.1333 67.3044 29.6575 67.4599C31.2011 67.8862 32.7966 67.8516 34.3749 67.9553C35.1352 68.0014 34.4843 68.2836 36.7191 54.3734C36.794 53.8838 36.5291 53.6189 36.0395 53.3942C36.083 53.4393 36.1069 53.4998 36.1058 53.5625C36.1047 53.6251 36.0788 53.6848 36.0337 53.7283C35.9886 53.7718 35.9281 53.7957 35.8655 53.7946C35.8028 53.7935 35.7432 53.7676 35.6996 53.7225C35.3022 53.3827 35.0372 53.0544 35.2561 52.7491C35.5729 52.3056 36.2353 52.801 37.4737 53.4864C38.401 52.6454 39.2017 52.0464 40.1808 51.1363C44.616 47.0641 46.2864 45.3764 47.0121 44.7601C47.7379 44.1438 48.0604 44.6795 47.4211 45.2785C47.254 45.4398 47.0179 45.6472 46.7068 45.9352C46.5052 46.1195 46.3152 46.2577 46.7414 46.1828L47.807 46.0043C48.5846 45.866 48.4751 46.2519 47.7494 46.4305C47.1113 46.5526 46.4806 46.7103 45.8601 46.9028C45.2841 47.162 44.8291 47.7438 42.2717 50.0477C42.1042 50.1971 41.9796 50.3885 41.9107 50.6022C41.8419 50.8158 41.8313 51.044 41.88 51.2631C42.7267 57.6335 41.5863 57.91 40.6244 62.0744C48.5846 63.0882 48.2735 63.0075 48.2678 64.0731C48.2678 65.7608 47.951 67.4139 47.7724 69.0842C47.6515 70.1844 47.6687 70.2362 48.7631 70.2996C54.1832 70.53 53.7858 70.0001 55.8708 68.9748C58.7508 67.5463 58.1287 65.3403 57.8695 54.1949C57.7774 50.1629 58.2555 47.1793 58.555 44.2533C56.0782 43.6369 57.0804 44.1553 52.1154 41.9493C51.4127 41.5922 51.9771 41.0795 53.2098 39.3055V39.294ZM60.5594 18.8463C60.6071 18.7939 60.6397 18.7295 60.6537 18.6601C60.6678 18.5906 60.6627 18.5187 60.639 18.4519C60.6154 18.3851 60.5741 18.326 60.5195 18.2808C60.4649 18.2356 60.3991 18.2061 60.329 18.1954C58.7969 17.9593 57.7371 17.8786 57.0862 16.2889C56.621 15.3426 56.0898 14.4303 55.4964 13.5587C51.2687 17.3026 52.5474 15.903 51.6834 17.7692C51.3493 18.4834 51.1074 18.3452 50.4392 17.9477L45.7622 21.5822C50.2031 21.5822 48.2678 19.8543 50.0994 25.1304C50.4738 26.2017 50.7388 26.1499 49.3276 26.795C48.095 27.371 47.8761 25.2455 47.231 24.9403C47.0179 24.8366 46.7702 24.802 46.5628 24.6868C44.783 23.7422 44.6045 28.0852 47.3635 28.5517C48.573 28.7591 48.5961 29.7844 49.7538 31.1207C50.0821 31.4951 49.99 31.4317 49.6213 33.2806C50.8136 33.2806 50.2549 33.5686 54.2293 33.5686C54.8917 33.5686 54.8859 33.5686 54.9665 32.9235C55.4446 28.9837 58.8026 28.8225 59.1079 27.6014C59.5169 25.954 58.9006 24.3931 60.1274 23.5694C59.8682 23.316 59.275 23.5061 59.3441 22.9934C59.4415 22.6547 59.5891 22.3324 59.7818 22.0373C58.0251 21.4555 58.3822 21.2194 60.5594 18.8578V18.8463ZM41.6093 21.0063C42.6064 20.3786 43.5679 19.6959 44.4893 18.9615C45.0653 18.5295 45.5721 18.9212 44.8291 19.4338C44.3107 19.7852 42.8074 20.7298 37.9518 24.5198L39.2535 26.0807C40.1866 25.2283 41.0564 24.3528 42.0355 23.5521C42.0931 23.5061 59.0906 10.4944 58.9524 9.64195C58.864 9.22402 58.7486 8.81227 58.6068 8.40932C56.228 10.4656 55.2603 11.3181 54.7937 11.6579C54.2178 12.0957 53.2558 12.0726 55.076 10.5059C52.0549 9.19307 48.8419 8.37619 45.5606 8.08677C44.6678 11.9171 46.7126 10.8573 39.3457 13.2073L41.6093 21.0063ZM34.2136 73.5251C37.537 74.3546 42.0816 74.8211 45.2496 75.1552C45.4706 75.1753 45.6909 75.1101 45.8655 74.9731C46.04 74.836 46.1555 74.6374 46.1884 74.4179C46.8688 71.179 47.2696 67.8876 47.3865 64.58C47.4268 63.8254 47.3001 63.739 46.5571 63.6123C39.6452 62.4085 39.5818 62.7887 36.9438 62.1896C36.2987 62.0456 36.2699 61.9995 36.2007 62.6504C35.9646 64.7816 35.7284 66.907 35.5672 69.0439C35.3771 71.5437 36.4772 72.9952 34.5649 72.857L34.2136 73.5251ZM57.7255 92.1988C57.2187 91.4615 55.2488 89.3188 53.0312 86.6059C48.3254 80.846 49.0742 80.6444 47.9394 81.7733C37.5716 92.1412 37.3988 91.5652 36.8574 92.5616C37.514 92.769 57.6679 92.1988 57.7255 92.1988ZM17.7921 106.063C22.3078 108.488 27.2268 109.853 32.1515 111.247C32.224 111.266 32.3009 111.262 32.3705 111.234C32.4401 111.206 32.4987 111.156 32.5374 111.091C32.5765 111.026 32.5921 110.949 32.5817 110.874C32.5712 110.798 32.5353 110.729 32.4798 110.677C30.4984 108.724 26.0691 105.205 25.5679 104.007C25.5219 103.897 25.6659 103.978 20.7872 102.158L17.7921 106.063ZM23.6153 70.6452C27.797 71.5092 27.8719 71.682 27.9813 71.1693C28.7705 67.5118 28.7589 68.347 28.5573 67.7134C28.206 66.4404 28.1023 68.1396 28.9375 60.5999C24.6406 59.5285 24.5139 59.6841 24.6348 60.3061C25.0726 62.3279 24.7097 67.7767 23.6153 70.6452ZM76.2609 108.125C77.3331 108.865 78.4424 109.549 79.5844 110.175C79.7547 110.297 79.9613 110.358 80.1704 110.348C80.3796 110.337 80.5791 110.256 80.7364 110.118C87.798 105.101 89.5202 104.156 90.7183 102.63C91.565 101.553 90.5916 101.887 88.8751 102.515C78.0465 106.506 80.339 105.66 76.2782 108.125H76.2609ZM41.2637 51.2631C37.514 54.3619 37.3066 54.408 37.2318 55.1568C36.4081 61.7864 35.8839 61.2911 37.3988 61.6021C38.2686 61.7807 39.1268 61.8959 39.9447 62.0283C41.3374 58.622 41.7928 54.9049 41.2637 51.2631ZM28.6898 73.3523H28.8626C28.9586 73.2043 29.0415 73.0482 29.1103 72.8858C29.381 72.1485 29.4444 71.8893 29.4904 71.7684C29.6632 71.3191 30.0261 71.5725 29.98 71.8663C29.9224 72.2464 29.7784 72.6151 29.7266 73.0183C29.7369 73.2171 29.7837 73.4124 29.8648 73.5942C30.0261 73.4733 30.2565 73.3869 30.3314 73.2314C30.4984 72.8685 30.5733 72.4653 30.7231 72.0794C30.9189 71.6186 31.2991 71.9181 31.2299 72.3156C31.2299 72.4595 31.1263 72.713 31.0111 73.2659C30.8728 73.911 31.685 73.8074 31.9269 73.3523C32.0766 73.0759 32.117 72.736 32.2437 72.4423C32.5374 71.7856 32.7448 72.0852 32.8197 72.5114C32.8715 72.7648 32.8197 73.0413 32.8888 73.289C33.0789 73.9974 33.6721 73.3869 33.868 72.7706C34.9163 69.4413 34.7723 69.522 34.8817 68.8423L29.2428 68.2203C28.4018 73.2832 28.5689 72.6784 28.6898 73.3523ZM80.529 69.8964C80.5153 69.95 80.5204 70.0067 80.5435 70.057C80.5666 70.1073 80.6062 70.1482 80.6557 70.1729C80.7048 70.1986 80.7616 70.2058 80.8155 70.1931C80.8695 70.1804 80.917 70.1487 80.9495 70.1037C81.2694 69.6494 81.5618 69.1762 81.825 68.6868C82.401 67.6385 79.642 67.1547 78.4612 66.7342C77.9659 66.5614 78.0235 66.7342 75.731 68.9978C74.3083 70.3917 74.3544 69.8733 75.2587 70.5991C75.7368 70.985 76.3185 71.5725 76.5489 71.5092C76.8593 71.4392 77.1495 71.299 77.3971 71.0993C77.6448 70.8996 77.8433 70.6457 77.9774 70.3572C78.6513 68.7271 78.202 68.3297 78.8932 68.2318C79.1525 68.1863 79.4193 68.2122 79.665 68.3066C79.7264 68.3321 79.7768 68.3785 79.8073 68.4375C79.8379 68.4965 79.8467 68.5644 79.8321 68.6292C79.8188 68.6943 79.7834 68.7527 79.732 68.7947C79.6806 68.8367 79.6162 68.8596 79.5498 68.8596H79.4231C79.3833 68.8602 79.3446 68.8725 79.3118 68.8951C79.279 68.9176 79.2536 68.9494 79.2388 68.9863C79.2247 69.0238 79.2221 69.0647 79.2314 69.1037C79.2406 69.1426 79.2612 69.178 79.2906 69.2052C79.4898 69.3676 79.7425 69.4498 79.9991 69.4356C80.3735 68.3182 80.8285 68.5313 80.7364 69.0727C80.7018 69.2398 80.6385 69.4644 80.5175 69.9079L80.529 69.8964ZM49.7481 33.8969C52.0117 36.967 54.8053 39.5704 57.3684 42.3698C56.7406 38.4185 56.8731 37.8598 55.8248 37.2262C55.8248 38.5797 55.6635 38.4357 55.0472 38.1938C54.955 38.1395 54.8731 38.0693 54.8053 37.9865C53.2563 36.4623 51.5626 35.0927 49.7481 33.8969ZM52.749 38.4357L49.2124 34.2022L46.8163 36.2297L52.749 38.4357ZM23.1085 70.2708C24.5369 67.1259 24.6348 55.75 23.2121 61.1528C22.4634 64.1077 22.7168 67.2526 23.1085 70.2708ZM52.5589 41.4136C54.091 42.1394 55.5598 42.9342 57.3166 43.2107L53.7282 39.4956L52.5589 41.4136ZM55.2085 37.4738V34.1792H51.6143L55.2085 37.4738ZM58.6068 57.5587C58.5665 57.5587 58.6068 66.8667 59.1828 67.5118C59.7242 66.9991 59.465 66.6766 59.4766 64.3381C59.4708 63.0709 59.2174 59.1541 58.6068 57.5587ZM57.2129 38.1593C57.4087 39.6626 57.8407 41.1314 57.7889 42.7672L58.4974 43.3893C58.6414 41.4712 57.9214 39.8008 57.2129 38.1593ZM81.1281 72.1428C80.0778 72.076 79.0929 71.6103 78.3748 70.841C78.2827 71.0829 78.1559 71.417 78.2596 71.5207C78.5467 71.8719 78.9064 72.1568 79.3141 72.3556C79.7218 72.5545 80.1677 72.6627 80.6212 72.6727C80.9437 72.6784 81.0993 72.5344 81.1281 72.1485V72.1428ZM55.8708 13.2477L56.2913 13.6278C58.7854 10.7939 58.7796 10.8285 55.8708 13.2477ZM82.568 68.9057C81.6868 70.4551 81.7674 70.2362 81.8423 70.4321C82.1533 70.4321 82.5853 70.4897 82.7581 70.3169C83.1959 69.8618 82.6256 69.4586 82.568 68.8999V68.9057ZM79.93 70.0577C79.2388 69.8215 78.778 69.6372 78.7204 69.7639C78.5764 69.9943 78.7204 70.0692 79.6593 71.0772L79.93 70.0577ZM82.3607 71.2096C81.6522 70.7258 80.961 70.9504 80.3101 71.296C81.2951 71.6992 82.1533 71.6589 82.3664 71.1981L82.3607 71.2096ZM42.479 24.8654L42.3408 24.1915C41.7648 24.4276 39.9677 25.5451 40.1866 25.9195C40.4055 26.2939 42.1219 25.3089 42.479 24.8654ZM79.1639 73.1162L77.436 71.7914L77.0558 72.0967C77.8276 72.4192 78.2135 73.2487 79.1639 73.1162ZM55.8248 35.2678C55.4273 36.3161 56.2568 36.6732 56.7406 37.2031L55.8248 35.2678ZM35.0603 70.6279C34.9566 71.0253 34.8299 71.9527 34.7435 72.281C35.0257 72.281 35.1582 72.2349 35.1812 72.0679C35.1987 71.5848 35.1581 71.1013 35.0603 70.6279Z" fill="#3C270B"/>
<path d="M102.394 9.99333C100.873 10.5348 99.3583 11.0877 97.8262 11.5888C94.4278 12.689 95.7814 11.2029 95.6086 13.9274C95.5641 14.2751 95.4038 14.5977 95.1536 14.8432C95.0629 14.9155 94.9585 14.9686 94.8466 14.9992C94.7347 15.0298 94.6178 15.0372 94.5029 15.021C94.3881 15.0049 94.2777 14.9654 94.1787 14.9051C94.0796 14.8448 93.9939 14.7649 93.9267 14.6704C93.8337 14.4402 93.8248 14.1846 93.9017 13.9486C93.9786 13.7126 94.1364 13.5113 94.3472 13.3802C94.9232 13.0173 94.9232 13.2246 94.7734 11.6003C94.6665 11.5351 94.5383 11.5144 94.4163 11.5427C94.3011 11.6119 92.2333 12.9251 92.2333 13.0058C92.1637 13.4969 92.2171 13.9976 92.3888 14.463C92.5085 14.6465 92.5797 14.8573 92.5959 15.0758C92.612 15.2942 92.5725 15.5132 92.481 15.7123C92.3895 15.9113 92.2491 16.0839 92.0728 16.214C91.8965 16.344 91.6902 16.4273 91.473 16.456C90.4017 16.623 89.8372 14.7971 91.7207 14.3766L91.6055 13.0806C85.5345 16.0528 83.9275 23.2296 75.9673 22.1871C76.6239 23.9611 77.223 24.7675 76.0019 25.3896C75.7298 25.5362 75.4173 25.5902 75.1118 25.5434C74.8063 25.4967 74.5243 25.3517 74.3085 25.1304C74.2181 24.9995 74.1607 24.8486 74.1413 24.6907C74.122 24.5328 74.1411 24.3726 74.1971 24.2237C74.2532 24.0748 74.3445 23.9418 74.4632 23.8358C74.5818 23.7299 74.7244 23.6543 74.8787 23.6155C75.9212 23.3851 75.7254 24.1915 75.3683 22.5384C75.2589 22.0258 74.8729 22.0776 74.5043 22.0603C73.2832 22.0027 72.0679 21.8818 70.8468 21.8876C69.6658 21.8814 68.4965 22.1215 67.4135 22.5926C66.3305 23.0636 65.3576 23.7553 64.5569 24.6235C64.5259 24.6531 64.4846 24.6696 64.4417 24.6696C64.3988 24.6696 64.3576 24.6531 64.3265 24.6235C64.2982 24.5918 64.2825 24.5508 64.2825 24.5083C64.2825 24.4658 64.2982 24.4248 64.3265 24.3931C65.1984 23.2414 66.4057 22.3881 67.7825 21.9509C69.977 21.1676 72.2695 21.4786 74.8326 21.6226C74.1069 21.0466 74.2566 20.2921 74.2048 19.5836C74.176 19.0479 74.3718 18.9442 74.8845 19.0422C75.3971 19.1401 75.927 19.1689 76.4396 19.2495C78.6745 19.6009 78.974 19.5836 78.9625 20.1769C78.9625 21.3749 78.7494 21.5592 76.5951 21.4786C76.2569 21.4469 75.916 21.4604 75.5814 21.5189C75.6908 21.5938 75.7888 21.7263 75.8982 21.7378C83.8066 22.7343 85.6901 15.6265 90.7588 13.0115C92.3658 12.1821 90.6897 11.4045 91.9108 10.7709C93.4141 10.0049 94.8944 8.46695 95.0902 9.61894C95.407 11.5082 95.2918 11.704 95.8909 11.5773C98.0377 11.1118 100.146 10.4841 102.198 9.69957C103.246 9.33094 102.555 9.93573 102.394 9.99333Z" fill="#3C270B"/>
<path d="M89.5778 21.5765C80.7939 31.616 72.8279 22.7285 66.2674 27.2788C66.2257 27.3019 66.1772 27.3095 66.1304 27.3002C66.0837 27.2909 66.0417 27.2653 66.012 27.228C65.9823 27.1908 65.9668 27.1442 65.9682 27.0965C65.9696 27.0489 65.9879 27.0033 66.0197 26.9678C69.1531 24.0245 75.5697 26.3169 80.4771 26.0923C82.2322 25.9523 83.9388 25.4482 85.4882 24.612C90.0962 22.308 88.2875 19.0306 99.0471 15.3961C99.0922 15.3811 99.1413 15.3842 99.1842 15.4046C99.2272 15.4249 99.2606 15.4611 99.2775 15.5056C99.293 15.5508 99.291 15.6001 99.2718 15.6439C99.2526 15.6877 99.2176 15.7226 99.1738 15.7417C95.7581 17.1299 93.0452 17.9478 90.5973 20.6376C93.6212 19.7449 93.5291 19.5721 94.1511 21.0927C94.4103 21.7263 94.2318 22.0603 93.5751 22.1986C90.4763 22.8552 90.1883 22.7746 90.2517 23.5349C90.3488 24.3704 90.122 25.2114 89.6181 25.8849C89.5716 26.0192 89.5716 26.1653 89.6181 26.2996C89.9349 27.6244 87.8037 27.7051 87.6424 26.5473C87.6201 26.4293 87.6232 26.3079 87.6517 26.1913C87.6802 26.0746 87.7333 25.9654 87.8076 25.871C87.8818 25.7766 87.9753 25.6992 88.082 25.6439C88.1886 25.5887 88.3059 25.557 88.4258 25.5509C88.7656 25.5048 89.1976 25.8446 89.428 25.3723C89.8691 24.1529 89.9214 22.8268 89.5778 21.5765Z" fill="#3C270B"/>
<path d="M100.32 5.75979C100.365 5.75883 100.409 5.77388 100.444 5.80227C100.479 5.83066 100.503 5.87054 100.511 5.9148C100.519 5.95906 100.512 6.00483 100.489 6.04396C100.467 6.08308 100.432 6.11302 100.389 6.12843C99.6636 6.30123 97.7398 6.70442 92.049 8.07528C88.4433 8.93927 86.9803 9.56134 84.4171 12.0151C81.854 14.4688 80.4255 16.3523 76.647 16.8937C69.9886 17.8556 68.0935 17.5215 65.9278 18.5756C64.576 19.1568 63.4344 20.1377 62.6562 21.3864C62.1493 22.164 62.1263 21.6744 62.1436 21.6168C63.6239 17.5331 68.9287 17.366 71.8144 17.0665C77.7011 16.4617 79.5155 16.3235 83.0578 12.8157C86.2085 9.70533 87.4065 8.72615 91.0871 7.87368C96.0234 6.71018 99.0012 5.91531 100.32 5.75979Z" fill="#3C270B"/>
<path d="M71.9986 12.4355C71.2498 12.758 70.5241 13.0518 69.8099 13.3744C69.7016 13.418 69.6061 13.4882 69.532 13.5784C69.4579 13.6686 69.4077 13.7759 69.3859 13.8906C69.3641 14.0053 69.3715 14.1236 69.4073 14.2346C69.4431 14.3457 69.5063 14.446 69.591 14.5263C69.7119 14.6646 69.8617 14.7798 69.9769 14.9238C70.0848 15.0548 70.1583 15.2106 70.1907 15.3772C70.2231 15.5438 70.2134 15.7159 70.1625 15.8778C70.1116 16.0397 70.021 16.1863 69.8991 16.3044C69.7772 16.4224 69.6277 16.5082 69.4643 16.5538C68.151 16.9397 68.2662 16.7957 67.9609 16.047C67.8512 15.7666 67.8501 15.4553 67.9577 15.1741C68.0652 14.8929 68.2738 14.6619 68.5427 14.5263C68.6406 14.4803 68.7443 14.4515 68.8249 14.4169C69.0265 11.4217 68.5196 12.1129 71.6645 10.6384C72.2751 10.3504 72.4882 10.4771 72.5285 11.128C72.7013 13.7199 72.7071 13.622 73.0181 14.0367C73.6978 14.9583 72.7301 16.6575 71.6991 15.903C71.3305 15.6322 70.9734 15.327 71.0367 14.8201C71.2498 13.3628 72.9548 13.7142 71.9986 12.4355Z" fill="#3C270B"/>
<path d="M80.6385 11.3469C80.5636 10.5751 80.3563 8.70311 80.3793 7.89096C80.3793 7.28617 80.6673 7.11913 83.1902 5.80011C83.6049 5.587 83.8986 5.72523 84.0772 6.15723C84.4689 7.11337 84.4631 7.10761 83.5934 7.68936C81.5025 9.08326 81.1454 9.29062 81.1051 9.87813C80.958 10.5756 81.0578 11.3024 81.3873 11.9344C81.4493 12.0292 81.4903 12.1362 81.5075 12.2482C81.5248 12.3601 81.5179 12.4745 81.4874 12.5836C81.4568 12.6927 81.4033 12.794 81.3304 12.8807C81.2575 12.9674 81.167 13.0375 81.0648 13.0864C79.7285 13.9331 79.2792 12.6717 79.4232 12.1533C79.6305 11.4563 80.195 11.4563 80.6385 11.3469Z" fill="#3C270B"/>
<path d="M100.084 15.1139C100.818 14.8886 101.569 14.7248 102.33 14.6243C103.183 14.5263 102.711 14.9238 102.382 15.0217C102.215 15.0735 101.841 15.1196 100.142 15.5977C99.7615 15.6668 99.3987 15.3097 100.084 15.1139Z" fill="#3C270B"/>
<path d="M47.7034 27.1982C47.4615 27.2846 47.2023 27.4401 47.1274 27.1982C47.0352 26.8583 46.2807 27.2673 46.4881 26.6682C46.6436 26.2305 46.2116 26.1556 46.1367 25.8734C46.1367 25.7812 46.1021 25.6257 46.1367 25.5854C46.6839 25.1419 47.6976 26.8007 47.7034 27.1982Z" fill="#3C270B"/>
<path d="M55.7096 18.2473C55.2891 18.2127 55.1336 18.4719 54.932 18.7772C54.5 19.5202 54.1486 19.3532 54.1659 18.996C54.2228 18.6309 54.4098 18.2986 54.6924 18.0604C54.9751 17.8222 55.3342 17.6943 55.7038 17.7001C56.5159 17.8556 55.8708 18.2588 55.7096 18.2473Z" fill="#3C270B"/>
<path d="M23.4025 67.1951C23.8115 62.6793 23.7251 63.1631 23.8979 63.1228C23.9785 63.4799 24.0476 62.7542 23.5868 67.5522C23.5177 68.2894 23.0108 68.3816 23.0108 67.9611C22.9623 66.0814 23.0508 64.2006 23.2758 62.3337C23.3507 61.51 23.7481 60.8534 23.6675 61.9132C23.3852 65.5016 23.27 66.7515 23.2643 67.1778C23.2643 67.4715 23.3795 67.4542 23.4025 67.1951Z" fill="#3C270B"/>
</svg>
